<ttFont>
    <TTGlyph name="A" xMin="-23" yMin="-5" xMax="612" yMax="715">
      <contour>
        <pt x="612" y="54" on="1"/>
        <pt x="600" y="0" on="1"/>
        <pt x="502" y="0" on="1"/>
        <pt x="360" y="-5" on="1"/>
        <pt x="364" y="44" on="1"/>
        <pt x="437" y="64" on="1"/>
        <pt x="427" y="172" on="1"/>
        <pt x="416" y="232" on="1"/>
        <pt x="204" y="232" on="1"/>
        <pt x="158" y="127" on="1"/>
        <pt x="139" y="64" on="1"/>
        <pt x="205" y="54" on="1"/>
        <pt x="193" y="0" on="1"/>
        <pt x="108" y="0" on="1"/>
        <pt x="-23" y="-5" on="1"/>
        <pt x="-20" y="44" on="1"/>
        <pt x="43" y="61" on="1"/>
        <pt x="99" y="160" on="1"/>
        <pt x="349" y="705" on="1"/>
        <pt x="409" y="715" on="1"/>
        <pt x="529" y="149" on="1"/>
        <pt x="554" y="64" on="1"/>
      </contour>
      <contour>
        <pt x="354" y="557" on="1"/>
        <pt x="229" y="282" on="1"/>
        <pt x="404" y="286" on="1"/>
      </contour>
    </TTGlyph>
    <TTGlyph name="AE" xMin="-6" yMin="-5" xMax="897" yMax="715">
      <contour>
        <pt x="732" y="648" on="1"/>
        <pt x="557" y="648" on="1"/>
        <pt x="553" y="599" on="0"/>
        <pt x="551" y="541" on="1"/>
        <pt x="552" y="386" on="1"/>
        <pt x="606" y="382" on="0"/>
        <pt x="625" y="382" on="1"/>
        <pt x="672" y="382" on="1"/>
        <pt x="731" y="391" on="1"/>
        <pt x="750" y="457" on="1"/>
        <pt x="793" y="452" on="1"/>
        <pt x="781" y="372" on="1"/>
        <pt x="767" y="263" on="1"/>
        <pt x="720" y="257" on="1"/>
        <pt x="721" y="324" on="1"/>
        <pt x="664" y="330" on="0"/>
        <pt x="645" y="330" on="1"/>
        <pt x="617" y="330" on="1"/>
        <pt x="604" y="330" on="0"/>
        <pt x="552" y="326" on="1"/>
        <pt x="553" y="174" on="1"/>
        <pt x="560" y="57" on="1"/>
        <pt x="678" y="57" on="1"/>
        <pt x="713" y="57" on="0"/>
        <pt x="765" y="66" on="1"/>
        <pt x="785" y="92" on="0"/>
        <pt x="790" y="103" on="1"/>
        <pt x="809" y="149" on="0"/>
        <pt x="815" y="170" on="1"/>
        <pt x="867" y="165" on="1"/>
        <pt x="830" y="14" on="1"/>
        <pt x="809" y="-4" on="1"/>
        <pt x="719" y="0" on="0"/>
        <pt x="699" y="0" on="1"/>
        <pt x="488" y="0" on="1"/>
        <pt x="372" y="-5" on="1"/>
        <pt x="376" y="45" on="1"/>
        <pt x="457" y="61" on="1"/>
        <pt x="462" y="93" on="0"/>
        <pt x="462" y="130" on="1"/>
        <pt x="462" y="248" on="1"/>
        <pt x="254" y="248" on="1"/>
        <pt x="166" y="102" on="1"/>
        <pt x="163" y="97" on="0"/>
        <pt x="152" y="67" on="0"/>
        <pt x="149" y="61" on="1"/>
        <pt x="227" y="54" on="1"/>
        <pt x="211" y="-5" on="1"/>
        <pt x="163" y="0" on="0"/>
        <pt x="85" y="0" on="1"/>
        <pt x="-6" y="-5" on="1"/>
        <pt x="-3" y="45" on="1"/>
        <pt x="57" y="61" on="1"/>
        <pt x="114" y="126" on="0"/>
        <pt x="130" y="153" on="1"/>
        <pt x="429" y="644" on="1"/>
        <pt x="355" y="656" on="1"/>
        <pt x="368" y="710" on="1"/>
        <pt x="460" y="705" on="0"/>
        <pt x="479" y="705" on="1"/>
        <pt x="769" y="705" on="1"/>
        <pt x="881" y="715" on="1"/>
        <pt x="897" y="697" on="1"/>
        <pt x="884" y="561" on="1"/>
        <pt x="827" y="556" on="1"/>
        <pt x="827" y="588" on="0"/>
        <pt x="824" y="620" on="0"/>
        <pt x="810" y="643" on="1"/>
        <pt x="757" y="648" on="0"/>
      </contour>
      <contour>
        <pt x="286" y="299" on="1"/>
        <pt x="462" y="302" on="1"/>
        <pt x="461" y="556" on="1"/>
        <pt x="458" y="584" on="1"/>
      </contour>
    </TTGlyph>
    <TTGlyph name="AEacute" xMin="-6" yMin="-5" xMax="897" yMax="898">
      <contour>
        <pt x="732" y="648" on="1"/>
        <pt x="557" y="648" on="1"/>
        <pt x="553" y="599" on="0"/>
        <pt x="551" y="541" on="1"/>
        <pt x="552" y="386" on="1"/>
        <pt x="606" y="382" on="0"/>
        <pt x="625" y="382" on="1"/>
        <pt x="672" y="382" on="1"/>
        <pt x="731" y="391" on="1"/>
        <pt x="750" y="457" on="1"/>
        <pt x="793" y="452" on="1"/>
        <pt x="781" y="372" on="1"/>
        <pt x="767" y="263" on="1"/>
        <pt x="720" y="257" on="1"/>
        <pt x="721" y="324" on="1"/>
        <pt x="664" y="330" on="0"/>
        <pt x="645" y="330" on="1"/>
        <pt x="617" y="330" on="1"/>
        <pt x="604" y="330" on="0"/>
        <pt x="552" y="326" on="1"/>
        <pt x="553" y="174" on="1"/>
        <pt x="560" y="57" on="1"/>
        <pt x="678" y="57" on="1"/>
        <pt x="713" y="57" on="0"/>
        <pt x="765" y="66" on="1"/>
        <pt x="785" y="92" on="0"/>
        <pt x="790" y="103" on="1"/>
        <pt x="809" y="149" on="0"/>
        <pt x="815" y="170" on="1"/>
        <pt x="867" y="165" on="1"/>
        <pt x="830" y="14" on="1"/>
        <pt x="809" y="-4" on="1"/>
        <pt x="719" y="0" on="0"/>
        <pt x="699" y="0" on="1"/>
        <pt x="488" y="0" on="1"/>
        <pt x="372" y="-5" on="1"/>
        <pt x="376" y="45" on="1"/>
        <pt x="457" y="61" on="1"/>
        <pt x="462" y="93" on="0"/>
        <pt x="462" y="130" on="1"/>
        <pt x="462" y="248" on="1"/>
        <pt x="254" y="248" on="1"/>
        <pt x="166" y="102" on="1"/>
        <pt x="163" y="97" on="0"/>
        <pt x="152" y="67" on="0"/>
        <pt x="149" y="61" on="1"/>
        <pt x="227" y="54" on="1"/>
        <pt x="211" y="-5" on="1"/>
        <pt x="163" y="0" on="0"/>
        <pt x="85" y="0" on="1"/>
        <pt x="-6" y="-5" on="1"/>
        <pt x="-3" y="45" on="1"/>
        <pt x="57" y="61" on="1"/>
        <pt x="114" y="126" on="0"/>
        <pt x="130" y="153" on="1"/>
        <pt x="429" y="644" on="1"/>
        <pt x="355" y="656" on="1"/>
        <pt x="368" y="710" on="1"/>
        <pt x="460" y="705" on="0"/>
        <pt x="479" y="705" on="1"/>
        <pt x="769" y="705" on="1"/>
        <pt x="881" y="715" on="1"/>
        <pt x="897" y="697" on="1"/>
        <pt x="884" y="561" on="1"/>
        <pt x="827" y="556" on="1"/>
        <pt x="827" y="588" on="0"/>
        <pt x="824" y="620" on="0"/>
        <pt x="810" y="643" on="1"/>
        <pt x="757" y="648" on="0"/>
      </contour>
      <contour>
        <pt x="286" y="299" on="1"/>
        <pt x="462" y="302" on="1"/>
        <pt x="461" y="556" on="1"/>
        <pt x="458" y="584" on="1"/>
      </contour>
      <contour>
        <pt x="725" y="898" on="1"/>
        <pt x="754" y="825" on="1"/>
        <pt x="626" y="793" on="0"/>
        <pt x="607" y="787" on="1"/>
        <pt x="522" y="750" on="1"/>
        <pt x="502" y="798" on="1"/>
      </contour>
    </TTGlyph>
    <TTGlyph name="Aacute" xMin="-23" yMin="-5" xMax="612" yMax="898">
      <contour>
        <pt x="612" y="54" on="1"/>
        <pt x="600" y="0" on="1"/>
        <pt x="502" y="0" on="1"/>
        <pt x="360" y="-5" on="1"/>
        <pt x="364" y="44" on="1"/>
        <pt x="437" y="64" on="1"/>
        <pt x="427" y="172" on="1"/>
        <pt x="416" y="232" on="1"/>
        <pt x="204" y="232" on="1"/>
        <pt x="158" y="127" on="1"/>
        <pt x="139" y="64" on="1"/>
        <pt x="205" y="54" on="1"/>
        <pt x="193" y="0" on="1"/>
        <pt x="108" y="0" on="1"/>
        <pt x="-23" y="-5" on="1"/>
        <pt x="-20" y="44" on="1"/>
        <pt x="43" y="61" on="1"/>
        <pt x="99" y="160" on="1"/>
        <pt x="349" y="705" on="1"/>
        <pt x="409" y="715" on="1"/>
        <pt x="529" y="149" on="1"/>
        <pt x="554" y="64" on="1"/>
      </contour>
      <contour>
        <pt x="354" y="557" on="1"/>
        <pt x="229" y="282" on="1"/>
        <pt x="404" y="286" on="1"/>
      </contour>
      <contour>
        <pt x="508" y="898" on="1"/>
        <pt x="537" y="825" on="1"/>
        <pt x="409" y="793" on="0"/>
        <pt x="390" y="787" on="1"/>
        <pt x="305" y="750" on="1"/>
        <pt x="285" y="798" on="1"/>
      </contour>
    </TTGlyph>
    <TTGlyph name="Abreve" xMin="-23" yMin="-5" xMax="612" yMax="898">
      <contour>
        <pt x="612" y="54" on="1"/>
        <pt x="600" y="0" on="1"/>
        <pt x="502" y="0" on="1"/>
        <pt x="360" y="-5" on="1"/>
        <pt x="364" y="44" on="1"/>
        <pt x="437" y="64" on="1"/>
        <pt x="427" y="172" on="1"/>
        <pt x="416" y="232" on="1"/>
        <pt x="204" y="232" on="1"/>
        <pt x="158" y="127" on="1"/>
        <pt x="139" y="64" on="1"/>
        <pt x="205" y="54" on="1"/>
        <pt x="193" y="0" on="1"/>
        <pt x="108" y="0" on="1"/>
        <pt x="-23" y="-5" on="1"/>
        <pt x="-20" y="44" on="1"/>
        <pt x="43" y="61" on="1"/>
        <pt x="99" y="160" on="1"/>
        <pt x="349" y="705" on="1"/>
        <pt x="409" y="715" on="1"/>
        <pt x="529" y="149" on="1"/>
        <pt x="554" y="64" on="1"/>
      </contour>
      <contour>
        <pt x="354" y="557" on="1"/>
        <pt x="229" y="282" on="1"/>
        <pt x="404" y="286" on="1"/>
      </contour>
      <contour>
        <pt x="514" y="830" on="0"/>
        <pt x="435" y="758" on="0"/>
        <pt x="304" y="758" on="0"/>
        <pt x="274" y="794" on="1"/>
        <pt x="252" y="821" on="0"/>
        <pt x="252" y="866" on="1"/>
        <pt x="252" y="881" on="0"/>
        <pt x="255" y="898" on="1"/>
        <pt x="309" y="898" on="1"/>
        <pt x="308" y="890" on="0"/>
        <pt x="308" y="883" on="1"/>
        <pt x="308" y="855" on="0"/>
        <pt x="341" y="814" on="0"/>
        <pt x="414" y="814" on="0"/>
        <pt x="465" y="860" on="0"/>
        <pt x="470" y="898" on="1"/>
        <pt x="524" y="898" on="1"/>
      </contour>
    </TTGlyph>
    <TTGlyph name="Acircumflex" xMin="-23" yMin="-5" xMax="612" yMax="893">
      <contour>
        <pt x="612" y="54" on="1"/>
        <pt x="600" y="0" on="1"/>
        <pt x="502" y="0" on="1"/>
        <pt x="360" y="-5" on="1"/>
        <pt x="364" y="44" on="1"/>
        <pt x="437" y="64" on="1"/>
        <pt x="427" y="172" on="1"/>
        <pt x="416" y="232" on="1"/>
        <pt x="204" y="232" on="1"/>
        <pt x="158" y="127" on="1"/>
        <pt x="139" y="64" on="1"/>
        <pt x="205" y="54" on="1"/>
        <pt x="193" y="0" on="1"/>
        <pt x="108" y="0" on="1"/>
        <pt x="-23" y="-5" on="1"/>
        <pt x="-20" y="44" on="1"/>
        <pt x="43" y="61" on="1"/>
        <pt x="99" y="160" on="1"/>
        <pt x="349" y="705" on="1"/>
        <pt x="409" y="715" on="1"/>
        <pt x="529" y="149" on="1"/>
        <pt x="554" y="64" on="1"/>
      </contour>
      <contour>
        <pt x="354" y="557" on="1"/>
        <pt x="229" y="282" on="1"/>
        <pt x="404" y="286" on="1"/>
      </contour>
      <contour>
        <pt x="405" y="893" on="1"/>
        <pt x="558" y="786" on="1"/>
        <pt x="530" y="747" on="1"/>
        <pt x="451" y="788" on="1"/>
        <pt x="394" y="813" on="1"/>
        <pt x="385" y="810" on="0"/>
        <pt x="355" y="798" on="0"/>
        <pt x="333" y="790" on="0"/>
        <pt x="328" y="788" on="1"/>
        <pt x="237" y="747" on="1"/>
        <pt x="221" y="786" on="1"/>
      </contour>
    </TTGlyph>
    <TTGlyph name="Adieresis" xMin="-23" yMin="-5" xMax="612" yMax="884">
      <contour>
        <pt x="612" y="54" on="1"/>
        <pt x="600" y="0" on="1"/>
        <pt x="502" y="0" on="1"/>
        <pt x="360" y="-5" on="1"/>
        <pt x="364" y="44" on="1"/>
        <pt x="437" y="64" on="1"/>
        <pt x="427" y="172" on="1"/>
        <pt x="416" y="232" on="1"/>
        <pt x="204" y="232" on="1"/>
        <pt x="158" y="127" on="1"/>
        <pt x="139" y="64" on="1"/>
        <pt x="205" y="54" on="1"/>
        <pt x="193" y="0" on="1"/>
        <pt x="108" y="0" on="1"/>
        <pt x="-23" y="-5" on="1"/>
        <pt x="-20" y="44" on="1"/>
        <pt x="43" y="61" on="1"/>
        <pt x="99" y="160" on="1"/>
        <pt x="349" y="705" on="1"/>
        <pt x="409" y="715" on="1"/>
        <pt x="529" y="149" on="1"/>
        <pt x="554" y="64" on="1"/>
      </contour>
      <contour>
        <pt x="354" y="557" on="1"/>
        <pt x="229" y="282" on="1"/>
        <pt x="404" y="286" on="1"/>
      </contour>
      <contour>
        <pt x="518" y="884" on="1"/>
        <pt x="563" y="884" on="0"/>
        <pt x="563" y="836" on="1"/>
        <pt x="563" y="804" on="0"/>
        <pt x="531" y="765" on="0"/>
        <pt x="501" y="765" on="1"/>
        <pt x="456" y="765" on="0"/>
        <pt x="456" y="812" on="1"/>
        <pt x="456" y="844" on="0"/>
        <pt x="488" y="884" on="0"/>
      </contour>
      <contour>
        <pt x="289" y="884" on="1"/>
        <pt x="335" y="884" on="0"/>
        <pt x="335" y="836" on="1"/>
        <pt x="335" y="804" on="0"/>
        <pt x="302" y="765" on="0"/>
        <pt x="272" y="765" on="1"/>
        <pt x="227" y="765" on="0"/>
        <pt x="227" y="812" on="1"/>
        <pt x="227" y="844" on="0"/>
        <pt x="259" y="884" on="0"/>
      </contour>
    </TTGlyph>
    <TTGlyph name="Agrave" xMin="-23" yMin="-5" xMax="612" yMax="898">
      <contour>
        <pt x="612" y="54" on="1"/>
        <pt x="600" y="0" on="1"/>
        <pt x="502" y="0" on="1"/>
        <pt x="360" y="-5" on="1"/>
        <pt x="364" y="44" on="1"/>
        <pt x="437" y="64" on="1"/>
        <pt x="427" y="172" on="1"/>
        <pt x="416" y="232" on="1"/>
        <pt x="204" y="232" on="1"/>
        <pt x="158" y="127" on="1"/>
        <pt x="139" y="64" on="1"/>
        <pt x="205" y="54" on="1"/>
        <pt x="193" y="0" on="1"/>
        <pt x="108" y="0" on="1"/>
        <pt x="-23" y="-5" on="1"/>
        <pt x="-20" y="44" on="1"/>
        <pt x="43" y="61" on="1"/>
        <pt x="99" y="160" on="1"/>
        <pt x="349" y="705" on="1"/>
        <pt x="409" y="715" on="1"/>
        <pt x="529" y="149" on="1"/>
        <pt x="554" y="64" on="1"/>
      </contour>
      <contour>
        <pt x="354" y="557" on="1"/>
        <pt x="229" y="282" on="1"/>
        <pt x="404" y="286" on="1"/>
      </contour>
      <contour>
        <pt x="247" y="825" on="1"/>
        <pt x="277" y="898" on="1"/>
        <pt x="499" y="798" on="1"/>
        <pt x="479" y="750" on="1"/>
        <pt x="394" y="787" on="1"/>
      </contour>
    </TTGlyph>
    <TTGlyph name="Amacron" xMin="-23" yMin="-5" xMax="612" yMax="834">
      <contour>
        <pt x="612" y="54" on="1"/>
        <pt x="600" y="0" on="1"/>
        <pt x="502" y="0" on="1"/>
        <pt x="360" y="-5" on="1"/>
        <pt x="364" y="44" on="1"/>
        <pt x="437" y="64" on="1"/>
        <pt x="427" y="172" on="1"/>
        <pt x="416" y="232" on="1"/>
        <pt x="204" y="232" on="1"/>
        <pt x="158" y="127" on="1"/>
        <pt x="139" y="64" on="1"/>
        <pt x="205" y="54" on="1"/>
        <pt x="193" y="0" on="1"/>
        <pt x="108" y="0" on="1"/>
        <pt x="-23" y="-5" on="1"/>
        <pt x="-20" y="44" on="1"/>
        <pt x="43" y="61" on="1"/>
        <pt x="99" y="160" on="1"/>
        <pt x="349" y="705" on="1"/>
        <pt x="409" y="715" on="1"/>
        <pt x="529" y="149" on="1"/>
        <pt x="554" y="64" on="1"/>
      </contour>
      <contour>
        <pt x="354" y="557" on="1"/>
        <pt x="229" y="282" on="1"/>
        <pt x="404" y="286" on="1"/>
      </contour>
      <contour>
        <pt x="538" y="781" on="1"/>
        <pt x="230" y="781" on="1"/>
        <pt x="238" y="834" on="1"/>
        <pt x="551" y="834" on="1"/>
      </contour>
    </TTGlyph>
    <TTGlyph name="Aogonek" xMin="-26" yMin="-197" xMax="609" yMax="715">
      <contour>
        <pt x="343" y="-110" on="1"/>
        <pt x="343" y="-130" on="0"/>
        <pt x="367" y="-155" on="0"/>
        <pt x="413" y="-155" on="0"/>
        <pt x="445" y="-142" on="1"/>
        <pt x="454" y="-175" on="1"/>
        <pt x="404" y="-197" on="0"/>
        <pt x="327" y="-197" on="0"/>
        <pt x="280" y="-159" on="0"/>
        <pt x="280" y="-85" on="0"/>
        <pt x="319" y="-35" on="0"/>
        <pt x="429" y="53" on="0"/>
        <pt x="429" y="117" on="1"/>
        <pt x="429" y="134" on="0"/>
        <pt x="425" y="172" on="1"/>
        <pt x="414" y="232" on="1"/>
        <pt x="201" y="232" on="1"/>
        <pt x="155" y="127" on="1"/>
        <pt x="135" y="64" on="1"/>
        <pt x="202" y="54" on="1"/>
        <pt x="189" y="0" on="1"/>
        <pt x="106" y="0" on="1"/>
        <pt x="-26" y="-5" on="1"/>
        <pt x="-23" y="44" on="1"/>
        <pt x="41" y="61" on="1"/>
        <pt x="97" y="160" on="1"/>
        <pt x="350" y="705" on="1"/>
        <pt x="407" y="715" on="1"/>
        <pt x="525" y="149" on="1"/>
        <pt x="550" y="64" on="1"/>
        <pt x="609" y="54" on="1"/>
        <pt x="596" y="0" on="1"/>
        <pt x="456" y="0" on="1"/>
        <pt x="408" y="-6" on="0"/>
        <pt x="343" y="-75" on="0"/>
      </contour>
      <contour>
        <pt x="350" y="557" on="1"/>
        <pt x="225" y="282" on="1"/>
        <pt x="403" y="286" on="1"/>
      </contour>
    </TTGlyph>
    <TTGlyph name="Aring" xMin="-23" yMin="-5" xMax="612" yMax="916">
      <contour>
        <pt x="612" y="54" on="1"/>
        <pt x="600" y="0" on="1"/>
        <pt x="502" y="0" on="1"/>
        <pt x="360" y="-5" on="1"/>
        <pt x="364" y="44" on="1"/>
        <pt x="437" y="64" on="1"/>
        <pt x="427" y="172" on="1"/>
        <pt x="416" y="232" on="1"/>
        <pt x="204" y="232" on="1"/>
        <pt x="158" y="127" on="1"/>
        <pt x="139" y="64" on="1"/>
        <pt x="205" y="54" on="1"/>
        <pt x="193" y="0" on="1"/>
        <pt x="108" y="0" on="1"/>
        <pt x="-23" y="-5" on="1"/>
        <pt x="-20" y="44" on="1"/>
        <pt x="43" y="61" on="1"/>
        <pt x="99" y="160" on="1"/>
        <pt x="349" y="705" on="1"/>
        <pt x="409" y="715" on="1"/>
        <pt x="529" y="149" on="1"/>
        <pt x="554" y="64" on="1"/>
      </contour>
      <contour>
        <pt x="304" y="861" on="0"/>
        <pt x="357" y="916" on="0"/>
        <pt x="400" y="916" on="1"/>
        <pt x="480" y="916" on="0"/>
        <pt x="480" y="845" on="1"/>
        <pt x="480" y="800" on="0"/>
        <pt x="429" y="745" on="0"/>
        <pt x="386" y="745" on="1"/>
        <pt x="304" y="745" on="0"/>
        <pt x="304" y="816" on="1"/>
      </contour>
      <contour>
        <pt x="354" y="557" on="1"/>
        <pt x="229" y="282" on="1"/>
        <pt x="404" y="286" on="1"/>
      </contour>
      <contour>
        <pt x="400" y="878" on="1"/>
        <pt x="376" y="878" on="0"/>
        <pt x="352" y="844" on="0"/>
        <pt x="352" y="821" on="1"/>
        <pt x="352" y="783" on="0"/>
        <pt x="386" y="783" on="1"/>
        <pt x="411" y="783" on="0"/>
        <pt x="434" y="817" on="0"/>
        <pt x="434" y="840" on="1"/>
        <pt x="434" y="878" on="0"/>
      </contour>
    </TTGlyph>
    <TTGlyph name="Aringacute" xMin="-23" yMin="-5" xMax="612" yMax="997">
      <contour>
        <pt x="612" y="54" on="1"/>
        <pt x="600" y="0" on="1"/>
        <pt x="502" y="0" on="1"/>
        <pt x="360" y="-5" on="1"/>
        <pt x="364" y="44" on="1"/>
        <pt x="437" y="64" on="1"/>
        <pt x="427" y="172" on="1"/>
        <pt x="416" y="232" on="1"/>
        <pt x="204" y="232" on="1"/>
        <pt x="158" y="127" on="1"/>
        <pt x="139" y="64" on="1"/>
        <pt x="205" y="54" on="1"/>
        <pt x="193" y="0" on="1"/>
        <pt x="108" y="0" on="1"/>
        <pt x="-23" y="-5" on="1"/>
        <pt x="-20" y="44" on="1"/>
        <pt x="43" y="61" on="1"/>
        <pt x="99" y="160" on="1"/>
        <pt x="349" y="705" on="1"/>
        <pt x="409" y="715" on="1"/>
        <pt x="529" y="149" on="1"/>
        <pt x="554" y="64" on="1"/>
      </contour>
      <contour>
        <pt x="354" y="557" on="1"/>
        <pt x="229" y="282" on="1"/>
        <pt x="404" y="286" on="1"/>
      </contour>
      <contour>
        <pt x="401" y="874" on="1"/>
        <pt x="464" y="874" on="0"/>
        <pt x="464" y="814" on="1"/>
        <pt x="464" y="776" on="0"/>
        <pt x="420" y="729" on="0"/>
        <pt x="384" y="729" on="1"/>
        <pt x="314" y="729" on="0"/>
        <pt x="314" y="789" on="1"/>
        <pt x="314" y="828" on="0"/>
        <pt x="359" y="874" on="0"/>
      </contour>
      <contour>
        <pt x="396" y="842" on="1"/>
        <pt x="376" y="842" on="0"/>
        <pt x="355" y="813" on="0"/>
        <pt x="355" y="794" on="1"/>
        <pt x="355" y="761" on="0"/>
        <pt x="384" y="761" on="1"/>
        <pt x="405" y="761" on="0"/>
        <pt x="424" y="790" on="0"/>
        <pt x="424" y="810" on="1"/>
        <pt x="424" y="842" on="0"/>
      </contour>
      <contour>
        <pt x="466" y="997" on="1"/>
        <pt x="492" y="932" on="1"/>
        <pt x="377" y="903" on="0"/>
        <pt x="360" y="897" on="1"/>
        <pt x="283" y="864" on="1"/>
        <pt x="265" y="907" on="1"/>
      </contour>
    </TTGlyph>
    <TTGlyph name="Atilde" xMin="-23" yMin="-5" xMax="612" yMax="882">
      <contour>
        <pt x="612" y="54" on="1"/>
        <pt x="600" y="0" on="1"/>
        <pt x="502" y="0" on="1"/>
        <pt x="360" y="-5" on="1"/>
        <pt x="364" y="44" on="1"/>
        <pt x="437" y="64" on="1"/>
        <pt x="427" y="172" on="1"/>
        <pt x="416" y="232" on="1"/>
        <pt x="204" y="232" on="1"/>
        <pt x="158" y="127" on="1"/>
        <pt x="139" y="64" on="1"/>
        <pt x="205" y="54" on="1"/>
        <pt x="193" y="0" on="1"/>
        <pt x="108" y="0" on="1"/>
        <pt x="-23" y="-5" on="1"/>
        <pt x="-20" y="44" on="1"/>
        <pt x="43" y="61" on="1"/>
        <pt x="99" y="160" on="1"/>
        <pt x="349" y="705" on="1"/>
        <pt x="409" y="715" on="1"/>
        <pt x="529" y="149" on="1"/>
        <pt x="554" y="64" on="1"/>
      </contour>
      <contour>
        <pt x="354" y="557" on="1"/>
        <pt x="229" y="282" on="1"/>
        <pt x="404" y="286" on="1"/>
      </contour>
      <contour>
        <pt x="487" y="763" on="0"/>
        <pt x="450" y="763" on="0"/>
        <pt x="336" y="804" on="0"/>
        <pt x="320" y="804" on="1"/>
        <pt x="294" y="804" on="0"/>
        <pt x="267" y="771" on="1"/>
        <pt x="258" y="760" on="1"/>
        <pt x="226" y="781" on="1"/>
        <pt x="238" y="805" on="0"/>
        <pt x="260" y="829" on="1"/>
        <pt x="299" y="872" on="0"/>
        <pt x="340" y="872" on="0"/>
        <pt x="454" y="831" on="0"/>
        <pt x="470" y="831" on="1"/>
        <pt x="498" y="831" on="0"/>
        <pt x="524" y="869" on="1"/>
        <pt x="533" y="882" on="1"/>
        <pt x="565" y="861" on="1"/>
        <pt x="545" y="825" on="0"/>
      </contour>
    </TTGlyph>
    <TTGlyph name="B" xMin="15" yMin="-5" xMax="567" yMax="715">
      <contour>
        <pt x="225" y="705" on="1"/>
        <pt x="390" y="715" on="1"/>
        <pt x="464" y="715" on="0"/>
        <pt x="567" y="635" on="0"/>
        <pt x="567" y="494" on="0"/>
        <pt x="473" y="387" on="0"/>
        <pt x="401" y="370" on="1"/>
        <pt x="400" y="363" on="1"/>
        <pt x="466" y="353" on="0"/>
        <pt x="545" y="272" on="0"/>
        <pt x="545" y="208" on="1"/>
        <pt x="545" y="113" on="0"/>
        <pt x="414" y="-5" on="0"/>
        <pt x="318" y="-5" on="1"/>
        <pt x="318" y="-5" on="0"/>
        <pt x="119" y="0" on="1"/>
        <pt x="15" y="-5" on="1"/>
        <pt x="17" y="45" on="1"/>
        <pt x="93" y="61" on="1"/>
        <pt x="108" y="111" on="0"/>
        <pt x="113" y="137" on="1"/>
        <pt x="178" y="568" on="1"/>
        <pt x="180" y="585" on="0"/>
        <pt x="180" y="644" on="1"/>
        <pt x="111" y="656" on="1"/>
        <pt x="124" y="710" on="1"/>
        <pt x="197" y="706" on="0"/>
      </contour>
      <contour>
        <pt x="288" y="53" on="1"/>
        <pt x="357" y="53" on="0"/>
        <pt x="444" y="138" on="0"/>
        <pt x="444" y="274" on="0"/>
        <pt x="362" y="337" on="0"/>
        <pt x="297" y="337" on="1"/>
        <pt x="286" y="337" on="1"/>
        <pt x="301" y="394" on="1"/>
        <pt x="308" y="394" on="1"/>
        <pt x="378" y="394" on="0"/>
        <pt x="473" y="479" on="0"/>
        <pt x="473" y="553" on="1"/>
        <pt x="473" y="602" on="0"/>
        <pt x="419" y="661" on="0"/>
        <pt x="339" y="661" on="0"/>
        <pt x="289" y="655" on="1"/>
        <pt x="273" y="602" on="0"/>
        <pt x="264" y="538" on="1"/>
        <pt x="208" y="167" on="1"/>
        <pt x="198" y="94" on="0"/>
        <pt x="198" y="59" on="1"/>
        <pt x="246" y="53" on="0"/>
      </contour>
    </TTGlyph>
    <TTGlyph name="C" xMin="49" yMin="-15" xMax="614" yMax="720">
      <contour>
        <pt x="321" y="-15" on="1"/>
        <pt x="192" y="-15" on="0"/>
        <pt x="49" y="146" on="0"/>
        <pt x="49" y="281" on="1"/>
        <pt x="49" y="474" on="0"/>
        <pt x="244" y="720" on="0"/>
        <pt x="418" y="720" on="1"/>
        <pt x="494" y="720" on="0"/>
        <pt x="592" y="692" on="1"/>
        <pt x="610" y="687" on="0"/>
        <pt x="614" y="686" on="1"/>
        <pt x="583" y="538" on="1"/>
        <pt x="525" y="542" on="1"/>
        <pt x="532" y="589" on="1"/>
        <pt x="532" y="591" on="0"/>
        <pt x="532" y="608" on="0"/>
        <pt x="528" y="639" on="1"/>
        <pt x="464" y="662" on="0"/>
        <pt x="410" y="662" on="1"/>
        <pt x="330" y="662" on="0"/>
        <pt x="210" y="553" on="0"/>
        <pt x="152" y="384" on="0"/>
        <pt x="152" y="177" on="0"/>
        <pt x="245" y="43" on="0"/>
        <pt x="328" y="43" on="1"/>
        <pt x="380" y="43" on="0"/>
        <pt x="453" y="65" on="1"/>
        <pt x="473" y="111" on="0"/>
        <pt x="475" y="121" on="1"/>
        <pt x="484" y="168" on="1"/>
        <pt x="542" y="170" on="1"/>
        <pt x="526" y="19" on="1"/>
        <pt x="500" y="10" on="0"/>
        <pt x="465" y="4" on="0"/>
        <pt x="424" y="-6" on="0"/>
        <pt x="404" y="-8" on="0"/>
        <pt x="386" y="-10" on="1"/>
        <pt x="354" y="-15" on="0"/>
      </contour>
    </TTGlyph>
    <TTGlyph name="Cacute" xMin="49" yMin="-15" xMax="614" yMax="898">
      <contour>
        <pt x="321" y="-15" on="1"/>
        <pt x="192" y="-15" on="0"/>
        <pt x="49" y="146" on="0"/>
        <pt x="49" y="281" on="1"/>
        <pt x="49" y="474" on="0"/>
        <pt x="244" y="720" on="0"/>
        <pt x="418" y="720" on="1"/>
        <pt x="494" y="720" on="0"/>
        <pt x="592" y="692" on="1"/>
        <pt x="610" y="687" on="0"/>
        <pt x="614" y="686" on="1"/>
        <pt x="583" y="538" on="1"/>
        <pt x="525" y="542" on="1"/>
        <pt x="532" y="589" on="1"/>
        <pt x="532" y="591" on="0"/>
        <pt x="532" y="608" on="0"/>
        <pt x="528" y="639" on="1"/>
        <pt x="464" y="662" on="0"/>
        <pt x="410" y="662" on="1"/>
        <pt x="330" y="662" on="0"/>
        <pt x="210" y="553" on="0"/>
        <pt x="152" y="384" on="0"/>
        <pt x="152" y="177" on="0"/>
        <pt x="245" y="43" on="0"/>
        <pt x="328" y="43" on="1"/>
        <pt x="380" y="43" on="0"/>
        <pt x="453" y="65" on="1"/>
        <pt x="473" y="111" on="0"/>
        <pt x="475" y="121" on="1"/>
        <pt x="484" y="168" on="1"/>
        <pt x="542" y="170" on="1"/>
        <pt x="526" y="19" on="1"/>
        <pt x="500" y="10" on="0"/>
        <pt x="465" y="4" on="0"/>
        <pt x="424" y="-6" on="0"/>
        <pt x="404" y="-8" on="0"/>
        <pt x="386" y="-10" on="1"/>
        <pt x="354" y="-15" on="0"/>
      </contour>
      <contour>
        <pt x="531" y="898" on="1"/>
        <pt x="560" y="825" on="1"/>
        <pt x="432" y="793" on="0"/>
        <pt x="413" y="787" on="1"/>
        <pt x="328" y="750" on="1"/>
        <pt x="308" y="798" on="1"/>
      </contour>
    </TTGlyph>
    <TTGlyph name="Ccaron" xMin="49" yMin="-15" xMax="614" yMax="893">
      <contour>
        <pt x="321" y="-15" on="1"/>
        <pt x="192" y="-15" on="0"/>
        <pt x="49" y="146" on="0"/>
        <pt x="49" y="281" on="1"/>
        <pt x="49" y="474" on="0"/>
        <pt x="244" y="720" on="0"/>
        <pt x="418" y="720" on="1"/>
        <pt x="494" y="720" on="0"/>
        <pt x="592" y="692" on="1"/>
        <pt x="610" y="687" on="0"/>
        <pt x="614" y="686" on="1"/>
        <pt x="583" y="538" on="1"/>
        <pt x="525" y="542" on="1"/>
        <pt x="532" y="589" on="1"/>
        <pt x="532" y="591" on="0"/>
        <pt x="532" y="608" on="0"/>
        <pt x="528" y="639" on="1"/>
        <pt x="464" y="662" on="0"/>
        <pt x="410" y="662" on="1"/>
        <pt x="330" y="662" on="0"/>
        <pt x="210" y="553" on="0"/>
        <pt x="152" y="384" on="0"/>
        <pt x="152" y="177" on="0"/>
        <pt x="245" y="43" on="0"/>
        <pt x="328" y="43" on="1"/>
        <pt x="380" y="43" on="0"/>
        <pt x="453" y="65" on="1"/>
        <pt x="473" y="111" on="0"/>
        <pt x="475" y="121" on="1"/>
        <pt x="484" y="168" on="1"/>
        <pt x="542" y="170" on="1"/>
        <pt x="526" y="19" on="1"/>
        <pt x="500" y="10" on="0"/>
        <pt x="465" y="4" on="0"/>
        <pt x="424" y="-6" on="0"/>
        <pt x="404" y="-8" on="0"/>
        <pt x="386" y="-10" on="1"/>
        <pt x="354" y="-15" on="0"/>
      </contour>
      <contour>
        <pt x="575" y="893" on="1"/>
        <pt x="592" y="854" on="1"/>
        <pt x="408" y="747" on="1"/>
        <pt x="255" y="854" on="1"/>
        <pt x="282" y="893" on="1"/>
        <pt x="362" y="852" on="1"/>
        <pt x="420" y="827" on="1"/>
        <pt x="464" y="845" on="0"/>
        <pt x="485" y="852" on="1"/>
      </contour>
    </TTGlyph>
    <TTGlyph name="Ccedilla" xMin="49" yMin="-235" xMax="614" yMax="720">
      <contour>
        <pt x="355" y="-60" on="0"/>
        <pt x="403" y="-100" on="0"/>
        <pt x="403" y="-179" on="0"/>
        <pt x="334" y="-235" on="0"/>
        <pt x="241" y="-235" on="0"/>
        <pt x="207" y="-217" on="1"/>
        <pt x="224" y="-182" on="1"/>
        <pt x="259" y="-193" on="0"/>
        <pt x="306" y="-193" on="0"/>
        <pt x="339" y="-164" on="0"/>
        <pt x="339" y="-139" on="1"/>
        <pt x="339" y="-103" on="0"/>
        <pt x="300" y="-103" on="1"/>
        <pt x="279" y="-104" on="1"/>
        <pt x="269" y="-94" on="1"/>
        <pt x="287" y="-13" on="1"/>
        <pt x="173" y="-3" on="0"/>
        <pt x="49" y="155" on="0"/>
        <pt x="49" y="281" on="1"/>
        <pt x="49" y="474" on="0"/>
        <pt x="244" y="720" on="0"/>
        <pt x="418" y="720" on="1"/>
        <pt x="494" y="720" on="0"/>
        <pt x="592" y="692" on="1"/>
        <pt x="610" y="687" on="0"/>
        <pt x="614" y="686" on="1"/>
        <pt x="583" y="538" on="1"/>
        <pt x="525" y="542" on="1"/>
        <pt x="532" y="589" on="1"/>
        <pt x="532" y="591" on="0"/>
        <pt x="532" y="608" on="0"/>
        <pt x="528" y="639" on="1"/>
        <pt x="464" y="662" on="0"/>
        <pt x="410" y="662" on="1"/>
        <pt x="330" y="662" on="0"/>
        <pt x="210" y="553" on="0"/>
        <pt x="152" y="384" on="0"/>
        <pt x="152" y="177" on="0"/>
        <pt x="245" y="43" on="0"/>
        <pt x="328" y="43" on="1"/>
        <pt x="380" y="43" on="0"/>
        <pt x="453" y="65" on="1"/>
        <pt x="473" y="111" on="0"/>
        <pt x="475" y="121" on="1"/>
        <pt x="484" y="168" on="1"/>
        <pt x="542" y="170" on="1"/>
        <pt x="526" y="19" on="1"/>
        <pt x="404" y="-13" on="0"/>
        <pt x="331" y="-15" on="1"/>
        <pt x="316" y="-59" on="1"/>
      </contour>
    </TTGlyph>
    <TTGlyph name="Ccircumflex" xMin="49" yMin="-15" xMax="614" yMax="893">
      <contour>
        <pt x="321" y="-15" on="1"/>
        <pt x="192" y="-15" on="0"/>
        <pt x="49" y="146" on="0"/>
        <pt x="49" y="281" on="1"/>
        <pt x="49" y="474" on="0"/>
        <pt x="244" y="720" on="0"/>
        <pt x="418" y="720" on="1"/>
        <pt x="494" y="720" on="0"/>
        <pt x="592" y="692" on="1"/>
        <pt x="610" y="687" on="0"/>
        <pt x="614" y="686" on="1"/>
        <pt x="583" y="538" on="1"/>
        <pt x="525" y="542" on="1"/>
        <pt x="532" y="589" on="1"/>
        <pt x="532" y="591" on="0"/>
        <pt x="532" y="608" on="0"/>
        <pt x="528" y="639" on="1"/>
        <pt x="464" y="662" on="0"/>
        <pt x="410" y="662" on="1"/>
        <pt x="330" y="662" on="0"/>
        <pt x="210" y="553" on="0"/>
        <pt x="152" y="384" on="0"/>
        <pt x="152" y="177" on="0"/>
        <pt x="245" y="43" on="0"/>
        <pt x="328" y="43" on="1"/>
        <pt x="380" y="43" on="0"/>
        <pt x="453" y="65" on="1"/>
        <pt x="473" y="111" on="0"/>
        <pt x="475" y="121" on="1"/>
        <pt x="484" y="168" on="1"/>
        <pt x="542" y="170" on="1"/>
        <pt x="526" y="19" on="1"/>
        <pt x="500" y="10" on="0"/>
        <pt x="465" y="4" on="0"/>
        <pt x="424" y="-6" on="0"/>
        <pt x="404" y="-8" on="0"/>
        <pt x="386" y="-10" on="1"/>
        <pt x="354" y="-15" on="0"/>
      </contour>
      <contour>
        <pt x="429" y="893" on="1"/>
        <pt x="582" y="786" on="1"/>
        <pt x="554" y="747" on="1"/>
        <pt x="475" y="788" on="1"/>
        <pt x="418" y="813" on="1"/>
        <pt x="409" y="810" on="0"/>
        <pt x="379" y="798" on="0"/>
        <pt x="357" y="790" on="0"/>
        <pt x="352" y="788" on="1"/>
        <pt x="261" y="747" on="1"/>
        <pt x="245" y="786" on="1"/>
      </contour>
    </TTGlyph>
    <TTGlyph name="Cdotaccent" xMin="49" yMin="-15" xMax="614" yMax="890">
      <contour>
        <pt x="321" y="-15" on="1"/>
        <pt x="192" y="-15" on="0"/>
        <pt x="49" y="146" on="0"/>
        <pt x="49" y="281" on="1"/>
        <pt x="49" y="474" on="0"/>
        <pt x="244" y="720" on="0"/>
        <pt x="418" y="720" on="1"/>
        <pt x="494" y="720" on="0"/>
        <pt x="592" y="692" on="1"/>
        <pt x="610" y="687" on="0"/>
        <pt x="614" y="686" on="1"/>
        <pt x="583" y="538" on="1"/>
        <pt x="525" y="542" on="1"/>
        <pt x="532" y="589" on="1"/>
        <pt x="532" y="591" on="0"/>
        <pt x="532" y="608" on="0"/>
        <pt x="528" y="639" on="1"/>
        <pt x="464" y="662" on="0"/>
        <pt x="410" y="662" on="1"/>
        <pt x="330" y="662" on="0"/>
        <pt x="210" y="553" on="0"/>
        <pt x="152" y="384" on="0"/>
        <pt x="152" y="177" on="0"/>
        <pt x="245" y="43" on="0"/>
        <pt x="328" y="43" on="1"/>
        <pt x="380" y="43" on="0"/>
        <pt x="453" y="65" on="1"/>
        <pt x="473" y="111" on="0"/>
        <pt x="475" y="121" on="1"/>
        <pt x="484" y="168" on="1"/>
        <pt x="542" y="170" on="1"/>
        <pt x="526" y="19" on="1"/>
        <pt x="500" y="10" on="0"/>
        <pt x="465" y="4" on="0"/>
        <pt x="424" y="-6" on="0"/>
        <pt x="404" y="-8" on="0"/>
        <pt x="386" y="-10" on="1"/>
        <pt x="354" y="-15" on="0"/>
      </contour>
      <contour>
        <pt x="367" y="847" on="0"/>
        <pt x="404" y="890" on="0"/>
        <pt x="431" y="890" on="1"/>
        <pt x="484" y="890" on="0"/>
        <pt x="484" y="837" on="1"/>
        <pt x="484" y="804" on="0"/>
        <pt x="446" y="761" on="0"/>
        <pt x="419" y="761" on="1"/>
        <pt x="367" y="761" on="0"/>
        <pt x="367" y="814" on="1"/>
      </contour>
    </TTGlyph>
    <TTGlyph name="D" xMin="9" yMin="-6" xMax="681" yMax="715">
      <contour>
        <pt x="298" y="-6" on="1"/>
        <pt x="123" y="0" on="1"/>
        <pt x="9" y="-5" on="1"/>
        <pt x="11" y="45" on="1"/>
        <pt x="90" y="61" on="1"/>
        <pt x="105" y="111" on="0"/>
        <pt x="110" y="137" on="1"/>
        <pt x="173" y="568" on="1"/>
        <pt x="175" y="585" on="0"/>
        <pt x="175" y="644" on="1"/>
        <pt x="102" y="656" on="1"/>
        <pt x="115" y="710" on="1"/>
        <pt x="176" y="707" on="0"/>
        <pt x="210" y="705" on="1"/>
        <pt x="235" y="706" on="0"/>
        <pt x="348" y="715" on="0"/>
        <pt x="383" y="715" on="1"/>
        <pt x="524" y="715" on="0"/>
        <pt x="681" y="556" on="0"/>
        <pt x="681" y="418" on="1"/>
        <pt x="681" y="229" on="0"/>
        <pt x="474" y="-6" on="0"/>
      </contour>
      <contour>
        <pt x="385" y="655" on="1"/>
        <pt x="324" y="655" on="0"/>
        <pt x="282" y="650" on="1"/>
        <pt x="268" y="595" on="0"/>
        <pt x="259" y="538" on="1"/>
        <pt x="205" y="167" on="1"/>
        <pt x="195" y="97" on="0"/>
        <pt x="195" y="61" on="0"/>
        <pt x="196" y="57" on="1"/>
        <pt x="244" y="53" on="0"/>
        <pt x="307" y="53" on="1"/>
        <pt x="398" y="53" on="0"/>
        <pt x="462" y="104" on="1"/>
        <pt x="582" y="202" on="0"/>
        <pt x="582" y="412" on="1"/>
        <pt x="582" y="520" on="0"/>
        <pt x="483" y="655" on="0"/>
      </contour>
    </TTGlyph>
    <TTGlyph name="Dcaron" xMin="9" yMin="-6" xMax="681" yMax="893">
      <contour>
        <pt x="298" y="-6" on="1"/>
        <pt x="123" y="0" on="1"/>
        <pt x="9" y="-5" on="1"/>
        <pt x="11" y="45" on="1"/>
        <pt x="90" y="61" on="1"/>
        <pt x="105" y="111" on="0"/>
        <pt x="110" y="137" on="1"/>
        <pt x="173" y="568" on="1"/>
        <pt x="175" y="585" on="0"/>
        <pt x="175" y="644" on="1"/>
        <pt x="102" y="656" on="1"/>
        <pt x="115" y="710" on="1"/>
        <pt x="176" y="707" on="0"/>
        <pt x="210" y="705" on="1"/>
        <pt x="235" y="706" on="0"/>
        <pt x="348" y="715" on="0"/>
        <pt x="383" y="715" on="1"/>
        <pt x="524" y="715" on="0"/>
        <pt x="681" y="556" on="0"/>
        <pt x="681" y="418" on="1"/>
        <pt x="681" y="229" on="0"/>
        <pt x="474" y="-6" on="0"/>
      </contour>
      <contour>
        <pt x="385" y="655" on="1"/>
        <pt x="324" y="655" on="0"/>
        <pt x="282" y="650" on="1"/>
        <pt x="268" y="595" on="0"/>
        <pt x="259" y="538" on="1"/>
        <pt x="205" y="167" on="1"/>
        <pt x="195" y="97" on="0"/>
        <pt x="195" y="61" on="0"/>
        <pt x="196" y="57" on="1"/>
        <pt x="244" y="53" on="0"/>
        <pt x="307" y="53" on="1"/>
        <pt x="398" y="53" on="0"/>
        <pt x="462" y="104" on="1"/>
        <pt x="582" y="202" on="0"/>
        <pt x="582" y="412" on="1"/>
        <pt x="582" y="520" on="0"/>
        <pt x="483" y="655" on="0"/>
      </contour>
      <contour>
        <pt x="550" y="893" on="1"/>
        <pt x="567" y="854" on="1"/>
        <pt x="383" y="747" on="1"/>
        <pt x="230" y="854" on="1"/>
        <pt x="257" y="893" on="1"/>
        <pt x="337" y="852" on="1"/>
        <pt x="395" y="827" on="1"/>
        <pt x="439" y="845" on="0"/>
        <pt x="460" y="852" on="1"/>
      </contour>
    </TTGlyph>
    <TTGlyph name="Dcroat" xMin="10" yMin="-6" xMax="681" yMax="715">
      <contour>
        <pt x="288" y="-6" on="1"/>
        <pt x="125" y="0" on="1"/>
        <pt x="10" y="-5" on="1"/>
        <pt x="13" y="45" on="1"/>
        <pt x="91" y="61" on="1"/>
        <pt x="109" y="119" on="0"/>
        <pt x="111" y="137" on="1"/>
        <pt x="140" y="337" on="1"/>
        <pt x="55" y="337" on="1"/>
        <pt x="61" y="380" on="1"/>
        <pt x="146" y="380" on="1"/>
        <pt x="174" y="568" on="1"/>
        <pt x="176" y="585" on="0"/>
        <pt x="176" y="644" on="1"/>
        <pt x="104" y="656" on="1"/>
        <pt x="117" y="710" on="1"/>
        <pt x="178" y="707" on="0"/>
        <pt x="211" y="705" on="1"/>
        <pt x="236" y="706" on="0"/>
        <pt x="357" y="715" on="0"/>
        <pt x="393" y="715" on="1"/>
        <pt x="533" y="715" on="0"/>
        <pt x="681" y="557" on="0"/>
        <pt x="681" y="417" on="1"/>
        <pt x="681" y="230" on="0"/>
        <pt x="464" y="-6" on="0"/>
      </contour>
      <contour>
        <pt x="298" y="53" on="1"/>
        <pt x="433" y="53" on="0"/>
        <pt x="585" y="262" on="0"/>
        <pt x="585" y="411" on="1"/>
        <pt x="585" y="519" on="0"/>
        <pt x="485" y="655" on="0"/>
        <pt x="386" y="655" on="1"/>
        <pt x="321" y="655" on="0"/>
        <pt x="281" y="650" on="1"/>
        <pt x="264" y="586" on="0"/>
        <pt x="257" y="538" on="1"/>
        <pt x="234" y="380" on="1"/>
        <pt x="373" y="380" on="1"/>
        <pt x="362" y="337" on="1"/>
        <pt x="228" y="337" on="1"/>
        <pt x="203" y="167" on="1"/>
        <pt x="194" y="105" on="0"/>
        <pt x="194" y="57" on="1"/>
        <pt x="244" y="53" on="0"/>
      </contour>
    </TTGlyph>
    <TTGlyph name="Delta" xMin="23" yMin="-15" xMax="653" yMax="716">
      <contour>
        <pt x="614" y="-15" on="1"/>
        <pt x="46" y="-15" on="1"/>
        <pt x="23" y="50" on="1"/>
        <pt x="92" y="138" on="0"/>
        <pt x="105" y="166" on="1"/>
        <pt x="396" y="703" on="1"/>
        <pt x="452" y="716" on="1"/>
        <pt x="613" y="158" on="0"/>
        <pt x="619" y="136" on="1"/>
        <pt x="653" y="53" on="1"/>
      </contour>
      <contour>
        <pt x="115" y="46" on="1"/>
        <pt x="195" y="44" on="0"/>
        <pt x="301" y="44" on="0"/>
        <pt x="535" y="50" on="1"/>
        <pt x="529" y="106" on="0"/>
        <pt x="522" y="134" on="1"/>
        <pt x="394" y="585" on="1"/>
        <pt x="144" y="118" on="1"/>
      </contour>
    </TTGlyph>
    <TTGlyph name="E" xMin="9" yMin="-5" xMax="573" yMax="715">
      <contour>
        <pt x="226" y="705" on="1"/>
        <pt x="445" y="705" on="1"/>
        <pt x="557" y="715" on="1"/>
        <pt x="573" y="697" on="1"/>
        <pt x="560" y="561" on="1"/>
        <pt x="503" y="556" on="1"/>
        <pt x="503" y="588" on="0"/>
        <pt x="500" y="621" on="0"/>
        <pt x="486" y="644" on="1"/>
        <pt x="434" y="649" on="0"/>
        <pt x="408" y="649" on="1"/>
        <pt x="282" y="649" on="1"/>
        <pt x="265" y="579" on="0"/>
        <pt x="259" y="538" on="1"/>
        <pt x="238" y="396" on="1"/>
        <pt x="270" y="394" on="0"/>
        <pt x="279" y="394" on="1"/>
        <pt x="349" y="394" on="1"/>
        <pt x="408" y="403" on="1"/>
        <pt x="426" y="469" on="1"/>
        <pt x="471" y="464" on="1"/>
        <pt x="461" y="400" on="0"/>
        <pt x="458" y="380" on="1"/>
        <pt x="445" y="271" on="1"/>
        <pt x="397" y="265" on="1"/>
        <pt x="398" y="332" on="1"/>
        <pt x="341" y="338" on="0"/>
        <pt x="322" y="338" on="1"/>
        <pt x="271" y="338" on="1"/>
        <pt x="254" y="338" on="0"/>
        <pt x="229" y="335" on="1"/>
        <pt x="205" y="167" on="1"/>
        <pt x="196" y="107" on="0"/>
        <pt x="196" y="57" on="1"/>
        <pt x="334" y="57" on="1"/>
        <pt x="370" y="57" on="0"/>
        <pt x="420" y="66" on="1"/>
        <pt x="442" y="94" on="0"/>
        <pt x="445" y="103" on="1"/>
        <pt x="464" y="149" on="0"/>
        <pt x="470" y="170" on="1"/>
        <pt x="523" y="165" on="1"/>
        <pt x="486" y="14" on="1"/>
        <pt x="465" y="-4" on="1"/>
        <pt x="375" y="0" on="0"/>
        <pt x="355" y="0" on="1"/>
        <pt x="123" y="0" on="1"/>
        <pt x="9" y="-5" on="1"/>
        <pt x="11" y="45" on="1"/>
        <pt x="90" y="61" on="1"/>
        <pt x="105" y="111" on="0"/>
        <pt x="110" y="137" on="1"/>
        <pt x="173" y="568" on="1"/>
        <pt x="175" y="585" on="0"/>
        <pt x="175" y="644" on="1"/>
        <pt x="102" y="656" on="1"/>
        <pt x="115" y="710" on="1"/>
        <pt x="206" y="705" on="0"/>
      </contour>
    </TTGlyph>
    <TTGlyph name="Eacute" xMin="9" yMin="-5" xMax="573" yMax="898">
      <contour>
        <pt x="226" y="705" on="1"/>
        <pt x="445" y="705" on="1"/>
        <pt x="557" y="715" on="1"/>
        <pt x="573" y="697" on="1"/>
        <pt x="560" y="561" on="1"/>
        <pt x="503" y="556" on="1"/>
        <pt x="503" y="588" on="0"/>
        <pt x="500" y="621" on="0"/>
        <pt x="486" y="644" on="1"/>
        <pt x="434" y="649" on="0"/>
        <pt x="408" y="649" on="1"/>
        <pt x="282" y="649" on="1"/>
        <pt x="265" y="579" on="0"/>
        <pt x="259" y="538" on="1"/>
        <pt x="238" y="396" on="1"/>
        <pt x="270" y="394" on="0"/>
        <pt x="279" y="394" on="1"/>
        <pt x="349" y="394" on="1"/>
        <pt x="408" y="403" on="1"/>
        <pt x="426" y="469" on="1"/>
        <pt x="471" y="464" on="1"/>
        <pt x="461" y="400" on="0"/>
        <pt x="458" y="380" on="1"/>
        <pt x="445" y="271" on="1"/>
        <pt x="397" y="265" on="1"/>
        <pt x="398" y="332" on="1"/>
        <pt x="341" y="338" on="0"/>
        <pt x="322" y="338" on="1"/>
        <pt x="271" y="338" on="1"/>
        <pt x="254" y="338" on="0"/>
        <pt x="229" y="335" on="1"/>
        <pt x="205" y="167" on="1"/>
        <pt x="196" y="107" on="0"/>
        <pt x="196" y="57" on="1"/>
        <pt x="334" y="57" on="1"/>
        <pt x="370" y="57" on="0"/>
        <pt x="420" y="66" on="1"/>
        <pt x="442" y="94" on="0"/>
        <pt x="445" y="103" on="1"/>
        <pt x="464" y="149" on="0"/>
        <pt x="470" y="170" on="1"/>
        <pt x="523" y="165" on="1"/>
        <pt x="486" y="14" on="1"/>
        <pt x="465" y="-4" on="1"/>
        <pt x="375" y="0" on="0"/>
        <pt x="355" y="0" on="1"/>
        <pt x="123" y="0" on="1"/>
        <pt x="9" y="-5" on="1"/>
        <pt x="11" y="45" on="1"/>
        <pt x="90" y="61" on="1"/>
        <pt x="105" y="111" on="0"/>
        <pt x="110" y="137" on="1"/>
        <pt x="173" y="568" on="1"/>
        <pt x="175" y="585" on="0"/>
        <pt x="175" y="644" on="1"/>
        <pt x="102" y="656" on="1"/>
        <pt x="115" y="710" on="1"/>
        <pt x="206" y="705" on="0"/>
      </contour>
      <contour>
        <pt x="481" y="898" on="1"/>
        <pt x="510" y="825" on="1"/>
        <pt x="382" y="793" on="0"/>
        <pt x="363" y="787" on="1"/>
        <pt x="278" y="750" on="1"/>
        <pt x="258" y="798" on="1"/>
      </contour>
    </TTGlyph>
    <TTGlyph name="Ebreve" xMin="9" yMin="-5" xMax="573" yMax="898">
      <contour>
        <pt x="226" y="705" on="1"/>
        <pt x="445" y="705" on="1"/>
        <pt x="557" y="715" on="1"/>
        <pt x="573" y="697" on="1"/>
        <pt x="560" y="561" on="1"/>
        <pt x="503" y="556" on="1"/>
        <pt x="503" y="588" on="0"/>
        <pt x="500" y="621" on="0"/>
        <pt x="486" y="644" on="1"/>
        <pt x="434" y="649" on="0"/>
        <pt x="408" y="649" on="1"/>
        <pt x="282" y="649" on="1"/>
        <pt x="265" y="579" on="0"/>
        <pt x="259" y="538" on="1"/>
        <pt x="238" y="396" on="1"/>
        <pt x="270" y="394" on="0"/>
        <pt x="279" y="394" on="1"/>
        <pt x="349" y="394" on="1"/>
        <pt x="408" y="403" on="1"/>
        <pt x="426" y="469" on="1"/>
        <pt x="471" y="464" on="1"/>
        <pt x="461" y="400" on="0"/>
        <pt x="458" y="380" on="1"/>
        <pt x="445" y="271" on="1"/>
        <pt x="397" y="265" on="1"/>
        <pt x="398" y="332" on="1"/>
        <pt x="341" y="338" on="0"/>
        <pt x="322" y="338" on="1"/>
        <pt x="271" y="338" on="1"/>
        <pt x="254" y="338" on="0"/>
        <pt x="229" y="335" on="1"/>
        <pt x="205" y="167" on="1"/>
        <pt x="196" y="107" on="0"/>
        <pt x="196" y="57" on="1"/>
        <pt x="334" y="57" on="1"/>
        <pt x="370" y="57" on="0"/>
        <pt x="420" y="66" on="1"/>
        <pt x="442" y="94" on="0"/>
        <pt x="445" y="103" on="1"/>
        <pt x="464" y="149" on="0"/>
        <pt x="470" y="170" on="1"/>
        <pt x="523" y="165" on="1"/>
        <pt x="486" y="14" on="1"/>
        <pt x="465" y="-4" on="1"/>
        <pt x="375" y="0" on="0"/>
        <pt x="355" y="0" on="1"/>
        <pt x="123" y="0" on="1"/>
        <pt x="9" y="-5" on="1"/>
        <pt x="11" y="45" on="1"/>
        <pt x="90" y="61" on="1"/>
        <pt x="105" y="111" on="0"/>
        <pt x="110" y="137" on="1"/>
        <pt x="173" y="568" on="1"/>
        <pt x="175" y="585" on="0"/>
        <pt x="175" y="644" on="1"/>
        <pt x="102" y="656" on="1"/>
        <pt x="115" y="710" on="1"/>
        <pt x="206" y="705" on="0"/>
      </contour>
      <contour>
        <pt x="504" y="830" on="0"/>
        <pt x="425" y="758" on="0"/>
        <pt x="294" y="758" on="0"/>
        <pt x="264" y="794" on="1"/>
        <pt x="242" y="821" on="0"/>
        <pt x="242" y="866" on="1"/>
        <pt x="242" y="881" on="0"/>
        <pt x="245" y="898" on="1"/>
        <pt x="299" y="898" on="1"/>
        <pt x="298" y="890" on="0"/>
        <pt x="298" y="883" on="1"/>
        <pt x="298" y="855" on="0"/>
        <pt x="331" y="814" on="0"/>
        <pt x="404" y="814" on="0"/>
        <pt x="455" y="860" on="0"/>
        <pt x="460" y="898" on="1"/>
        <pt x="514" y="898" on="1"/>
      </contour>
    </TTGlyph>
    <TTGlyph name="Ecaron" xMin="9" yMin="-5" xMax="573" yMax="893">
      <contour>
        <pt x="226" y="705" on="1"/>
        <pt x="445" y="705" on="1"/>
        <pt x="557" y="715" on="1"/>
        <pt x="573" y="697" on="1"/>
        <pt x="560" y="561" on="1"/>
        <pt x="503" y="556" on="1"/>
        <pt x="503" y="588" on="0"/>
        <pt x="500" y="621" on="0"/>
        <pt x="486" y="644" on="1"/>
        <pt x="434" y="649" on="0"/>
        <pt x="408" y="649" on="1"/>
        <pt x="282" y="649" on="1"/>
        <pt x="265" y="579" on="0"/>
        <pt x="259" y="538" on="1"/>
        <pt x="238" y="396" on="1"/>
        <pt x="270" y="394" on="0"/>
        <pt x="279" y="394" on="1"/>
        <pt x="349" y="394" on="1"/>
        <pt x="408" y="403" on="1"/>
        <pt x="426" y="469" on="1"/>
        <pt x="471" y="464" on="1"/>
        <pt x="461" y="400" on="0"/>
        <pt x="458" y="380" on="1"/>
        <pt x="445" y="271" on="1"/>
        <pt x="397" y="265" on="1"/>
        <pt x="398" y="332" on="1"/>
        <pt x="341" y="338" on="0"/>
        <pt x="322" y="338" on="1"/>
        <pt x="271" y="338" on="1"/>
        <pt x="254" y="338" on="0"/>
        <pt x="229" y="335" on="1"/>
        <pt x="205" y="167" on="1"/>
        <pt x="196" y="107" on="0"/>
        <pt x="196" y="57" on="1"/>
        <pt x="334" y="57" on="1"/>
        <pt x="370" y="57" on="0"/>
        <pt x="420" y="66" on="1"/>
        <pt x="442" y="94" on="0"/>
        <pt x="445" y="103" on="1"/>
        <pt x="464" y="149" on="0"/>
        <pt x="470" y="170" on="1"/>
        <pt x="523" y="165" on="1"/>
        <pt x="486" y="14" on="1"/>
        <pt x="465" y="-4" on="1"/>
        <pt x="375" y="0" on="0"/>
        <pt x="355" y="0" on="1"/>
        <pt x="123" y="0" on="1"/>
        <pt x="9" y="-5" on="1"/>
        <pt x="11" y="45" on="1"/>
        <pt x="90" y="61" on="1"/>
        <pt x="105" y="111" on="0"/>
        <pt x="110" y="137" on="1"/>
        <pt x="173" y="568" on="1"/>
        <pt x="175" y="585" on="0"/>
        <pt x="175" y="644" on="1"/>
        <pt x="102" y="656" on="1"/>
        <pt x="115" y="710" on="1"/>
        <pt x="206" y="705" on="0"/>
      </contour>
      <contour>
        <pt x="525" y="893" on="1"/>
        <pt x="542" y="854" on="1"/>
        <pt x="358" y="747" on="1"/>
        <pt x="205" y="854" on="1"/>
        <pt x="232" y="893" on="1"/>
        <pt x="312" y="852" on="1"/>
        <pt x="370" y="827" on="1"/>
        <pt x="414" y="845" on="0"/>
        <pt x="435" y="852" on="1"/>
      </contour>
    </TTGlyph>
    <TTGlyph name="Ecircumflex" xMin="9" yMin="-5" xMax="573" yMax="893">
      <contour>
        <pt x="226" y="705" on="1"/>
        <pt x="445" y="705" on="1"/>
        <pt x="557" y="715" on="1"/>
        <pt x="573" y="697" on="1"/>
        <pt x="560" y="561" on="1"/>
        <pt x="503" y="556" on="1"/>
        <pt x="503" y="588" on="0"/>
        <pt x="500" y="621" on="0"/>
        <pt x="486" y="644" on="1"/>
        <pt x="434" y="649" on="0"/>
        <pt x="408" y="649" on="1"/>
        <pt x="282" y="649" on="1"/>
        <pt x="265" y="579" on="0"/>
        <pt x="259" y="538" on="1"/>
        <pt x="238" y="396" on="1"/>
        <pt x="270" y="394" on="0"/>
        <pt x="279" y="394" on="1"/>
        <pt x="349" y="394" on="1"/>
        <pt x="408" y="403" on="1"/>
        <pt x="426" y="469" on="1"/>
        <pt x="471" y="464" on="1"/>
        <pt x="461" y="400" on="0"/>
        <pt x="458" y="380" on="1"/>
        <pt x="445" y="271" on="1"/>
        <pt x="397" y="265" on="1"/>
        <pt x="398" y="332" on="1"/>
        <pt x="341" y="338" on="0"/>
        <pt x="322" y="338" on="1"/>
        <pt x="271" y="338" on="1"/>
        <pt x="254" y="338" on="0"/>
        <pt x="229" y="335" on="1"/>
        <pt x="205" y="167" on="1"/>
        <pt x="196" y="107" on="0"/>
        <pt x="196" y="57" on="1"/>
        <pt x="334" y="57" on="1"/>
        <pt x="370" y="57" on="0"/>
        <pt x="420" y="66" on="1"/>
        <pt x="442" y="94" on="0"/>
        <pt x="445" y="103" on="1"/>
        <pt x="464" y="149" on="0"/>
        <pt x="470" y="170" on="1"/>
        <pt x="523" y="165" on="1"/>
        <pt x="486" y="14" on="1"/>
        <pt x="465" y="-4" on="1"/>
        <pt x="375" y="0" on="0"/>
        <pt x="355" y="0" on="1"/>
        <pt x="123" y="0" on="1"/>
        <pt x="9" y="-5" on="1"/>
        <pt x="11" y="45" on="1"/>
        <pt x="90" y="61" on="1"/>
        <pt x="105" y="111" on="0"/>
        <pt x="110" y="137" on="1"/>
        <pt x="173" y="568" on="1"/>
        <pt x="175" y="585" on="0"/>
        <pt x="175" y="644" on="1"/>
        <pt x="102" y="656" on="1"/>
        <pt x="115" y="710" on="1"/>
        <pt x="206" y="705" on="0"/>
      </contour>
      <contour>
        <pt x="379" y="893" on="1"/>
        <pt x="532" y="786" on="1"/>
        <pt x="504" y="747" on="1"/>
        <pt x="425" y="788" on="1"/>
        <pt x="368" y="813" on="1"/>
        <pt x="359" y="810" on="0"/>
        <pt x="329" y="798" on="0"/>
        <pt x="307" y="790" on="0"/>
        <pt x="302" y="788" on="1"/>
        <pt x="211" y="747" on="1"/>
        <pt x="195" y="786" on="1"/>
      </contour>
    </TTGlyph>
    <TTGlyph name="Edieresis" xMin="9" yMin="-5" xMax="573" yMax="884">
      <contour>
        <pt x="226" y="705" on="1"/>
        <pt x="445" y="705" on="1"/>
        <pt x="557" y="715" on="1"/>
        <pt x="573" y="697" on="1"/>
        <pt x="560" y="561" on="1"/>
        <pt x="503" y="556" on="1"/>
        <pt x="503" y="588" on="0"/>
        <pt x="500" y="621" on="0"/>
        <pt x="486" y="644" on="1"/>
        <pt x="434" y="649" on="0"/>
        <pt x="408" y="649" on="1"/>
        <pt x="282" y="649" on="1"/>
        <pt x="265" y="579" on="0"/>
        <pt x="259" y="538" on="1"/>
        <pt x="238" y="396" on="1"/>
        <pt x="270" y="394" on="0"/>
        <pt x="279" y="394" on="1"/>
        <pt x="349" y="394" on="1"/>
        <pt x="408" y="403" on="1"/>
        <pt x="426" y="469" on="1"/>
        <pt x="471" y="464" on="1"/>
        <pt x="461" y="400" on="0"/>
        <pt x="458" y="380" on="1"/>
        <pt x="445" y="271" on="1"/>
        <pt x="397" y="265" on="1"/>
        <pt x="398" y="332" on="1"/>
        <pt x="341" y="338" on="0"/>
        <pt x="322" y="338" on="1"/>
        <pt x="271" y="338" on="1"/>
        <pt x="254" y="338" on="0"/>
        <pt x="229" y="335" on="1"/>
        <pt x="205" y="167" on="1"/>
        <pt x="196" y="107" on="0"/>
        <pt x="196" y="57" on="1"/>
        <pt x="334" y="57" on="1"/>
        <pt x="370" y="57" on="0"/>
        <pt x="420" y="66" on="1"/>
        <pt x="442" y="94" on="0"/>
        <pt x="445" y="103" on="1"/>
        <pt x="464" y="149" on="0"/>
        <pt x="470" y="170" on="1"/>
        <pt x="523" y="165" on="1"/>
        <pt x="486" y="14" on="1"/>
        <pt x="465" y="-4" on="1"/>
        <pt x="375" y="0" on="0"/>
        <pt x="355" y="0" on="1"/>
        <pt x="123" y="0" on="1"/>
        <pt x="9" y="-5" on="1"/>
        <pt x="11" y="45" on="1"/>
        <pt x="90" y="61" on="1"/>
        <pt x="105" y="111" on="0"/>
        <pt x="110" y="137" on="1"/>
        <pt x="173" y="568" on="1"/>
        <pt x="175" y="585" on="0"/>
        <pt x="175" y="644" on="1"/>
        <pt x="102" y="656" on="1"/>
        <pt x="115" y="710" on="1"/>
        <pt x="206" y="705" on="0"/>
      </contour>
      <contour>
        <pt x="492" y="884" on="1"/>
        <pt x="537" y="884" on="0"/>
        <pt x="537" y="836" on="1"/>
        <pt x="537" y="804" on="0"/>
        <pt x="505" y="765" on="0"/>
        <pt x="475" y="765" on="1"/>
        <pt x="430" y="765" on="0"/>
        <pt x="430" y="812" on="1"/>
        <pt x="430" y="844" on="0"/>
        <pt x="462" y="884" on="0"/>
      </contour>
      <contour>
        <pt x="263" y="884" on="1"/>
        <pt x="309" y="884" on="0"/>
        <pt x="309" y="836" on="1"/>
        <pt x="309" y="804" on="0"/>
        <pt x="276" y="765" on="0"/>
        <pt x="246" y="765" on="1"/>
        <pt x="201" y="765" on="0"/>
        <pt x="201" y="812" on="1"/>
        <pt x="201" y="844" on="0"/>
        <pt x="233" y="884" on="0"/>
      </contour>
    </TTGlyph>
    <TTGlyph name="Edotaccent" xMin="9" yMin="-5" xMax="573" yMax="890">
      <contour>
        <pt x="226" y="705" on="1"/>
        <pt x="445" y="705" on="1"/>
        <pt x="557" y="715" on="1"/>
        <pt x="573" y="697" on="1"/>
        <pt x="560" y="561" on="1"/>
        <pt x="503" y="556" on="1"/>
        <pt x="503" y="588" on="0"/>
        <pt x="500" y="621" on="0"/>
        <pt x="486" y="644" on="1"/>
        <pt x="434" y="649" on="0"/>
        <pt x="408" y="649" on="1"/>
        <pt x="282" y="649" on="1"/>
        <pt x="265" y="579" on="0"/>
        <pt x="259" y="538" on="1"/>
        <pt x="238" y="396" on="1"/>
        <pt x="270" y="394" on="0"/>
        <pt x="279" y="394" on="1"/>
        <pt x="349" y="394" on="1"/>
        <pt x="408" y="403" on="1"/>
        <pt x="426" y="469" on="1"/>
        <pt x="471" y="464" on="1"/>
        <pt x="461" y="400" on="0"/>
        <pt x="458" y="380" on="1"/>
        <pt x="445" y="271" on="1"/>
        <pt x="397" y="265" on="1"/>
        <pt x="398" y="332" on="1"/>
        <pt x="341" y="338" on="0"/>
        <pt x="322" y="338" on="1"/>
        <pt x="271" y="338" on="1"/>
        <pt x="254" y="338" on="0"/>
        <pt x="229" y="335" on="1"/>
        <pt x="205" y="167" on="1"/>
        <pt x="196" y="107" on="0"/>
        <pt x="196" y="57" on="1"/>
        <pt x="334" y="57" on="1"/>
        <pt x="370" y="57" on="0"/>
        <pt x="420" y="66" on="1"/>
        <pt x="442" y="94" on="0"/>
        <pt x="445" y="103" on="1"/>
        <pt x="464" y="149" on="0"/>
        <pt x="470" y="170" on="1"/>
        <pt x="523" y="165" on="1"/>
        <pt x="486" y="14" on="1"/>
        <pt x="465" y="-4" on="1"/>
        <pt x="375" y="0" on="0"/>
        <pt x="355" y="0" on="1"/>
        <pt x="123" y="0" on="1"/>
        <pt x="9" y="-5" on="1"/>
        <pt x="11" y="45" on="1"/>
        <pt x="90" y="61" on="1"/>
        <pt x="105" y="111" on="0"/>
        <pt x="110" y="137" on="1"/>
        <pt x="173" y="568" on="1"/>
        <pt x="175" y="585" on="0"/>
        <pt x="175" y="644" on="1"/>
        <pt x="102" y="656" on="1"/>
        <pt x="115" y="710" on="1"/>
        <pt x="206" y="705" on="0"/>
      </contour>
      <contour>
        <pt x="317" y="847" on="0"/>
        <pt x="354" y="890" on="0"/>
        <pt x="381" y="890" on="1"/>
        <pt x="434" y="890" on="0"/>
        <pt x="434" y="837" on="1"/>
        <pt x="434" y="804" on="0"/>
        <pt x="396" y="761" on="0"/>
        <pt x="369" y="761" on="1"/>
        <pt x="317" y="761" on="0"/>
        <pt x="317" y="814" on="1"/>
      </contour>
    </TTGlyph>
    <TTGlyph name="Egrave" xMin="9" yMin="-5" xMax="573" yMax="898">
      <contour>
        <pt x="226" y="705" on="1"/>
        <pt x="445" y="705" on="1"/>
        <pt x="557" y="715" on="1"/>
        <pt x="573" y="697" on="1"/>
        <pt x="560" y="561" on="1"/>
        <pt x="503" y="556" on="1"/>
        <pt x="503" y="588" on="0"/>
        <pt x="500" y="621" on="0"/>
        <pt x="486" y="644" on="1"/>
        <pt x="434" y="649" on="0"/>
        <pt x="408" y="649" on="1"/>
        <pt x="282" y="649" on="1"/>
        <pt x="265" y="579" on="0"/>
        <pt x="259" y="538" on="1"/>
        <pt x="238" y="396" on="1"/>
        <pt x="270" y="394" on="0"/>
        <pt x="279" y="394" on="1"/>
        <pt x="349" y="394" on="1"/>
        <pt x="408" y="403" on="1"/>
        <pt x="426" y="469" on="1"/>
        <pt x="471" y="464" on="1"/>
        <pt x="461" y="400" on="0"/>
        <pt x="458" y="380" on="1"/>
        <pt x="445" y="271" on="1"/>
        <pt x="397" y="265" on="1"/>
        <pt x="398" y="332" on="1"/>
        <pt x="341" y="338" on="0"/>
        <pt x="322" y="338" on="1"/>
        <pt x="271" y="338" on="1"/>
        <pt x="254" y="338" on="0"/>
        <pt x="229" y="335" on="1"/>
        <pt x="205" y="167" on="1"/>
        <pt x="196" y="107" on="0"/>
        <pt x="196" y="57" on="1"/>
        <pt x="334" y="57" on="1"/>
        <pt x="370" y="57" on="0"/>
        <pt x="420" y="66" on="1"/>
        <pt x="442" y="94" on="0"/>
        <pt x="445" y="103" on="1"/>
        <pt x="464" y="149" on="0"/>
        <pt x="470" y="170" on="1"/>
        <pt x="523" y="165" on="1"/>
        <pt x="486" y="14" on="1"/>
        <pt x="465" y="-4" on="1"/>
        <pt x="375" y="0" on="0"/>
        <pt x="355" y="0" on="1"/>
        <pt x="123" y="0" on="1"/>
        <pt x="9" y="-5" on="1"/>
        <pt x="11" y="45" on="1"/>
        <pt x="90" y="61" on="1"/>
        <pt x="105" y="111" on="0"/>
        <pt x="110" y="137" on="1"/>
        <pt x="173" y="568" on="1"/>
        <pt x="175" y="585" on="0"/>
        <pt x="175" y="644" on="1"/>
        <pt x="102" y="656" on="1"/>
        <pt x="115" y="710" on="1"/>
        <pt x="206" y="705" on="0"/>
      </contour>
      <contour>
        <pt x="220" y="825" on="1"/>
        <pt x="250" y="898" on="1"/>
        <pt x="472" y="798" on="1"/>
        <pt x="452" y="750" on="1"/>
        <pt x="367" y="787" on="1"/>
      </contour>
    </TTGlyph>
    <TTGlyph name="Emacron" xMin="9" yMin="-5" xMax="573" yMax="834">
      <contour>
        <pt x="226" y="705" on="1"/>
        <pt x="445" y="705" on="1"/>
        <pt x="557" y="715" on="1"/>
        <pt x="573" y="697" on="1"/>
        <pt x="560" y="561" on="1"/>
        <pt x="503" y="556" on="1"/>
        <pt x="503" y="588" on="0"/>
        <pt x="500" y="621" on="0"/>
        <pt x="486" y="644" on="1"/>
        <pt x="434" y="649" on="0"/>
        <pt x="408" y="649" on="1"/>
        <pt x="282" y="649" on="1"/>
        <pt x="265" y="579" on="0"/>
        <pt x="259" y="538" on="1"/>
        <pt x="238" y="396" on="1"/>
        <pt x="270" y="394" on="0"/>
        <pt x="279" y="394" on="1"/>
        <pt x="349" y="394" on="1"/>
        <pt x="408" y="403" on="1"/>
        <pt x="426" y="469" on="1"/>
        <pt x="471" y="464" on="1"/>
        <pt x="461" y="400" on="0"/>
        <pt x="458" y="380" on="1"/>
        <pt x="445" y="271" on="1"/>
        <pt x="397" y="265" on="1"/>
        <pt x="398" y="332" on="1"/>
        <pt x="341" y="338" on="0"/>
        <pt x="322" y="338" on="1"/>
        <pt x="271" y="338" on="1"/>
        <pt x="254" y="338" on="0"/>
        <pt x="229" y="335" on="1"/>
        <pt x="205" y="167" on="1"/>
        <pt x="196" y="107" on="0"/>
        <pt x="196" y="57" on="1"/>
        <pt x="334" y="57" on="1"/>
        <pt x="370" y="57" on="0"/>
        <pt x="420" y="66" on="1"/>
        <pt x="442" y="94" on="0"/>
        <pt x="445" y="103" on="1"/>
        <pt x="464" y="149" on="0"/>
        <pt x="470" y="170" on="1"/>
        <pt x="523" y="165" on="1"/>
        <pt x="486" y="14" on="1"/>
        <pt x="465" y="-4" on="1"/>
        <pt x="375" y="0" on="0"/>
        <pt x="355" y="0" on="1"/>
        <pt x="123" y="0" on="1"/>
        <pt x="9" y="-5" on="1"/>
        <pt x="11" y="45" on="1"/>
        <pt x="90" y="61" on="1"/>
        <pt x="105" y="111" on="0"/>
        <pt x="110" y="137" on="1"/>
        <pt x="173" y="568" on="1"/>
        <pt x="175" y="585" on="0"/>
        <pt x="175" y="644" on="1"/>
        <pt x="102" y="656" on="1"/>
        <pt x="115" y="710" on="1"/>
        <pt x="206" y="705" on="0"/>
      </contour>
      <contour>
        <pt x="517" y="781" on="1"/>
        <pt x="209" y="781" on="1"/>
        <pt x="217" y="834" on="1"/>
        <pt x="530" y="834" on="1"/>
      </contour>
    </TTGlyph>
    <TTGlyph name="Eng" xMin="9" yMin="-200" xMax="787" yMax="710">
      <contour>
        <pt x="787" y="710" on="1"/>
        <pt x="784" y="657" on="1"/>
        <pt x="705" y="641" on="1"/>
        <pt x="680" y="572" on="0"/>
        <pt x="673" y="528" on="1"/>
        <pt x="594" y="-7" on="1"/>
        <pt x="590" y="-39" on="0"/>
        <pt x="458" y="-200" on="1"/>
        <pt x="428" y="-178" on="1"/>
        <pt x="514" y="-34" on="0"/>
        <pt x="531" y="4" on="1"/>
        <pt x="236" y="556" on="1"/>
        <pt x="179" y="167" on="1"/>
        <pt x="171" y="111" on="0"/>
        <pt x="171" y="61" on="1"/>
        <pt x="248" y="54" on="1"/>
        <pt x="233" y="-5" on="1"/>
        <pt x="192" y="0" on="0"/>
        <pt x="114" y="0" on="1"/>
        <pt x="9" y="-5" on="1"/>
        <pt x="12" y="45" on="1"/>
        <pt x="90" y="61" on="1"/>
        <pt x="108" y="119" on="0"/>
        <pt x="110" y="137" on="1"/>
        <pt x="173" y="568" on="1"/>
        <pt x="175" y="584" on="0"/>
        <pt x="175" y="644" on="1"/>
        <pt x="100" y="656" on="1"/>
        <pt x="113" y="710" on="1"/>
        <pt x="224" y="706" on="1"/>
        <pt x="267" y="706" on="1"/>
        <pt x="283" y="685" on="1"/>
        <pt x="344" y="552" on="0"/>
        <pt x="354" y="530" on="1"/>
        <pt x="555" y="163" on="1"/>
        <pt x="612" y="558" on="1"/>
        <pt x="617" y="585" on="0"/>
        <pt x="617" y="641" on="1"/>
        <pt x="540" y="647" on="1"/>
        <pt x="555" y="707" on="1"/>
        <pt x="634" y="705" on="1"/>
      </contour>
    </TTGlyph>
    <TTGlyph name="Eogonek" xMin="9" yMin="-197" xMax="573" yMax="715">
      <contour>
        <pt x="226" y="705" on="1"/>
        <pt x="445" y="705" on="1"/>
        <pt x="557" y="715" on="1"/>
        <pt x="573" y="697" on="1"/>
        <pt x="560" y="561" on="1"/>
        <pt x="503" y="556" on="1"/>
        <pt x="503" y="588" on="0"/>
        <pt x="500" y="621" on="0"/>
        <pt x="486" y="644" on="1"/>
        <pt x="434" y="649" on="0"/>
        <pt x="408" y="649" on="1"/>
        <pt x="282" y="649" on="1"/>
        <pt x="265" y="579" on="0"/>
        <pt x="259" y="538" on="1"/>
        <pt x="238" y="396" on="1"/>
        <pt x="270" y="394" on="0"/>
        <pt x="279" y="394" on="1"/>
        <pt x="349" y="394" on="1"/>
        <pt x="408" y="403" on="1"/>
        <pt x="426" y="469" on="1"/>
        <pt x="471" y="464" on="1"/>
        <pt x="461" y="400" on="0"/>
        <pt x="458" y="380" on="1"/>
        <pt x="445" y="271" on="1"/>
        <pt x="397" y="265" on="1"/>
        <pt x="398" y="332" on="1"/>
        <pt x="341" y="338" on="0"/>
        <pt x="322" y="338" on="1"/>
        <pt x="271" y="338" on="1"/>
        <pt x="254" y="338" on="0"/>
        <pt x="229" y="335" on="1"/>
        <pt x="205" y="167" on="1"/>
        <pt x="196" y="107" on="0"/>
        <pt x="196" y="57" on="1"/>
        <pt x="334" y="57" on="1"/>
        <pt x="370" y="57" on="0"/>
        <pt x="420" y="66" on="1"/>
        <pt x="442" y="94" on="0"/>
        <pt x="445" y="103" on="1"/>
        <pt x="464" y="149" on="0"/>
        <pt x="470" y="170" on="1"/>
        <pt x="523" y="165" on="1"/>
        <pt x="486" y="14" on="1"/>
        <pt x="470" y="0" on="1"/>
        <pt x="500" y="-4" on="1"/>
        <pt x="484" y="-4" on="1"/>
        <pt x="419" y="-4" on="0"/>
        <pt x="347" y="-73" on="0"/>
        <pt x="347" y="-110" on="1"/>
        <pt x="347" y="-130" on="0"/>
        <pt x="371" y="-155" on="0"/>
        <pt x="417" y="-155" on="0"/>
        <pt x="449" y="-142" on="1"/>
        <pt x="458" y="-175" on="1"/>
        <pt x="411" y="-197" on="0"/>
        <pt x="331" y="-197" on="0"/>
        <pt x="284" y="-159" on="0"/>
        <pt x="284" y="-87" on="0"/>
        <pt x="318" y="-39" on="0"/>
        <pt x="366" y="0" on="1"/>
        <pt x="123" y="0" on="1"/>
        <pt x="9" y="-5" on="1"/>
        <pt x="11" y="45" on="1"/>
        <pt x="90" y="61" on="1"/>
        <pt x="105" y="111" on="0"/>
        <pt x="110" y="137" on="1"/>
        <pt x="173" y="568" on="1"/>
        <pt x="175" y="585" on="0"/>
        <pt x="175" y="644" on="1"/>
        <pt x="102" y="656" on="1"/>
        <pt x="115" y="710" on="1"/>
        <pt x="206" y="705" on="0"/>
      </contour>
    </TTGlyph>
    <TTGlyph name="Eth" xMin="10" yMin="-6" xMax="681" yMax="715">
      <contour>
        <pt x="288" y="-6" on="1"/>
        <pt x="125" y="0" on="1"/>
        <pt x="10" y="-5" on="1"/>
        <pt x="13" y="45" on="1"/>
        <pt x="91" y="61" on="1"/>
        <pt x="109" y="119" on="0"/>
        <pt x="111" y="137" on="1"/>
        <pt x="140" y="337" on="1"/>
        <pt x="55" y="337" on="1"/>
        <pt x="61" y="380" on="1"/>
        <pt x="146" y="380" on="1"/>
        <pt x="174" y="568" on="1"/>
        <pt x="176" y="585" on="0"/>
        <pt x="176" y="644" on="1"/>
        <pt x="104" y="656" on="1"/>
        <pt x="117" y="710" on="1"/>
        <pt x="178" y="707" on="0"/>
        <pt x="211" y="705" on="1"/>
        <pt x="236" y="706" on="0"/>
        <pt x="357" y="715" on="0"/>
        <pt x="393" y="715" on="1"/>
        <pt x="533" y="715" on="0"/>
        <pt x="681" y="557" on="0"/>
        <pt x="681" y="417" on="1"/>
        <pt x="681" y="230" on="0"/>
        <pt x="464" y="-6" on="0"/>
      </contour>
      <contour>
        <pt x="298" y="53" on="1"/>
        <pt x="433" y="53" on="0"/>
        <pt x="585" y="262" on="0"/>
        <pt x="585" y="411" on="1"/>
        <pt x="585" y="519" on="0"/>
        <pt x="485" y="655" on="0"/>
        <pt x="386" y="655" on="1"/>
        <pt x="321" y="655" on="0"/>
        <pt x="281" y="650" on="1"/>
        <pt x="264" y="586" on="0"/>
        <pt x="257" y="538" on="1"/>
        <pt x="234" y="380" on="1"/>
        <pt x="373" y="380" on="1"/>
        <pt x="362" y="337" on="1"/>
        <pt x="228" y="337" on="1"/>
        <pt x="203" y="167" on="1"/>
        <pt x="194" y="105" on="0"/>
        <pt x="194" y="57" on="1"/>
        <pt x="244" y="53" on="0"/>
      </contour>
    </TTGlyph>
    <TTGlyph name="Etilde" xMin="9" yMin="-5" xMax="573" yMax="882">
      <contour>
        <pt x="226" y="705" on="1"/>
        <pt x="445" y="705" on="1"/>
        <pt x="557" y="715" on="1"/>
        <pt x="573" y="697" on="1"/>
        <pt x="560" y="561" on="1"/>
        <pt x="503" y="556" on="1"/>
        <pt x="503" y="588" on="0"/>
        <pt x="500" y="621" on="0"/>
        <pt x="486" y="644" on="1"/>
        <pt x="434" y="649" on="0"/>
        <pt x="408" y="649" on="1"/>
        <pt x="282" y="649" on="1"/>
        <pt x="265" y="579" on="0"/>
        <pt x="259" y="538" on="1"/>
        <pt x="238" y="396" on="1"/>
        <pt x="270" y="394" on="0"/>
        <pt x="279" y="394" on="1"/>
        <pt x="349" y="394" on="1"/>
        <pt x="408" y="403" on="1"/>
        <pt x="426" y="469" on="1"/>
        <pt x="471" y="464" on="1"/>
        <pt x="461" y="400" on="0"/>
        <pt x="458" y="380" on="1"/>
        <pt x="445" y="271" on="1"/>
        <pt x="397" y="265" on="1"/>
        <pt x="398" y="332" on="1"/>
        <pt x="341" y="338" on="0"/>
        <pt x="322" y="338" on="1"/>
        <pt x="271" y="338" on="1"/>
        <pt x="254" y="338" on="0"/>
        <pt x="229" y="335" on="1"/>
        <pt x="205" y="167" on="1"/>
        <pt x="196" y="107" on="0"/>
        <pt x="196" y="57" on="1"/>
        <pt x="334" y="57" on="1"/>
        <pt x="370" y="57" on="0"/>
        <pt x="420" y="66" on="1"/>
        <pt x="442" y="94" on="0"/>
        <pt x="445" y="103" on="1"/>
        <pt x="464" y="149" on="0"/>
        <pt x="470" y="170" on="1"/>
        <pt x="523" y="165" on="1"/>
        <pt x="486" y="14" on="1"/>
        <pt x="465" y="-4" on="1"/>
        <pt x="375" y="0" on="0"/>
        <pt x="355" y="0" on="1"/>
        <pt x="123" y="0" on="1"/>
        <pt x="9" y="-5" on="1"/>
        <pt x="11" y="45" on="1"/>
        <pt x="90" y="61" on="1"/>
        <pt x="105" y="111" on="0"/>
        <pt x="110" y="137" on="1"/>
        <pt x="173" y="568" on="1"/>
        <pt x="175" y="585" on="0"/>
        <pt x="175" y="644" on="1"/>
        <pt x="102" y="656" on="1"/>
        <pt x="115" y="710" on="1"/>
        <pt x="206" y="705" on="0"/>
      </contour>
      <contour>
        <pt x="461" y="763" on="0"/>
        <pt x="424" y="763" on="0"/>
        <pt x="310" y="804" on="0"/>
        <pt x="294" y="804" on="1"/>
        <pt x="268" y="804" on="0"/>
        <pt x="241" y="771" on="1"/>
        <pt x="232" y="760" on="1"/>
        <pt x="200" y="781" on="1"/>
        <pt x="212" y="805" on="0"/>
        <pt x="234" y="829" on="1"/>
        <pt x="273" y="872" on="0"/>
        <pt x="313" y="872" on="0"/>
        <pt x="428" y="831" on="0"/>
        <pt x="444" y="831" on="1"/>
        <pt x="472" y="831" on="0"/>
        <pt x="498" y="869" on="1"/>
        <pt x="507" y="882" on="1"/>
        <pt x="539" y="861" on="1"/>
        <pt x="519" y="825" on="0"/>
      </contour>
    </TTGlyph>
    <TTGlyph name="Euro" xMin="19" yMin="-15" xMax="652" yMax="662">
      <contour>
        <pt x="463" y="662" on="1"/>
        <pt x="495" y="662" on="0"/>
        <pt x="540" y="655" on="0"/>
        <pt x="560" y="652" on="0"/>
        <pt x="595" y="644" on="0"/>
        <pt x="602" y="642" on="1"/>
        <pt x="625" y="635" on="0"/>
        <pt x="652" y="628" on="1"/>
        <pt x="619" y="480" on="1"/>
        <pt x="561" y="486" on="1"/>
        <pt x="567" y="531" on="1"/>
        <pt x="568" y="534" on="0"/>
        <pt x="568" y="554" on="0"/>
        <pt x="565" y="581" on="1"/>
        <pt x="505" y="604" on="0"/>
        <pt x="455" y="604" on="1"/>
        <pt x="371" y="604" on="0"/>
        <pt x="255" y="484" on="0"/>
        <pt x="231" y="387" on="1"/>
        <pt x="433" y="396" on="1"/>
        <pt x="430" y="362" on="1"/>
        <pt x="224" y="352" on="1"/>
        <pt x="219" y="321" on="0"/>
        <pt x="217" y="280" on="1"/>
        <pt x="422" y="290" on="1"/>
        <pt x="419" y="256" on="1"/>
        <pt x="217" y="246" on="1"/>
        <pt x="220" y="154" on="0"/>
        <pt x="300" y="43" on="0"/>
        <pt x="374" y="43" on="1"/>
        <pt x="432" y="43" on="0"/>
        <pt x="498" y="65" on="1"/>
        <pt x="515" y="100" on="0"/>
        <pt x="519" y="121" on="1"/>
        <pt x="528" y="168" on="1"/>
        <pt x="588" y="170" on="1"/>
        <pt x="571" y="19" on="1"/>
        <pt x="437" y="-15" on="0"/>
        <pt x="364" y="-15" on="1"/>
        <pt x="245" y="-15" on="0"/>
        <pt x="117" y="123" on="0"/>
        <pt x="112" y="241" on="1"/>
        <pt x="19" y="237" on="1"/>
        <pt x="22" y="272" on="1"/>
        <pt x="112" y="276" on="1"/>
        <pt x="112" y="301" on="0"/>
        <pt x="118" y="347" on="1"/>
        <pt x="30" y="343" on="1"/>
        <pt x="33" y="378" on="1"/>
        <pt x="125" y="382" on="1"/>
        <pt x="155" y="510" on="0"/>
        <pt x="329" y="662" on="0"/>
      </contour>
    </TTGlyph>
    <TTGlyph name="F" xMin="9" yMin="-5" xMax="573" yMax="715">
      <contour>
        <pt x="408" y="649" on="1"/>
        <pt x="282" y="649" on="1"/>
        <pt x="265" y="579" on="0"/>
        <pt x="259" y="538" on="1"/>
        <pt x="237" y="388" on="1"/>
        <pt x="269" y="386" on="0"/>
        <pt x="278" y="386" on="1"/>
        <pt x="348" y="386" on="1"/>
        <pt x="407" y="395" on="1"/>
        <pt x="425" y="461" on="1"/>
        <pt x="470" y="456" on="1"/>
        <pt x="459" y="392" on="0"/>
        <pt x="457" y="372" on="1"/>
        <pt x="444" y="263" on="1"/>
        <pt x="395" y="257" on="1"/>
        <pt x="397" y="324" on="1"/>
        <pt x="340" y="330" on="0"/>
        <pt x="320" y="330" on="1"/>
        <pt x="270" y="330" on="1"/>
        <pt x="254" y="330" on="0"/>
        <pt x="228" y="327" on="1"/>
        <pt x="205" y="167" on="1"/>
        <pt x="196" y="104" on="0"/>
        <pt x="196" y="61" on="1"/>
        <pt x="292" y="54" on="1"/>
        <pt x="277" y="-5" on="1"/>
        <pt x="202" y="0" on="0"/>
        <pt x="123" y="0" on="1"/>
        <pt x="9" y="-5" on="1"/>
        <pt x="11" y="45" on="1"/>
        <pt x="90" y="61" on="1"/>
        <pt x="105" y="111" on="0"/>
        <pt x="110" y="137" on="1"/>
        <pt x="173" y="568" on="1"/>
        <pt x="175" y="585" on="0"/>
        <pt x="175" y="644" on="1"/>
        <pt x="102" y="656" on="1"/>
        <pt x="115" y="710" on="1"/>
        <pt x="206" y="705" on="0"/>
        <pt x="226" y="705" on="1"/>
        <pt x="445" y="705" on="1"/>
        <pt x="557" y="715" on="1"/>
        <pt x="573" y="697" on="1"/>
        <pt x="560" y="561" on="1"/>
        <pt x="503" y="556" on="1"/>
        <pt x="503" y="588" on="0"/>
        <pt x="500" y="621" on="0"/>
        <pt x="486" y="644" on="1"/>
        <pt x="434" y="649" on="0"/>
      </contour>
    </TTGlyph>
    <TTGlyph name="G" xMin="49" yMin="-15" xMax="643" yMax="720">
      <contour>
        <pt x="434" y="720" on="1"/>
        <pt x="511" y="720" on="0"/>
        <pt x="643" y="686" on="1"/>
        <pt x="611" y="538" on="1"/>
        <pt x="555" y="544" on="1"/>
        <pt x="561" y="589" on="1"/>
        <pt x="562" y="592" on="0"/>
        <pt x="562" y="610" on="0"/>
        <pt x="557" y="638" on="1"/>
        <pt x="481" y="662" on="0"/>
        <pt x="423" y="662" on="1"/>
        <pt x="296" y="662" on="0"/>
        <pt x="151" y="443" on="0"/>
        <pt x="151" y="287" on="1"/>
        <pt x="151" y="179" on="0"/>
        <pt x="252" y="43" on="0"/>
        <pt x="343" y="43" on="1"/>
        <pt x="395" y="43" on="0"/>
        <pt x="470" y="63" on="1"/>
        <pt x="489" y="119" on="0"/>
        <pt x="491" y="128" on="1"/>
        <pt x="501" y="196" on="1"/>
        <pt x="501" y="267" on="1"/>
        <pt x="400" y="275" on="1"/>
        <pt x="413" y="333" on="1"/>
        <pt x="521" y="333" on="1"/>
        <pt x="592" y="336" on="1"/>
        <pt x="607" y="319" on="1"/>
        <pt x="583" y="216" on="0"/>
        <pt x="576" y="166" on="1"/>
        <pt x="555" y="19" on="1"/>
        <pt x="549" y="18" on="0"/>
        <pt x="511" y="8" on="0"/>
        <pt x="496" y="5" on="0"/>
        <pt x="461" y="-3" on="0"/>
        <pt x="442" y="-6" on="0"/>
        <pt x="409" y="-11" on="0"/>
        <pt x="396" y="-12" on="1"/>
        <pt x="359" y="-15" on="0"/>
        <pt x="337" y="-15" on="1"/>
        <pt x="200" y="-15" on="0"/>
        <pt x="49" y="148" on="0"/>
        <pt x="49" y="284" on="1"/>
        <pt x="49" y="476" on="0"/>
        <pt x="253" y="720" on="0"/>
      </contour>
    </TTGlyph>
    <TTGlyph name="Gbreve" xMin="49" yMin="-15" xMax="643" yMax="898">
      <contour>
        <pt x="434" y="720" on="1"/>
        <pt x="511" y="720" on="0"/>
        <pt x="643" y="686" on="1"/>
        <pt x="611" y="538" on="1"/>
        <pt x="555" y="544" on="1"/>
        <pt x="561" y="589" on="1"/>
        <pt x="562" y="592" on="0"/>
        <pt x="562" y="610" on="0"/>
        <pt x="557" y="638" on="1"/>
        <pt x="481" y="662" on="0"/>
        <pt x="423" y="662" on="1"/>
        <pt x="296" y="662" on="0"/>
        <pt x="151" y="443" on="0"/>
        <pt x="151" y="287" on="1"/>
        <pt x="151" y="179" on="0"/>
        <pt x="252" y="43" on="0"/>
        <pt x="343" y="43" on="1"/>
        <pt x="395" y="43" on="0"/>
        <pt x="470" y="63" on="1"/>
        <pt x="489" y="119" on="0"/>
        <pt x="491" y="128" on="1"/>
        <pt x="501" y="196" on="1"/>
        <pt x="501" y="267" on="1"/>
        <pt x="400" y="275" on="1"/>
        <pt x="413" y="333" on="1"/>
        <pt x="521" y="333" on="1"/>
        <pt x="592" y="336" on="1"/>
        <pt x="607" y="319" on="1"/>
        <pt x="583" y="216" on="0"/>
        <pt x="576" y="166" on="1"/>
        <pt x="555" y="19" on="1"/>
        <pt x="549" y="18" on="0"/>
        <pt x="511" y="8" on="0"/>
        <pt x="496" y="5" on="0"/>
        <pt x="461" y="-3" on="0"/>
        <pt x="442" y="-6" on="0"/>
        <pt x="409" y="-11" on="0"/>
        <pt x="396" y="-12" on="1"/>
        <pt x="359" y="-15" on="0"/>
        <pt x="337" y="-15" on="1"/>
        <pt x="200" y="-15" on="0"/>
        <pt x="49" y="148" on="0"/>
        <pt x="49" y="284" on="1"/>
        <pt x="49" y="476" on="0"/>
        <pt x="253" y="720" on="0"/>
      </contour>
      <contour>
        <pt x="577" y="830" on="0"/>
        <pt x="498" y="758" on="0"/>
        <pt x="367" y="758" on="0"/>
        <pt x="338" y="794" on="1"/>
        <pt x="315" y="821" on="0"/>
        <pt x="315" y="866" on="1"/>
        <pt x="315" y="881" on="0"/>
        <pt x="318" y="898" on="1"/>
        <pt x="372" y="898" on="1"/>
        <pt x="371" y="890" on="0"/>
        <pt x="371" y="883" on="1"/>
        <pt x="371" y="855" on="0"/>
        <pt x="404" y="814" on="0"/>
        <pt x="477" y="814" on="0"/>
        <pt x="528" y="860" on="0"/>
        <pt x="533" y="898" on="1"/>
        <pt x="587" y="898" on="1"/>
      </contour>
    </TTGlyph>
    <TTGlyph name="Gcircumflex" xMin="49" yMin="-15" xMax="643" yMax="893">
      <contour>
        <pt x="434" y="720" on="1"/>
        <pt x="511" y="720" on="0"/>
        <pt x="643" y="686" on="1"/>
        <pt x="611" y="538" on="1"/>
        <pt x="555" y="544" on="1"/>
        <pt x="561" y="589" on="1"/>
        <pt x="562" y="592" on="0"/>
        <pt x="562" y="610" on="0"/>
        <pt x="557" y="638" on="1"/>
        <pt x="481" y="662" on="0"/>
        <pt x="423" y="662" on="1"/>
        <pt x="296" y="662" on="0"/>
        <pt x="151" y="443" on="0"/>
        <pt x="151" y="287" on="1"/>
        <pt x="151" y="179" on="0"/>
        <pt x="252" y="43" on="0"/>
        <pt x="343" y="43" on="1"/>
        <pt x="395" y="43" on="0"/>
        <pt x="470" y="63" on="1"/>
        <pt x="489" y="119" on="0"/>
        <pt x="491" y="128" on="1"/>
        <pt x="501" y="196" on="1"/>
        <pt x="501" y="267" on="1"/>
        <pt x="400" y="275" on="1"/>
        <pt x="413" y="333" on="1"/>
        <pt x="521" y="333" on="1"/>
        <pt x="592" y="336" on="1"/>
        <pt x="607" y="319" on="1"/>
        <pt x="583" y="216" on="0"/>
        <pt x="576" y="166" on="1"/>
        <pt x="555" y="19" on="1"/>
        <pt x="549" y="18" on="0"/>
        <pt x="511" y="8" on="0"/>
        <pt x="496" y="5" on="0"/>
        <pt x="461" y="-3" on="0"/>
        <pt x="442" y="-6" on="0"/>
        <pt x="409" y="-11" on="0"/>
        <pt x="396" y="-12" on="1"/>
        <pt x="359" y="-15" on="0"/>
        <pt x="337" y="-15" on="1"/>
        <pt x="200" y="-15" on="0"/>
        <pt x="49" y="148" on="0"/>
        <pt x="49" y="284" on="1"/>
        <pt x="49" y="476" on="0"/>
        <pt x="253" y="720" on="0"/>
      </contour>
      <contour>
        <pt x="452" y="893" on="1"/>
        <pt x="605" y="786" on="1"/>
        <pt x="577" y="747" on="1"/>
        <pt x="498" y="788" on="1"/>
        <pt x="441" y="813" on="1"/>
        <pt x="432" y="810" on="0"/>
        <pt x="402" y="798" on="0"/>
        <pt x="380" y="790" on="0"/>
        <pt x="375" y="788" on="1"/>
        <pt x="284" y="747" on="1"/>
        <pt x="268" y="786" on="1"/>
      </contour>
    </TTGlyph>
    <TTGlyph name="Gcommaaccent" xMin="49" yMin="-259" xMax="643" yMax="720">
      <contour>
        <pt x="434" y="720" on="1"/>
        <pt x="511" y="720" on="0"/>
        <pt x="643" y="686" on="1"/>
        <pt x="611" y="538" on="1"/>
        <pt x="555" y="544" on="1"/>
        <pt x="561" y="589" on="1"/>
        <pt x="562" y="592" on="0"/>
        <pt x="562" y="610" on="0"/>
        <pt x="557" y="638" on="1"/>
        <pt x="481" y="662" on="0"/>
        <pt x="423" y="662" on="1"/>
        <pt x="296" y="662" on="0"/>
        <pt x="151" y="443" on="0"/>
        <pt x="151" y="287" on="1"/>
        <pt x="151" y="179" on="0"/>
        <pt x="252" y="43" on="0"/>
        <pt x="343" y="43" on="1"/>
        <pt x="395" y="43" on="0"/>
        <pt x="470" y="63" on="1"/>
        <pt x="489" y="119" on="0"/>
        <pt x="491" y="128" on="1"/>
        <pt x="501" y="196" on="1"/>
        <pt x="501" y="267" on="1"/>
        <pt x="400" y="275" on="1"/>
        <pt x="413" y="333" on="1"/>
        <pt x="521" y="333" on="1"/>
        <pt x="592" y="336" on="1"/>
        <pt x="607" y="319" on="1"/>
        <pt x="583" y="216" on="0"/>
        <pt x="576" y="166" on="1"/>
        <pt x="555" y="19" on="1"/>
        <pt x="549" y="18" on="0"/>
        <pt x="511" y="8" on="0"/>
        <pt x="496" y="5" on="0"/>
        <pt x="461" y="-3" on="0"/>
        <pt x="442" y="-6" on="0"/>
        <pt x="409" y="-11" on="0"/>
        <pt x="396" y="-12" on="1"/>
        <pt x="359" y="-15" on="0"/>
        <pt x="337" y="-15" on="1"/>
        <pt x="200" y="-15" on="0"/>
        <pt x="49" y="148" on="0"/>
        <pt x="49" y="284" on="1"/>
        <pt x="49" y="476" on="0"/>
        <pt x="253" y="720" on="0"/>
      </contour>
      <contour>
        <pt x="317" y="-168" on="1"/>
        <pt x="292" y="-156" on="0"/>
        <pt x="292" y="-94" on="0"/>
        <pt x="328" y="-58" on="0"/>
        <pt x="350" y="-58" on="1"/>
        <pt x="391" y="-58" on="0"/>
        <pt x="391" y="-109" on="1"/>
        <pt x="391" y="-136" on="0"/>
        <pt x="358" y="-211" on="0"/>
        <pt x="342" y="-235" on="1"/>
        <pt x="325" y="-259" on="1"/>
        <pt x="291" y="-247" on="1"/>
        <pt x="314" y="-194" on="0"/>
      </contour>
    </TTGlyph>
    <TTGlyph name="Gdieresis" xMin="49" yMin="-15" xMax="643" yMax="874">
      <contour>
        <pt x="434" y="720" on="1"/>
        <pt x="511" y="720" on="0"/>
        <pt x="643" y="686" on="1"/>
        <pt x="611" y="538" on="1"/>
        <pt x="555" y="544" on="1"/>
        <pt x="561" y="589" on="1"/>
        <pt x="562" y="592" on="0"/>
        <pt x="562" y="610" on="0"/>
        <pt x="557" y="638" on="1"/>
        <pt x="481" y="662" on="0"/>
        <pt x="423" y="662" on="1"/>
        <pt x="296" y="662" on="0"/>
        <pt x="151" y="443" on="0"/>
        <pt x="151" y="287" on="1"/>
        <pt x="151" y="179" on="0"/>
        <pt x="252" y="43" on="0"/>
        <pt x="343" y="43" on="1"/>
        <pt x="395" y="43" on="0"/>
        <pt x="470" y="63" on="1"/>
        <pt x="489" y="119" on="0"/>
        <pt x="491" y="128" on="1"/>
        <pt x="501" y="196" on="1"/>
        <pt x="501" y="267" on="1"/>
        <pt x="400" y="275" on="1"/>
        <pt x="413" y="333" on="1"/>
        <pt x="521" y="333" on="1"/>
        <pt x="592" y="336" on="1"/>
        <pt x="607" y="319" on="1"/>
        <pt x="583" y="216" on="0"/>
        <pt x="576" y="166" on="1"/>
        <pt x="555" y="19" on="1"/>
        <pt x="549" y="18" on="0"/>
        <pt x="511" y="8" on="0"/>
        <pt x="496" y="5" on="0"/>
        <pt x="461" y="-3" on="0"/>
        <pt x="442" y="-6" on="0"/>
        <pt x="409" y="-11" on="0"/>
        <pt x="396" y="-12" on="1"/>
        <pt x="359" y="-15" on="0"/>
        <pt x="337" y="-15" on="1"/>
        <pt x="200" y="-15" on="0"/>
        <pt x="49" y="148" on="0"/>
        <pt x="49" y="284" on="1"/>
        <pt x="49" y="476" on="0"/>
        <pt x="253" y="720" on="0"/>
      </contour>
      <contour>
        <pt x="555" y="874" on="1"/>
        <pt x="600" y="874" on="0"/>
        <pt x="600" y="826" on="1"/>
        <pt x="600" y="794" on="0"/>
        <pt x="568" y="755" on="0"/>
        <pt x="538" y="755" on="1"/>
        <pt x="493" y="755" on="0"/>
        <pt x="493" y="802" on="1"/>
        <pt x="493" y="834" on="0"/>
        <pt x="525" y="874" on="0"/>
      </contour>
      <contour>
        <pt x="326" y="874" on="1"/>
        <pt x="372" y="874" on="0"/>
        <pt x="372" y="826" on="1"/>
        <pt x="372" y="794" on="0"/>
        <pt x="339" y="755" on="0"/>
        <pt x="309" y="755" on="1"/>
        <pt x="264" y="755" on="0"/>
        <pt x="264" y="802" on="1"/>
        <pt x="264" y="834" on="0"/>
        <pt x="296" y="874" on="0"/>
      </contour>
    </TTGlyph>
    <TTGlyph name="Gdotaccent" xMin="49" yMin="-15" xMax="643" yMax="890">
      <contour>
        <pt x="434" y="720" on="1"/>
        <pt x="511" y="720" on="0"/>
        <pt x="643" y="686" on="1"/>
        <pt x="611" y="538" on="1"/>
        <pt x="555" y="544" on="1"/>
        <pt x="561" y="589" on="1"/>
        <pt x="562" y="592" on="0"/>
        <pt x="562" y="610" on="0"/>
        <pt x="557" y="638" on="1"/>
        <pt x="481" y="662" on="0"/>
        <pt x="423" y="662" on="1"/>
        <pt x="296" y="662" on="0"/>
        <pt x="151" y="443" on="0"/>
        <pt x="151" y="287" on="1"/>
        <pt x="151" y="179" on="0"/>
        <pt x="252" y="43" on="0"/>
        <pt x="343" y="43" on="1"/>
        <pt x="395" y="43" on="0"/>
        <pt x="470" y="63" on="1"/>
        <pt x="489" y="119" on="0"/>
        <pt x="491" y="128" on="1"/>
        <pt x="501" y="196" on="1"/>
        <pt x="501" y="267" on="1"/>
        <pt x="400" y="275" on="1"/>
        <pt x="413" y="333" on="1"/>
        <pt x="521" y="333" on="1"/>
        <pt x="592" y="336" on="1"/>
        <pt x="607" y="319" on="1"/>
        <pt x="583" y="216" on="0"/>
        <pt x="576" y="166" on="1"/>
        <pt x="555" y="19" on="1"/>
        <pt x="549" y="18" on="0"/>
        <pt x="511" y="8" on="0"/>
        <pt x="496" y="5" on="0"/>
        <pt x="461" y="-3" on="0"/>
        <pt x="442" y="-6" on="0"/>
        <pt x="409" y="-11" on="0"/>
        <pt x="396" y="-12" on="1"/>
        <pt x="359" y="-15" on="0"/>
        <pt x="337" y="-15" on="1"/>
        <pt x="200" y="-15" on="0"/>
        <pt x="49" y="148" on="0"/>
        <pt x="49" y="284" on="1"/>
        <pt x="49" y="476" on="0"/>
        <pt x="253" y="720" on="0"/>
      </contour>
      <contour>
        <pt x="390" y="847" on="0"/>
        <pt x="427" y="890" on="0"/>
        <pt x="454" y="890" on="1"/>
        <pt x="507" y="890" on="0"/>
        <pt x="507" y="837" on="1"/>
        <pt x="507" y="804" on="0"/>
        <pt x="469" y="761" on="0"/>
        <pt x="442" y="761" on="1"/>
        <pt x="390" y="761" on="0"/>
        <pt x="390" y="814" on="1"/>
      </contour>
    </TTGlyph>
    <TTGlyph name="Gtilde" xMin="49" yMin="-15" xMax="643" yMax="872">
      <contour>
        <pt x="434" y="720" on="1"/>
        <pt x="511" y="720" on="0"/>
        <pt x="643" y="686" on="1"/>
        <pt x="611" y="538" on="1"/>
        <pt x="555" y="544" on="1"/>
        <pt x="561" y="589" on="1"/>
        <pt x="562" y="592" on="0"/>
        <pt x="562" y="610" on="0"/>
        <pt x="557" y="638" on="1"/>
        <pt x="481" y="662" on="0"/>
        <pt x="423" y="662" on="1"/>
        <pt x="296" y="662" on="0"/>
        <pt x="151" y="443" on="0"/>
        <pt x="151" y="287" on="1"/>
        <pt x="151" y="179" on="0"/>
        <pt x="252" y="43" on="0"/>
        <pt x="343" y="43" on="1"/>
        <pt x="395" y="43" on="0"/>
        <pt x="470" y="63" on="1"/>
        <pt x="489" y="119" on="0"/>
        <pt x="491" y="128" on="1"/>
        <pt x="501" y="196" on="1"/>
        <pt x="501" y="267" on="1"/>
        <pt x="400" y="275" on="1"/>
        <pt x="413" y="333" on="1"/>
        <pt x="521" y="333" on="1"/>
        <pt x="592" y="336" on="1"/>
        <pt x="607" y="319" on="1"/>
        <pt x="583" y="216" on="0"/>
        <pt x="576" y="166" on="1"/>
        <pt x="555" y="19" on="1"/>
        <pt x="549" y="18" on="0"/>
        <pt x="511" y="8" on="0"/>
        <pt x="496" y="5" on="0"/>
        <pt x="461" y="-3" on="0"/>
        <pt x="442" y="-6" on="0"/>
        <pt x="409" y="-11" on="0"/>
        <pt x="396" y="-12" on="1"/>
        <pt x="359" y="-15" on="0"/>
        <pt x="337" y="-15" on="1"/>
        <pt x="200" y="-15" on="0"/>
        <pt x="49" y="148" on="0"/>
        <pt x="49" y="284" on="1"/>
        <pt x="49" y="476" on="0"/>
        <pt x="253" y="720" on="0"/>
      </contour>
      <contour>
        <pt x="524" y="753" on="0"/>
        <pt x="488" y="753" on="0"/>
        <pt x="374" y="794" on="0"/>
        <pt x="358" y="794" on="1"/>
        <pt x="331" y="794" on="0"/>
        <pt x="304" y="761" on="1"/>
        <pt x="295" y="750" on="1"/>
        <pt x="263" y="771" on="1"/>
        <pt x="275" y="795" on="0"/>
        <pt x="297" y="819" on="1"/>
        <pt x="336" y="862" on="0"/>
        <pt x="376" y="862" on="0"/>
        <pt x="491" y="821" on="0"/>
        <pt x="507" y="821" on="1"/>
        <pt x="535" y="821" on="0"/>
        <pt x="561" y="859" on="1"/>
        <pt x="570" y="872" on="1"/>
        <pt x="602" y="851" on="1"/>
        <pt x="582" y="815" on="0"/>
      </contour>
    </TTGlyph>
    <TTGlyph name="H" xMin="9" yMin="-5" xMax="772" yMax="710">
      <contour>
        <pt x="772" y="710" on="1"/>
        <pt x="767" y="651" on="1"/>
        <pt x="691" y="644" on="1"/>
        <pt x="677" y="596" on="0"/>
        <pt x="669" y="538" on="1"/>
        <pt x="615" y="167" on="1"/>
        <pt x="606" y="104" on="0"/>
        <pt x="606" y="61" on="1"/>
        <pt x="691" y="54" on="1"/>
        <pt x="676" y="-5" on="1"/>
        <pt x="612" y="0" on="0"/>
        <pt x="533" y="0" on="1"/>
        <pt x="419" y="-5" on="1"/>
        <pt x="421" y="45" on="1"/>
        <pt x="500" y="61" on="1"/>
        <pt x="501" y="65" on="0"/>
        <pt x="506" y="82" on="1"/>
        <pt x="517" y="124" on="0"/>
        <pt x="519" y="137" on="1"/>
        <pt x="547" y="327" on="1"/>
        <pt x="228" y="327" on="1"/>
        <pt x="205" y="167" on="1"/>
        <pt x="196" y="104" on="0"/>
        <pt x="196" y="61" on="1"/>
        <pt x="282" y="54" on="1"/>
        <pt x="266" y="-5" on="1"/>
        <pt x="202" y="0" on="0"/>
        <pt x="123" y="0" on="1"/>
        <pt x="9" y="-5" on="1"/>
        <pt x="11" y="45" on="1"/>
        <pt x="90" y="61" on="1"/>
        <pt x="105" y="111" on="0"/>
        <pt x="110" y="137" on="1"/>
        <pt x="173" y="568" on="1"/>
        <pt x="175" y="585" on="0"/>
        <pt x="175" y="644" on="1"/>
        <pt x="102" y="656" on="1"/>
        <pt x="115" y="710" on="1"/>
        <pt x="206" y="705" on="0"/>
        <pt x="226" y="705" on="1"/>
        <pt x="362" y="710" on="1"/>
        <pt x="358" y="651" on="1"/>
        <pt x="281" y="644" on="1"/>
        <pt x="267" y="596" on="0"/>
        <pt x="259" y="538" on="1"/>
        <pt x="236" y="378" on="1"/>
        <pt x="555" y="383" on="1"/>
        <pt x="582" y="568" on="1"/>
        <pt x="585" y="585" on="0"/>
        <pt x="585" y="644" on="1"/>
        <pt x="512" y="656" on="1"/>
        <pt x="525" y="710" on="1"/>
        <pt x="616" y="705" on="0"/>
        <pt x="636" y="705" on="1"/>
      </contour>
    </TTGlyph>
    <TTGlyph name="Hbar" xMin="9" yMin="-5" xMax="772" yMax="710">
      <contour>
        <pt x="772" y="710" on="1"/>
        <pt x="767" y="651" on="1"/>
        <pt x="691" y="644" on="1"/>
        <pt x="678" y="599" on="0"/>
        <pt x="670" y="543" on="1"/>
        <pt x="765" y="543" on="1"/>
        <pt x="759" y="499" on="1"/>
        <pt x="663" y="499" on="1"/>
        <pt x="615" y="167" on="1"/>
        <pt x="606" y="104" on="0"/>
        <pt x="606" y="61" on="1"/>
        <pt x="691" y="54" on="1"/>
        <pt x="676" y="-5" on="1"/>
        <pt x="612" y="0" on="0"/>
        <pt x="533" y="0" on="1"/>
        <pt x="419" y="-5" on="1"/>
        <pt x="421" y="45" on="1"/>
        <pt x="500" y="61" on="1"/>
        <pt x="501" y="65" on="0"/>
        <pt x="506" y="82" on="1"/>
        <pt x="517" y="124" on="0"/>
        <pt x="519" y="137" on="1"/>
        <pt x="547" y="327" on="1"/>
        <pt x="228" y="327" on="1"/>
        <pt x="205" y="167" on="1"/>
        <pt x="196" y="104" on="0"/>
        <pt x="196" y="61" on="1"/>
        <pt x="282" y="54" on="1"/>
        <pt x="266" y="-5" on="1"/>
        <pt x="202" y="0" on="0"/>
        <pt x="123" y="0" on="1"/>
        <pt x="9" y="-5" on="1"/>
        <pt x="11" y="45" on="1"/>
        <pt x="90" y="61" on="1"/>
        <pt x="105" y="111" on="0"/>
        <pt x="110" y="137" on="1"/>
        <pt x="163" y="499" on="1"/>
        <pt x="76" y="499" on="1"/>
        <pt x="82" y="543" on="1"/>
        <pt x="169" y="543" on="1"/>
        <pt x="173" y="568" on="1"/>
        <pt x="175" y="585" on="0"/>
        <pt x="175" y="644" on="1"/>
        <pt x="102" y="656" on="1"/>
        <pt x="115" y="710" on="1"/>
        <pt x="206" y="705" on="0"/>
        <pt x="226" y="705" on="1"/>
        <pt x="362" y="710" on="1"/>
        <pt x="358" y="651" on="1"/>
        <pt x="281" y="644" on="1"/>
        <pt x="268" y="599" on="0"/>
        <pt x="260" y="543" on="1"/>
        <pt x="578" y="543" on="1"/>
        <pt x="582" y="568" on="1"/>
        <pt x="585" y="585" on="0"/>
        <pt x="585" y="644" on="1"/>
        <pt x="512" y="656" on="1"/>
        <pt x="525" y="710" on="1"/>
        <pt x="616" y="705" on="0"/>
        <pt x="636" y="705" on="1"/>
      </contour>
      <contour>
        <pt x="236" y="378" on="1"/>
        <pt x="555" y="383" on="1"/>
        <pt x="572" y="499" on="1"/>
        <pt x="253" y="499" on="1"/>
      </contour>
    </TTGlyph>
    <TTGlyph name="Hcircumflex" xMin="9" yMin="-5" xMax="772" yMax="893">
      <contour>
        <pt x="772" y="710" on="1"/>
        <pt x="767" y="651" on="1"/>
        <pt x="691" y="644" on="1"/>
        <pt x="677" y="596" on="0"/>
        <pt x="669" y="538" on="1"/>
        <pt x="615" y="167" on="1"/>
        <pt x="606" y="104" on="0"/>
        <pt x="606" y="61" on="1"/>
        <pt x="691" y="54" on="1"/>
        <pt x="676" y="-5" on="1"/>
        <pt x="612" y="0" on="0"/>
        <pt x="533" y="0" on="1"/>
        <pt x="419" y="-5" on="1"/>
        <pt x="421" y="45" on="1"/>
        <pt x="500" y="61" on="1"/>
        <pt x="501" y="65" on="0"/>
        <pt x="506" y="82" on="1"/>
        <pt x="517" y="124" on="0"/>
        <pt x="519" y="137" on="1"/>
        <pt x="547" y="327" on="1"/>
        <pt x="228" y="327" on="1"/>
        <pt x="205" y="167" on="1"/>
        <pt x="196" y="104" on="0"/>
        <pt x="196" y="61" on="1"/>
        <pt x="282" y="54" on="1"/>
        <pt x="266" y="-5" on="1"/>
        <pt x="202" y="0" on="0"/>
        <pt x="123" y="0" on="1"/>
        <pt x="9" y="-5" on="1"/>
        <pt x="11" y="45" on="1"/>
        <pt x="90" y="61" on="1"/>
        <pt x="105" y="111" on="0"/>
        <pt x="110" y="137" on="1"/>
        <pt x="173" y="568" on="1"/>
        <pt x="175" y="585" on="0"/>
        <pt x="175" y="644" on="1"/>
        <pt x="102" y="656" on="1"/>
        <pt x="115" y="710" on="1"/>
        <pt x="206" y="705" on="0"/>
        <pt x="226" y="705" on="1"/>
        <pt x="362" y="710" on="1"/>
        <pt x="358" y="651" on="1"/>
        <pt x="281" y="644" on="1"/>
        <pt x="267" y="596" on="0"/>
        <pt x="259" y="538" on="1"/>
        <pt x="236" y="378" on="1"/>
        <pt x="555" y="383" on="1"/>
        <pt x="582" y="568" on="1"/>
        <pt x="585" y="585" on="0"/>
        <pt x="585" y="644" on="1"/>
        <pt x="512" y="656" on="1"/>
        <pt x="525" y="710" on="1"/>
        <pt x="616" y="705" on="0"/>
        <pt x="636" y="705" on="1"/>
      </contour>
      <contour>
        <pt x="469" y="893" on="1"/>
        <pt x="622" y="786" on="1"/>
        <pt x="594" y="747" on="1"/>
        <pt x="515" y="788" on="1"/>
        <pt x="458" y="813" on="1"/>
        <pt x="449" y="810" on="0"/>
        <pt x="419" y="798" on="0"/>
        <pt x="397" y="790" on="0"/>
        <pt x="392" y="788" on="1"/>
        <pt x="301" y="747" on="1"/>
        <pt x="285" y="786" on="1"/>
      </contour>
    </TTGlyph>
    <TTGlyph name="I" xMin="15" yMin="-5" xMax="368" yMax="710">
      <contour>
        <pt x="368" y="710" on="1"/>
        <pt x="363" y="651" on="1"/>
        <pt x="287" y="644" on="1"/>
        <pt x="273" y="596" on="0"/>
        <pt x="265" y="538" on="1"/>
        <pt x="211" y="167" on="1"/>
        <pt x="202" y="104" on="0"/>
        <pt x="202" y="61" on="1"/>
        <pt x="287" y="54" on="1"/>
        <pt x="272" y="-5" on="1"/>
        <pt x="208" y="0" on="0"/>
        <pt x="129" y="0" on="1"/>
        <pt x="15" y="-5" on="1"/>
        <pt x="17" y="45" on="1"/>
        <pt x="96" y="61" on="1"/>
        <pt x="97" y="65" on="0"/>
        <pt x="102" y="82" on="1"/>
        <pt x="113" y="124" on="0"/>
        <pt x="115" y="137" on="1"/>
        <pt x="178" y="568" on="1"/>
        <pt x="181" y="585" on="0"/>
        <pt x="181" y="644" on="1"/>
        <pt x="108" y="656" on="1"/>
        <pt x="121" y="710" on="1"/>
        <pt x="212" y="705" on="0"/>
        <pt x="232" y="705" on="1"/>
      </contour>
    </TTGlyph>
    <TTGlyph name="IJ" xMin="3" yMin="-200" xMax="621" yMax="710">
      <contour>
        <pt x="222" y="705" on="1"/>
        <pt x="487" y="705" on="1"/>
        <pt x="621" y="710" on="1"/>
        <pt x="615" y="651" on="1"/>
        <pt x="539" y="644" on="1"/>
        <pt x="526" y="599" on="0"/>
        <pt x="516" y="538" on="1"/>
        <pt x="437" y="-10" on="1"/>
        <pt x="433" y="-37" on="0"/>
        <pt x="276" y="-200" on="1"/>
        <pt x="246" y="-178" on="1"/>
        <pt x="349" y="-9" on="0"/>
        <pt x="352" y="11" on="1"/>
        <pt x="433" y="568" on="1"/>
        <pt x="435" y="585" on="0"/>
        <pt x="435" y="644" on="1"/>
        <pt x="356" y="656" on="1"/>
        <pt x="274" y="644" on="1"/>
        <pt x="261" y="599" on="0"/>
        <pt x="251" y="538" on="1"/>
        <pt x="197" y="167" on="1"/>
        <pt x="189" y="111" on="0"/>
        <pt x="189" y="61" on="1"/>
        <pt x="275" y="54" on="1"/>
        <pt x="259" y="-5" on="1"/>
        <pt x="196" y="0" on="0"/>
        <pt x="119" y="0" on="1"/>
        <pt x="3" y="-5" on="1"/>
        <pt x="7" y="45" on="1"/>
        <pt x="85" y="61" on="1"/>
        <pt x="103" y="119" on="0"/>
        <pt x="105" y="137" on="1"/>
        <pt x="168" y="568" on="1"/>
        <pt x="170" y="585" on="0"/>
        <pt x="170" y="644" on="1"/>
        <pt x="97" y="656" on="1"/>
        <pt x="110" y="710" on="1"/>
        <pt x="202" y="705" on="0"/>
      </contour>
    </TTGlyph>
    <TTGlyph name="Iacute" xMin="15" yMin="-5" xMax="391" yMax="898">
      <contour>
        <pt x="368" y="710" on="1"/>
        <pt x="363" y="651" on="1"/>
        <pt x="287" y="644" on="1"/>
        <pt x="273" y="596" on="0"/>
        <pt x="265" y="538" on="1"/>
        <pt x="211" y="167" on="1"/>
        <pt x="202" y="104" on="0"/>
        <pt x="202" y="61" on="1"/>
        <pt x="287" y="54" on="1"/>
        <pt x="272" y="-5" on="1"/>
        <pt x="208" y="0" on="0"/>
        <pt x="129" y="0" on="1"/>
        <pt x="15" y="-5" on="1"/>
        <pt x="17" y="45" on="1"/>
        <pt x="96" y="61" on="1"/>
        <pt x="97" y="65" on="0"/>
        <pt x="102" y="82" on="1"/>
        <pt x="113" y="124" on="0"/>
        <pt x="115" y="137" on="1"/>
        <pt x="178" y="568" on="1"/>
        <pt x="181" y="585" on="0"/>
        <pt x="181" y="644" on="1"/>
        <pt x="108" y="656" on="1"/>
        <pt x="121" y="710" on="1"/>
        <pt x="212" y="705" on="0"/>
        <pt x="232" y="705" on="1"/>
      </contour>
      <contour>
        <pt x="362" y="898" on="1"/>
        <pt x="391" y="825" on="1"/>
        <pt x="263" y="793" on="0"/>
        <pt x="244" y="787" on="1"/>
        <pt x="159" y="750" on="1"/>
        <pt x="139" y="798" on="1"/>
      </contour>
    </TTGlyph>
    <TTGlyph name="Ibreve" xMin="15" yMin="-5" xMax="395" yMax="898">
      <contour>
        <pt x="368" y="710" on="1"/>
        <pt x="363" y="651" on="1"/>
        <pt x="287" y="644" on="1"/>
        <pt x="273" y="596" on="0"/>
        <pt x="265" y="538" on="1"/>
        <pt x="211" y="167" on="1"/>
        <pt x="202" y="104" on="0"/>
        <pt x="202" y="61" on="1"/>
        <pt x="287" y="54" on="1"/>
        <pt x="272" y="-5" on="1"/>
        <pt x="208" y="0" on="0"/>
        <pt x="129" y="0" on="1"/>
        <pt x="15" y="-5" on="1"/>
        <pt x="17" y="45" on="1"/>
        <pt x="96" y="61" on="1"/>
        <pt x="97" y="65" on="0"/>
        <pt x="102" y="82" on="1"/>
        <pt x="113" y="124" on="0"/>
        <pt x="115" y="137" on="1"/>
        <pt x="178" y="568" on="1"/>
        <pt x="181" y="585" on="0"/>
        <pt x="181" y="644" on="1"/>
        <pt x="108" y="656" on="1"/>
        <pt x="121" y="710" on="1"/>
        <pt x="212" y="705" on="0"/>
        <pt x="232" y="705" on="1"/>
      </contour>
      <contour>
        <pt x="385" y="830" on="0"/>
        <pt x="306" y="758" on="0"/>
        <pt x="175" y="758" on="0"/>
        <pt x="146" y="794" on="1"/>
        <pt x="123" y="821" on="0"/>
        <pt x="123" y="866" on="1"/>
        <pt x="123" y="881" on="0"/>
        <pt x="126" y="898" on="1"/>
        <pt x="180" y="898" on="1"/>
        <pt x="179" y="890" on="0"/>
        <pt x="179" y="883" on="1"/>
        <pt x="179" y="855" on="0"/>
        <pt x="212" y="814" on="0"/>
        <pt x="285" y="814" on="0"/>
        <pt x="336" y="860" on="0"/>
        <pt x="341" y="898" on="1"/>
        <pt x="395" y="898" on="1"/>
      </contour>
    </TTGlyph>
    <TTGlyph name="Icircumflex" xMin="15" yMin="-5" xMax="413" yMax="893">
      <contour>
        <pt x="368" y="710" on="1"/>
        <pt x="363" y="651" on="1"/>
        <pt x="287" y="644" on="1"/>
        <pt x="273" y="596" on="0"/>
        <pt x="265" y="538" on="1"/>
        <pt x="211" y="167" on="1"/>
        <pt x="202" y="104" on="0"/>
        <pt x="202" y="61" on="1"/>
        <pt x="287" y="54" on="1"/>
        <pt x="272" y="-5" on="1"/>
        <pt x="208" y="0" on="0"/>
        <pt x="129" y="0" on="1"/>
        <pt x="15" y="-5" on="1"/>
        <pt x="17" y="45" on="1"/>
        <pt x="96" y="61" on="1"/>
        <pt x="97" y="65" on="0"/>
        <pt x="102" y="82" on="1"/>
        <pt x="113" y="124" on="0"/>
        <pt x="115" y="137" on="1"/>
        <pt x="178" y="568" on="1"/>
        <pt x="181" y="585" on="0"/>
        <pt x="181" y="644" on="1"/>
        <pt x="108" y="656" on="1"/>
        <pt x="121" y="710" on="1"/>
        <pt x="212" y="705" on="0"/>
        <pt x="232" y="705" on="1"/>
      </contour>
      <contour>
        <pt x="260" y="893" on="1"/>
        <pt x="413" y="786" on="1"/>
        <pt x="385" y="747" on="1"/>
        <pt x="306" y="788" on="1"/>
        <pt x="249" y="813" on="1"/>
        <pt x="240" y="810" on="0"/>
        <pt x="210" y="798" on="0"/>
        <pt x="188" y="790" on="0"/>
        <pt x="183" y="788" on="1"/>
        <pt x="92" y="747" on="1"/>
        <pt x="76" y="786" on="1"/>
      </contour>
    </TTGlyph>
    <TTGlyph name="Idieresis" xMin="15" yMin="-5" xMax="410" yMax="884">
      <contour>
        <pt x="366" y="884" on="1"/>
        <pt x="410" y="884" on="0"/>
        <pt x="410" y="836" on="1"/>
        <pt x="410" y="804" on="0"/>
        <pt x="379" y="765" on="0"/>
        <pt x="349" y="765" on="1"/>
        <pt x="304" y="765" on="0"/>
        <pt x="304" y="812" on="1"/>
        <pt x="304" y="844" on="0"/>
        <pt x="336" y="884" on="0"/>
      </contour>
      <contour>
        <pt x="195" y="884" on="1"/>
        <pt x="240" y="884" on="0"/>
        <pt x="240" y="836" on="1"/>
        <pt x="240" y="804" on="0"/>
        <pt x="207" y="765" on="0"/>
        <pt x="178" y="765" on="1"/>
        <pt x="133" y="765" on="0"/>
        <pt x="133" y="812" on="1"/>
        <pt x="133" y="844" on="0"/>
        <pt x="165" y="884" on="0"/>
      </contour>
      <contour>
        <pt x="368" y="710" on="1"/>
        <pt x="363" y="651" on="1"/>
        <pt x="287" y="644" on="1"/>
        <pt x="273" y="596" on="0"/>
        <pt x="265" y="538" on="1"/>
        <pt x="211" y="167" on="1"/>
        <pt x="202" y="104" on="0"/>
        <pt x="202" y="61" on="1"/>
        <pt x="287" y="54" on="1"/>
        <pt x="272" y="-5" on="1"/>
        <pt x="208" y="0" on="0"/>
        <pt x="129" y="0" on="1"/>
        <pt x="15" y="-5" on="1"/>
        <pt x="17" y="45" on="1"/>
        <pt x="96" y="61" on="1"/>
        <pt x="97" y="65" on="0"/>
        <pt x="102" y="82" on="1"/>
        <pt x="113" y="124" on="0"/>
        <pt x="115" y="137" on="1"/>
        <pt x="178" y="568" on="1"/>
        <pt x="181" y="585" on="0"/>
        <pt x="181" y="644" on="1"/>
        <pt x="108" y="656" on="1"/>
        <pt x="121" y="710" on="1"/>
        <pt x="212" y="705" on="0"/>
        <pt x="232" y="705" on="1"/>
      </contour>
    </TTGlyph>
    <TTGlyph name="Idotaccent" xMin="15" yMin="-5" xMax="368" yMax="890">
      <contour>
        <pt x="368" y="710" on="1"/>
        <pt x="363" y="651" on="1"/>
        <pt x="287" y="644" on="1"/>
        <pt x="273" y="596" on="0"/>
        <pt x="265" y="538" on="1"/>
        <pt x="211" y="167" on="1"/>
        <pt x="202" y="104" on="0"/>
        <pt x="202" y="61" on="1"/>
        <pt x="287" y="54" on="1"/>
        <pt x="272" y="-5" on="1"/>
        <pt x="208" y="0" on="0"/>
        <pt x="129" y="0" on="1"/>
        <pt x="15" y="-5" on="1"/>
        <pt x="17" y="45" on="1"/>
        <pt x="96" y="61" on="1"/>
        <pt x="97" y="65" on="0"/>
        <pt x="102" y="82" on="1"/>
        <pt x="113" y="124" on="0"/>
        <pt x="115" y="137" on="1"/>
        <pt x="178" y="568" on="1"/>
        <pt x="181" y="585" on="0"/>
        <pt x="181" y="644" on="1"/>
        <pt x="108" y="656" on="1"/>
        <pt x="121" y="710" on="1"/>
        <pt x="212" y="705" on="0"/>
        <pt x="232" y="705" on="1"/>
      </contour>
      <contour>
        <pt x="198" y="847" on="0"/>
        <pt x="235" y="890" on="0"/>
        <pt x="262" y="890" on="1"/>
        <pt x="315" y="890" on="0"/>
        <pt x="315" y="837" on="1"/>
        <pt x="315" y="804" on="0"/>
        <pt x="277" y="761" on="0"/>
        <pt x="250" y="761" on="1"/>
        <pt x="198" y="761" on="0"/>
        <pt x="198" y="814" on="1"/>
      </contour>
    </TTGlyph>
    <TTGlyph name="Igrave" xMin="15" yMin="-5" xMax="368" yMax="898">
      <contour>
        <pt x="368" y="710" on="1"/>
        <pt x="363" y="651" on="1"/>
        <pt x="287" y="644" on="1"/>
        <pt x="273" y="596" on="0"/>
        <pt x="265" y="538" on="1"/>
        <pt x="211" y="167" on="1"/>
        <pt x="202" y="104" on="0"/>
        <pt x="202" y="61" on="1"/>
        <pt x="287" y="54" on="1"/>
        <pt x="272" y="-5" on="1"/>
        <pt x="208" y="0" on="0"/>
        <pt x="129" y="0" on="1"/>
        <pt x="15" y="-5" on="1"/>
        <pt x="17" y="45" on="1"/>
        <pt x="96" y="61" on="1"/>
        <pt x="97" y="65" on="0"/>
        <pt x="102" y="82" on="1"/>
        <pt x="113" y="124" on="0"/>
        <pt x="115" y="137" on="1"/>
        <pt x="178" y="568" on="1"/>
        <pt x="181" y="585" on="0"/>
        <pt x="181" y="644" on="1"/>
        <pt x="108" y="656" on="1"/>
        <pt x="121" y="710" on="1"/>
        <pt x="212" y="705" on="0"/>
        <pt x="232" y="705" on="1"/>
      </contour>
      <contour>
        <pt x="102" y="825" on="1"/>
        <pt x="132" y="898" on="1"/>
        <pt x="354" y="798" on="1"/>
        <pt x="334" y="750" on="1"/>
        <pt x="249" y="787" on="1"/>
      </contour>
    </TTGlyph>
    <TTGlyph name="Imacron" xMin="15" yMin="-5" xMax="421" yMax="834">
      <contour>
        <pt x="408" y="781" on="1"/>
        <pt x="162" y="781" on="1"/>
        <pt x="170" y="834" on="1"/>
        <pt x="421" y="834" on="1"/>
      </contour>
      <contour>
        <pt x="368" y="710" on="1"/>
        <pt x="363" y="651" on="1"/>
        <pt x="287" y="644" on="1"/>
        <pt x="273" y="596" on="0"/>
        <pt x="265" y="538" on="1"/>
        <pt x="211" y="167" on="1"/>
        <pt x="202" y="104" on="0"/>
        <pt x="202" y="61" on="1"/>
        <pt x="287" y="54" on="1"/>
        <pt x="272" y="-5" on="1"/>
        <pt x="208" y="0" on="0"/>
        <pt x="129" y="0" on="1"/>
        <pt x="15" y="-5" on="1"/>
        <pt x="17" y="45" on="1"/>
        <pt x="96" y="61" on="1"/>
        <pt x="97" y="65" on="0"/>
        <pt x="102" y="82" on="1"/>
        <pt x="113" y="124" on="0"/>
        <pt x="115" y="137" on="1"/>
        <pt x="178" y="568" on="1"/>
        <pt x="181" y="585" on="0"/>
        <pt x="181" y="644" on="1"/>
        <pt x="108" y="656" on="1"/>
        <pt x="121" y="710" on="1"/>
        <pt x="212" y="705" on="0"/>
        <pt x="232" y="705" on="1"/>
      </contour>
    </TTGlyph>
    <TTGlyph name="Iogonek" xMin="-30" yMin="-197" xMax="366" yMax="710">
      <contour>
        <pt x="33" y="-110" on="1"/>
        <pt x="33" y="-130" on="0"/>
        <pt x="58" y="-155" on="0"/>
        <pt x="104" y="-155" on="0"/>
        <pt x="136" y="-142" on="1"/>
        <pt x="145" y="-175" on="1"/>
        <pt x="96" y="-197" on="0"/>
        <pt x="18" y="-197" on="0"/>
        <pt x="-30" y="-158" on="0"/>
        <pt x="-30" y="-122" on="1"/>
        <pt x="-30" y="-92" on="0"/>
        <pt x="-11" y="-63" on="0"/>
        <pt x="-3" y="-53" on="0"/>
        <pt x="18" y="-33" on="0"/>
        <pt x="30" y="-22" on="0"/>
        <pt x="46" y="-8" on="1"/>
        <pt x="70" y="13" on="1"/>
        <pt x="89" y="30" on="0"/>
        <pt x="106" y="77" on="0"/>
        <pt x="115" y="135" on="1"/>
        <pt x="115" y="137" on="1"/>
        <pt x="178" y="568" on="1"/>
        <pt x="180" y="585" on="0"/>
        <pt x="180" y="644" on="1"/>
        <pt x="107" y="656" on="1"/>
        <pt x="120" y="710" on="1"/>
        <pt x="212" y="705" on="0"/>
        <pt x="232" y="705" on="1"/>
        <pt x="366" y="710" on="1"/>
        <pt x="361" y="651" on="1"/>
        <pt x="284" y="644" on="1"/>
        <pt x="271" y="599" on="0"/>
        <pt x="261" y="538" on="1"/>
        <pt x="207" y="167" on="1"/>
        <pt x="199" y="111" on="0"/>
        <pt x="199" y="61" on="1"/>
        <pt x="285" y="54" on="1"/>
        <pt x="269" y="-5" on="1"/>
        <pt x="214" y="0" on="0"/>
        <pt x="146" y="0" on="1"/>
        <pt x="98" y="-6" on="0"/>
        <pt x="33" y="-75" on="0"/>
      </contour>
    </TTGlyph>
    <TTGlyph name="Itilde" xMin="15" yMin="-5" xMax="420" yMax="882">
      <contour>
        <pt x="368" y="710" on="1"/>
        <pt x="363" y="651" on="1"/>
        <pt x="287" y="644" on="1"/>
        <pt x="273" y="596" on="0"/>
        <pt x="265" y="538" on="1"/>
        <pt x="211" y="167" on="1"/>
        <pt x="202" y="104" on="0"/>
        <pt x="202" y="61" on="1"/>
        <pt x="287" y="54" on="1"/>
        <pt x="272" y="-5" on="1"/>
        <pt x="208" y="0" on="0"/>
        <pt x="129" y="0" on="1"/>
        <pt x="15" y="-5" on="1"/>
        <pt x="17" y="45" on="1"/>
        <pt x="96" y="61" on="1"/>
        <pt x="97" y="65" on="0"/>
        <pt x="102" y="82" on="1"/>
        <pt x="113" y="124" on="0"/>
        <pt x="115" y="137" on="1"/>
        <pt x="178" y="568" on="1"/>
        <pt x="181" y="585" on="0"/>
        <pt x="181" y="644" on="1"/>
        <pt x="108" y="656" on="1"/>
        <pt x="121" y="710" on="1"/>
        <pt x="212" y="705" on="0"/>
        <pt x="232" y="705" on="1"/>
      </contour>
      <contour>
        <pt x="342" y="763" on="0"/>
        <pt x="306" y="763" on="0"/>
        <pt x="192" y="804" on="0"/>
        <pt x="176" y="804" on="1"/>
        <pt x="149" y="804" on="0"/>
        <pt x="122" y="771" on="1"/>
        <pt x="113" y="760" on="1"/>
        <pt x="81" y="781" on="1"/>
        <pt x="93" y="805" on="0"/>
        <pt x="115" y="829" on="1"/>
        <pt x="154" y="872" on="0"/>
        <pt x="194" y="872" on="0"/>
        <pt x="310" y="831" on="0"/>
        <pt x="326" y="831" on="1"/>
        <pt x="353" y="831" on="0"/>
        <pt x="379" y="869" on="1"/>
        <pt x="388" y="882" on="1"/>
        <pt x="420" y="861" on="1"/>
        <pt x="400" y="825" on="0"/>
      </contour>
    </TTGlyph>
    <TTGlyph name="J" xMin="-18" yMin="-200" xMax="358" yMax="710">
      <contour>
        <pt x="353" y="651" on="1"/>
        <pt x="277" y="644" on="1"/>
        <pt x="263" y="596" on="0"/>
        <pt x="255" y="538" on="1"/>
        <pt x="175" y="-10" on="1"/>
        <pt x="171" y="-40" on="0"/>
        <pt x="13" y="-200" on="1"/>
        <pt x="-18" y="-178" on="1"/>
        <pt x="84" y="-9" on="0"/>
        <pt x="87" y="11" on="1"/>
        <pt x="168" y="568" on="1"/>
        <pt x="171" y="585" on="0"/>
        <pt x="171" y="644" on="1"/>
        <pt x="98" y="656" on="1"/>
        <pt x="111" y="710" on="1"/>
        <pt x="202" y="705" on="0"/>
        <pt x="222" y="705" on="1"/>
        <pt x="358" y="710" on="1"/>
      </contour>
    </TTGlyph>
    <TTGlyph name="Jcircumflex" xMin="-18" yMin="-200" xMax="397" yMax="893">
      <contour>
        <pt x="353" y="651" on="1"/>
        <pt x="277" y="644" on="1"/>
        <pt x="263" y="596" on="0"/>
        <pt x="255" y="538" on="1"/>
        <pt x="175" y="-10" on="1"/>
        <pt x="171" y="-40" on="0"/>
        <pt x="13" y="-200" on="1"/>
        <pt x="-18" y="-178" on="1"/>
        <pt x="84" y="-9" on="0"/>
        <pt x="87" y="11" on="1"/>
        <pt x="168" y="568" on="1"/>
        <pt x="171" y="585" on="0"/>
        <pt x="171" y="644" on="1"/>
        <pt x="98" y="656" on="1"/>
        <pt x="111" y="710" on="1"/>
        <pt x="202" y="705" on="0"/>
        <pt x="222" y="705" on="1"/>
        <pt x="358" y="710" on="1"/>
      </contour>
      <contour>
        <pt x="244" y="893" on="1"/>
        <pt x="397" y="786" on="1"/>
        <pt x="369" y="747" on="1"/>
        <pt x="290" y="788" on="1"/>
        <pt x="233" y="813" on="1"/>
        <pt x="224" y="810" on="0"/>
        <pt x="194" y="798" on="0"/>
        <pt x="172" y="790" on="0"/>
        <pt x="167" y="788" on="1"/>
        <pt x="76" y="747" on="1"/>
        <pt x="60" y="786" on="1"/>
      </contour>
    </TTGlyph>
    <TTGlyph name="K" xMin="9" yMin="-5" xMax="687" yMax="710">
      <contour>
        <pt x="642" y="54" on="1"/>
        <pt x="627" y="-5" on="1"/>
        <pt x="567" y="0" on="0"/>
        <pt x="488" y="0" on="1"/>
        <pt x="365" y="-5" on="1"/>
        <pt x="367" y="45" on="1"/>
        <pt x="426" y="59" on="1"/>
        <pt x="390" y="138" on="0"/>
        <pt x="373" y="164" on="1"/>
        <pt x="242" y="353" on="1"/>
        <pt x="450" y="577" on="1"/>
        <pt x="497" y="645" on="1"/>
        <pt x="447" y="656" on="1"/>
        <pt x="460" y="710" on="1"/>
        <pt x="541" y="705" on="0"/>
        <pt x="562" y="705" on="1"/>
        <pt x="687" y="710" on="1"/>
        <pt x="683" y="651" on="1"/>
        <pt x="609" y="644" on="1"/>
        <pt x="562" y="605" on="0"/>
        <pt x="497" y="546" on="1"/>
        <pt x="343" y="370" on="1"/>
        <pt x="353" y="355" on="0"/>
        <pt x="480" y="176" on="0"/>
        <pt x="512" y="129" on="1"/>
        <pt x="524" y="113" on="0"/>
        <pt x="576" y="61" on="1"/>
      </contour>
      <contour>
        <pt x="362" y="710" on="1"/>
        <pt x="357" y="651" on="1"/>
        <pt x="281" y="644" on="1"/>
        <pt x="267" y="596" on="0"/>
        <pt x="259" y="538" on="1"/>
        <pt x="205" y="167" on="1"/>
        <pt x="196" y="104" on="0"/>
        <pt x="196" y="61" on="1"/>
        <pt x="281" y="54" on="1"/>
        <pt x="266" y="-5" on="1"/>
        <pt x="202" y="0" on="0"/>
        <pt x="123" y="0" on="1"/>
        <pt x="9" y="-5" on="1"/>
        <pt x="12" y="45" on="1"/>
        <pt x="90" y="61" on="1"/>
        <pt x="105" y="111" on="0"/>
        <pt x="110" y="137" on="1"/>
        <pt x="173" y="568" on="1"/>
        <pt x="175" y="585" on="0"/>
        <pt x="175" y="644" on="1"/>
        <pt x="103" y="656" on="1"/>
        <pt x="115" y="710" on="1"/>
        <pt x="206" y="705" on="0"/>
        <pt x="226" y="705" on="1"/>
      </contour>
    </TTGlyph>
    <TTGlyph name="Kcommaaccent" xMin="9" yMin="-259" xMax="687" yMax="710">
      <contour>
        <pt x="642" y="54" on="1"/>
        <pt x="627" y="-5" on="1"/>
        <pt x="567" y="0" on="0"/>
        <pt x="488" y="0" on="1"/>
        <pt x="365" y="-5" on="1"/>
        <pt x="367" y="45" on="1"/>
        <pt x="426" y="59" on="1"/>
        <pt x="390" y="138" on="0"/>
        <pt x="373" y="164" on="1"/>
        <pt x="242" y="353" on="1"/>
        <pt x="450" y="577" on="1"/>
        <pt x="497" y="645" on="1"/>
        <pt x="447" y="656" on="1"/>
        <pt x="460" y="710" on="1"/>
        <pt x="541" y="705" on="0"/>
        <pt x="562" y="705" on="1"/>
        <pt x="687" y="710" on="1"/>
        <pt x="683" y="651" on="1"/>
        <pt x="609" y="644" on="1"/>
        <pt x="562" y="605" on="0"/>
        <pt x="497" y="546" on="1"/>
        <pt x="343" y="370" on="1"/>
        <pt x="353" y="355" on="0"/>
        <pt x="480" y="176" on="0"/>
        <pt x="512" y="129" on="1"/>
        <pt x="524" y="113" on="0"/>
        <pt x="576" y="61" on="1"/>
      </contour>
      <contour>
        <pt x="362" y="710" on="1"/>
        <pt x="357" y="651" on="1"/>
        <pt x="281" y="644" on="1"/>
        <pt x="267" y="596" on="0"/>
        <pt x="259" y="538" on="1"/>
        <pt x="205" y="167" on="1"/>
        <pt x="196" y="104" on="0"/>
        <pt x="196" y="61" on="1"/>
        <pt x="281" y="54" on="1"/>
        <pt x="266" y="-5" on="1"/>
        <pt x="202" y="0" on="0"/>
        <pt x="123" y="0" on="1"/>
        <pt x="9" y="-5" on="1"/>
        <pt x="12" y="45" on="1"/>
        <pt x="90" y="61" on="1"/>
        <pt x="105" y="111" on="0"/>
        <pt x="110" y="137" on="1"/>
        <pt x="173" y="568" on="1"/>
        <pt x="175" y="585" on="0"/>
        <pt x="175" y="644" on="1"/>
        <pt x="103" y="656" on="1"/>
        <pt x="115" y="710" on="1"/>
        <pt x="206" y="705" on="0"/>
        <pt x="226" y="705" on="1"/>
      </contour>
      <contour>
        <pt x="307" y="-168" on="1"/>
        <pt x="282" y="-156" on="0"/>
        <pt x="282" y="-94" on="0"/>
        <pt x="318" y="-58" on="0"/>
        <pt x="340" y="-58" on="1"/>
        <pt x="381" y="-58" on="0"/>
        <pt x="381" y="-109" on="1"/>
        <pt x="381" y="-136" on="0"/>
        <pt x="348" y="-211" on="0"/>
        <pt x="332" y="-235" on="1"/>
        <pt x="315" y="-259" on="1"/>
        <pt x="281" y="-247" on="1"/>
        <pt x="304" y="-194" on="0"/>
      </contour>
    </TTGlyph>
    <TTGlyph name="L" xMin="9" yMin="-5" xMax="498" yMax="710">
      <contour>
        <pt x="196" y="57" on="1"/>
        <pt x="309" y="57" on="1"/>
        <pt x="346" y="57" on="0"/>
        <pt x="395" y="66" on="1"/>
        <pt x="418" y="95" on="0"/>
        <pt x="420" y="103" on="1"/>
        <pt x="439" y="151" on="0"/>
        <pt x="444" y="170" on="1"/>
        <pt x="498" y="165" on="1"/>
        <pt x="461" y="14" on="1"/>
        <pt x="440" y="-4" on="1"/>
        <pt x="349" y="0" on="0"/>
        <pt x="330" y="0" on="1"/>
        <pt x="123" y="0" on="1"/>
        <pt x="9" y="-5" on="1"/>
        <pt x="11" y="45" on="1"/>
        <pt x="90" y="61" on="1"/>
        <pt x="105" y="111" on="0"/>
        <pt x="110" y="137" on="1"/>
        <pt x="173" y="568" on="1"/>
        <pt x="175" y="585" on="0"/>
        <pt x="175" y="644" on="1"/>
        <pt x="102" y="656" on="1"/>
        <pt x="115" y="710" on="1"/>
        <pt x="206" y="705" on="0"/>
        <pt x="226" y="705" on="1"/>
        <pt x="362" y="710" on="1"/>
        <pt x="358" y="651" on="1"/>
        <pt x="281" y="644" on="1"/>
        <pt x="267" y="596" on="0"/>
        <pt x="259" y="538" on="1"/>
        <pt x="205" y="167" on="1"/>
        <pt x="196" y="106" on="0"/>
      </contour>
    </TTGlyph>
    <TTGlyph name="Lacute" xMin="9" yMin="-5" xMax="498" yMax="898">
      <contour>
        <pt x="196" y="57" on="1"/>
        <pt x="309" y="57" on="1"/>
        <pt x="346" y="57" on="0"/>
        <pt x="395" y="66" on="1"/>
        <pt x="418" y="95" on="0"/>
        <pt x="420" y="103" on="1"/>
        <pt x="439" y="151" on="0"/>
        <pt x="444" y="170" on="1"/>
        <pt x="498" y="165" on="1"/>
        <pt x="461" y="14" on="1"/>
        <pt x="440" y="-4" on="1"/>
        <pt x="349" y="0" on="0"/>
        <pt x="330" y="0" on="1"/>
        <pt x="123" y="0" on="1"/>
        <pt x="9" y="-5" on="1"/>
        <pt x="11" y="45" on="1"/>
        <pt x="90" y="61" on="1"/>
        <pt x="105" y="111" on="0"/>
        <pt x="110" y="137" on="1"/>
        <pt x="173" y="568" on="1"/>
        <pt x="175" y="585" on="0"/>
        <pt x="175" y="644" on="1"/>
        <pt x="102" y="656" on="1"/>
        <pt x="115" y="710" on="1"/>
        <pt x="206" y="705" on="0"/>
        <pt x="226" y="705" on="1"/>
        <pt x="362" y="710" on="1"/>
        <pt x="358" y="651" on="1"/>
        <pt x="281" y="644" on="1"/>
        <pt x="267" y="596" on="0"/>
        <pt x="259" y="538" on="1"/>
        <pt x="205" y="167" on="1"/>
        <pt x="196" y="106" on="0"/>
      </contour>
      <contour>
        <pt x="358" y="898" on="1"/>
        <pt x="387" y="825" on="1"/>
        <pt x="259" y="793" on="0"/>
        <pt x="240" y="787" on="1"/>
        <pt x="155" y="750" on="1"/>
        <pt x="135" y="798" on="1"/>
      </contour>
    </TTGlyph>
    <TTGlyph name="Lcaron" xMin="9" yMin="-5" xMax="513" yMax="710">
      <contour>
        <pt x="427" y="607" on="1"/>
        <pt x="513" y="607" on="1"/>
        <pt x="464" y="364" on="1"/>
        <pt x="409" y="367" on="1"/>
        <pt x="423" y="461" on="1"/>
      </contour>
      <contour>
        <pt x="196" y="57" on="1"/>
        <pt x="309" y="57" on="1"/>
        <pt x="346" y="57" on="0"/>
        <pt x="395" y="66" on="1"/>
        <pt x="418" y="95" on="0"/>
        <pt x="420" y="103" on="1"/>
        <pt x="439" y="151" on="0"/>
        <pt x="444" y="170" on="1"/>
        <pt x="498" y="165" on="1"/>
        <pt x="461" y="14" on="1"/>
        <pt x="440" y="-4" on="1"/>
        <pt x="349" y="0" on="0"/>
        <pt x="330" y="0" on="1"/>
        <pt x="123" y="0" on="1"/>
        <pt x="9" y="-5" on="1"/>
        <pt x="11" y="45" on="1"/>
        <pt x="90" y="61" on="1"/>
        <pt x="105" y="111" on="0"/>
        <pt x="110" y="137" on="1"/>
        <pt x="173" y="568" on="1"/>
        <pt x="175" y="585" on="0"/>
        <pt x="175" y="644" on="1"/>
        <pt x="102" y="656" on="1"/>
        <pt x="115" y="710" on="1"/>
        <pt x="206" y="705" on="0"/>
        <pt x="226" y="705" on="1"/>
        <pt x="362" y="710" on="1"/>
        <pt x="358" y="651" on="1"/>
        <pt x="281" y="644" on="1"/>
        <pt x="267" y="596" on="0"/>
        <pt x="259" y="538" on="1"/>
        <pt x="205" y="167" on="1"/>
        <pt x="196" y="106" on="0"/>
      </contour>
    </TTGlyph>
    <TTGlyph name="Lcommaaccent" xMin="9" yMin="-259" xMax="498" yMax="710">
      <contour>
        <pt x="196" y="57" on="1"/>
        <pt x="309" y="57" on="1"/>
        <pt x="346" y="57" on="0"/>
        <pt x="395" y="66" on="1"/>
        <pt x="418" y="95" on="0"/>
        <pt x="420" y="103" on="1"/>
        <pt x="439" y="151" on="0"/>
        <pt x="444" y="170" on="1"/>
        <pt x="498" y="165" on="1"/>
        <pt x="461" y="14" on="1"/>
        <pt x="440" y="-4" on="1"/>
        <pt x="349" y="0" on="0"/>
        <pt x="330" y="0" on="1"/>
        <pt x="123" y="0" on="1"/>
        <pt x="9" y="-5" on="1"/>
        <pt x="11" y="45" on="1"/>
        <pt x="90" y="61" on="1"/>
        <pt x="105" y="111" on="0"/>
        <pt x="110" y="137" on="1"/>
        <pt x="173" y="568" on="1"/>
        <pt x="175" y="585" on="0"/>
        <pt x="175" y="644" on="1"/>
        <pt x="102" y="656" on="1"/>
        <pt x="115" y="710" on="1"/>
        <pt x="206" y="705" on="0"/>
        <pt x="226" y="705" on="1"/>
        <pt x="362" y="710" on="1"/>
        <pt x="358" y="651" on="1"/>
        <pt x="281" y="644" on="1"/>
        <pt x="267" y="596" on="0"/>
        <pt x="259" y="538" on="1"/>
        <pt x="205" y="167" on="1"/>
        <pt x="196" y="106" on="0"/>
      </contour>
      <contour>
        <pt x="239" y="-168" on="1"/>
        <pt x="214" y="-156" on="0"/>
        <pt x="214" y="-94" on="0"/>
        <pt x="250" y="-58" on="0"/>
        <pt x="272" y="-58" on="1"/>
        <pt x="313" y="-58" on="0"/>
        <pt x="313" y="-109" on="1"/>
        <pt x="313" y="-136" on="0"/>
        <pt x="280" y="-211" on="0"/>
        <pt x="264" y="-235" on="1"/>
        <pt x="247" y="-259" on="1"/>
        <pt x="213" y="-247" on="1"/>
        <pt x="236" y="-194" on="0"/>
      </contour>
    </TTGlyph>
    <TTGlyph name="Ldot" xMin="9" yMin="-5" xMax="498" yMax="710">
      <contour>
        <pt x="367" y="434" on="0"/>
        <pt x="408" y="480" on="0"/>
        <pt x="437" y="480" on="1"/>
        <pt x="494" y="480" on="0"/>
        <pt x="494" y="423" on="1"/>
        <pt x="494" y="387" on="0"/>
        <pt x="454" y="341" on="0"/>
        <pt x="395" y="341" on="0"/>
        <pt x="367" y="372" on="0"/>
      </contour>
      <contour>
        <pt x="196" y="57" on="1"/>
        <pt x="309" y="57" on="1"/>
        <pt x="346" y="57" on="0"/>
        <pt x="395" y="66" on="1"/>
        <pt x="418" y="95" on="0"/>
        <pt x="420" y="103" on="1"/>
        <pt x="439" y="151" on="0"/>
        <pt x="444" y="170" on="1"/>
        <pt x="498" y="165" on="1"/>
        <pt x="461" y="14" on="1"/>
        <pt x="440" y="-4" on="1"/>
        <pt x="349" y="0" on="0"/>
        <pt x="330" y="0" on="1"/>
        <pt x="123" y="0" on="1"/>
        <pt x="9" y="-5" on="1"/>
        <pt x="11" y="45" on="1"/>
        <pt x="90" y="61" on="1"/>
        <pt x="105" y="111" on="0"/>
        <pt x="110" y="137" on="1"/>
        <pt x="173" y="568" on="1"/>
        <pt x="175" y="585" on="0"/>
        <pt x="175" y="644" on="1"/>
        <pt x="102" y="656" on="1"/>
        <pt x="115" y="710" on="1"/>
        <pt x="206" y="705" on="0"/>
        <pt x="226" y="705" on="1"/>
        <pt x="362" y="710" on="1"/>
        <pt x="358" y="651" on="1"/>
        <pt x="281" y="644" on="1"/>
        <pt x="267" y="596" on="0"/>
        <pt x="259" y="538" on="1"/>
        <pt x="205" y="167" on="1"/>
        <pt x="196" y="106" on="0"/>
      </contour>
    </TTGlyph>
    <TTGlyph name="Lslash" xMin="9" yMin="-5" xMax="498" yMax="710">
      <contour>
        <pt x="196" y="57" on="1"/>
        <pt x="309" y="57" on="1"/>
        <pt x="346" y="57" on="0"/>
        <pt x="395" y="66" on="1"/>
        <pt x="418" y="95" on="0"/>
        <pt x="420" y="103" on="1"/>
        <pt x="439" y="151" on="0"/>
        <pt x="444" y="170" on="1"/>
        <pt x="498" y="165" on="1"/>
        <pt x="461" y="14" on="1"/>
        <pt x="440" y="-4" on="1"/>
        <pt x="349" y="0" on="0"/>
        <pt x="330" y="0" on="1"/>
        <pt x="123" y="0" on="1"/>
        <pt x="9" y="-5" on="1"/>
        <pt x="11" y="45" on="1"/>
        <pt x="90" y="61" on="1"/>
        <pt x="105" y="111" on="0"/>
        <pt x="110" y="137" on="1"/>
        <pt x="142" y="356" on="1"/>
        <pt x="93" y="339" on="1"/>
        <pt x="84" y="380" on="1"/>
        <pt x="149" y="403" on="1"/>
        <pt x="173" y="568" on="1"/>
        <pt x="175" y="585" on="0"/>
        <pt x="175" y="644" on="1"/>
        <pt x="102" y="656" on="1"/>
        <pt x="115" y="710" on="1"/>
        <pt x="206" y="705" on="0"/>
        <pt x="226" y="705" on="1"/>
        <pt x="362" y="710" on="1"/>
        <pt x="358" y="651" on="1"/>
        <pt x="281" y="644" on="1"/>
        <pt x="267" y="596" on="0"/>
        <pt x="259" y="538" on="1"/>
        <pt x="244" y="437" on="1"/>
        <pt x="422" y="500" on="1"/>
        <pt x="431" y="459" on="1"/>
        <pt x="237" y="390" on="1"/>
        <pt x="205" y="167" on="1"/>
        <pt x="196" y="106" on="0"/>
      </contour>
    </TTGlyph>
    <TTGlyph name="M" xMin="-5" yMin="-5" xMax="899" yMax="710">
      <contour>
        <pt x="720" y="705" on="1"/>
        <pt x="748" y="705" on="1"/>
        <pt x="899" y="710" on="1"/>
        <pt x="894" y="651" on="1"/>
        <pt x="816" y="644" on="1"/>
        <pt x="808" y="620" on="0"/>
        <pt x="802" y="569" on="1"/>
        <pt x="771" y="132" on="1"/>
        <pt x="776" y="61" on="1"/>
        <pt x="853" y="54" on="1"/>
        <pt x="839" y="-5" on="1"/>
        <pt x="775" y="0" on="0"/>
        <pt x="696" y="0" on="1"/>
        <pt x="581" y="-5" on="1"/>
        <pt x="583" y="45" on="1"/>
        <pt x="661" y="61" on="1"/>
        <pt x="679" y="153" on="0"/>
        <pt x="681" y="162" on="1"/>
        <pt x="716" y="584" on="1"/>
        <pt x="420" y="0" on="1"/>
        <pt x="383" y="0" on="1"/>
        <pt x="257" y="584" on="1"/>
        <pt x="173" y="162" on="1"/>
        <pt x="166" y="116" on="0"/>
        <pt x="163" y="61" on="1"/>
        <pt x="240" y="54" on="1"/>
        <pt x="224" y="-5" on="1"/>
        <pt x="176" y="0" on="0"/>
        <pt x="99" y="0" on="1"/>
        <pt x="-5" y="-5" on="1"/>
        <pt x="-3" y="45" on="1"/>
        <pt x="75" y="61" on="1"/>
        <pt x="97" y="118" on="0"/>
        <pt x="101" y="132" on="1"/>
        <pt x="191" y="569" on="1"/>
        <pt x="198" y="644" on="1"/>
        <pt x="120" y="656" on="1"/>
        <pt x="133" y="710" on="1"/>
        <pt x="265" y="706" on="1"/>
        <pt x="323" y="706" on="1"/>
        <pt x="338" y="685" on="1"/>
        <pt x="360" y="553" on="0"/>
        <pt x="366" y="529" on="1"/>
        <pt x="442" y="175" on="1"/>
        <pt x="625" y="537" on="1"/>
        <pt x="698" y="685" on="1"/>
      </contour>
    </TTGlyph>
    <TTGlyph name="N" xMin="9" yMin="-7" xMax="788" yMax="710">
      <contour>
        <pt x="788" y="710" on="1"/>
        <pt x="785" y="657" on="1"/>
        <pt x="707" y="641" on="1"/>
        <pt x="683" y="577" on="0"/>
        <pt x="676" y="528" on="1"/>
        <pt x="597" y="-7" on="1"/>
        <pt x="535" y="-7" on="1"/>
        <pt x="238" y="556" on="1"/>
        <pt x="182" y="167" on="1"/>
        <pt x="173" y="113" on="0"/>
        <pt x="173" y="61" on="1"/>
        <pt x="250" y="54" on="1"/>
        <pt x="234" y="-5" on="1"/>
        <pt x="193" y="0" on="0"/>
        <pt x="114" y="0" on="1"/>
        <pt x="9" y="-5" on="1"/>
        <pt x="11" y="45" on="1"/>
        <pt x="90" y="61" on="1"/>
        <pt x="105" y="111" on="0"/>
        <pt x="110" y="137" on="1"/>
        <pt x="173" y="568" on="1"/>
        <pt x="175" y="584" on="0"/>
        <pt x="175" y="644" on="1"/>
        <pt x="100" y="656" on="1"/>
        <pt x="112" y="710" on="1"/>
        <pt x="203" y="705" on="0"/>
        <pt x="224" y="705" on="1"/>
        <pt x="269" y="706" on="1"/>
        <pt x="285" y="685" on="1"/>
        <pt x="345" y="552" on="0"/>
        <pt x="356" y="530" on="1"/>
        <pt x="555" y="163" on="1"/>
        <pt x="613" y="558" on="1"/>
        <pt x="616" y="582" on="0"/>
        <pt x="616" y="641" on="1"/>
        <pt x="541" y="647" on="1"/>
        <pt x="555" y="707" on="1"/>
        <pt x="635" y="705" on="1"/>
      </contour>
    </TTGlyph>
    <TTGlyph name="Nacute" xMin="9" yMin="-7" xMax="788" yMax="898">
      <contour>
        <pt x="788" y="710" on="1"/>
        <pt x="785" y="657" on="1"/>
        <pt x="707" y="641" on="1"/>
        <pt x="683" y="577" on="0"/>
        <pt x="676" y="528" on="1"/>
        <pt x="597" y="-7" on="1"/>
        <pt x="535" y="-7" on="1"/>
        <pt x="238" y="556" on="1"/>
        <pt x="182" y="167" on="1"/>
        <pt x="173" y="113" on="0"/>
        <pt x="173" y="61" on="1"/>
        <pt x="250" y="54" on="1"/>
        <pt x="234" y="-5" on="1"/>
        <pt x="193" y="0" on="0"/>
        <pt x="114" y="0" on="1"/>
        <pt x="9" y="-5" on="1"/>
        <pt x="11" y="45" on="1"/>
        <pt x="90" y="61" on="1"/>
        <pt x="105" y="111" on="0"/>
        <pt x="110" y="137" on="1"/>
        <pt x="173" y="568" on="1"/>
        <pt x="175" y="584" on="0"/>
        <pt x="175" y="644" on="1"/>
        <pt x="100" y="656" on="1"/>
        <pt x="112" y="710" on="1"/>
        <pt x="203" y="705" on="0"/>
        <pt x="224" y="705" on="1"/>
        <pt x="269" y="706" on="1"/>
        <pt x="285" y="685" on="1"/>
        <pt x="345" y="552" on="0"/>
        <pt x="356" y="530" on="1"/>
        <pt x="555" y="163" on="1"/>
        <pt x="613" y="558" on="1"/>
        <pt x="616" y="582" on="0"/>
        <pt x="616" y="641" on="1"/>
        <pt x="541" y="647" on="1"/>
        <pt x="555" y="707" on="1"/>
        <pt x="635" y="705" on="1"/>
      </contour>
      <contour>
        <pt x="545" y="898" on="1"/>
        <pt x="574" y="825" on="1"/>
        <pt x="446" y="793" on="0"/>
        <pt x="427" y="787" on="1"/>
        <pt x="342" y="750" on="1"/>
        <pt x="322" y="798" on="1"/>
      </contour>
    </TTGlyph>
    <TTGlyph name="Ncaron" xMin="9" yMin="-7" xMax="788" yMax="893">
      <contour>
        <pt x="788" y="710" on="1"/>
        <pt x="785" y="657" on="1"/>
        <pt x="707" y="641" on="1"/>
        <pt x="683" y="577" on="0"/>
        <pt x="676" y="528" on="1"/>
        <pt x="597" y="-7" on="1"/>
        <pt x="535" y="-7" on="1"/>
        <pt x="238" y="556" on="1"/>
        <pt x="182" y="167" on="1"/>
        <pt x="173" y="113" on="0"/>
        <pt x="173" y="61" on="1"/>
        <pt x="250" y="54" on="1"/>
        <pt x="234" y="-5" on="1"/>
        <pt x="193" y="0" on="0"/>
        <pt x="114" y="0" on="1"/>
        <pt x="9" y="-5" on="1"/>
        <pt x="11" y="45" on="1"/>
        <pt x="90" y="61" on="1"/>
        <pt x="105" y="111" on="0"/>
        <pt x="110" y="137" on="1"/>
        <pt x="173" y="568" on="1"/>
        <pt x="175" y="584" on="0"/>
        <pt x="175" y="644" on="1"/>
        <pt x="100" y="656" on="1"/>
        <pt x="112" y="710" on="1"/>
        <pt x="203" y="705" on="0"/>
        <pt x="224" y="705" on="1"/>
        <pt x="269" y="706" on="1"/>
        <pt x="285" y="685" on="1"/>
        <pt x="345" y="552" on="0"/>
        <pt x="356" y="530" on="1"/>
        <pt x="555" y="163" on="1"/>
        <pt x="613" y="558" on="1"/>
        <pt x="616" y="582" on="0"/>
        <pt x="616" y="641" on="1"/>
        <pt x="541" y="647" on="1"/>
        <pt x="555" y="707" on="1"/>
        <pt x="635" y="705" on="1"/>
      </contour>
      <contour>
        <pt x="589" y="893" on="1"/>
        <pt x="606" y="854" on="1"/>
        <pt x="422" y="747" on="1"/>
        <pt x="269" y="854" on="1"/>
        <pt x="296" y="893" on="1"/>
        <pt x="376" y="852" on="1"/>
        <pt x="434" y="827" on="1"/>
        <pt x="478" y="845" on="0"/>
        <pt x="499" y="852" on="1"/>
      </contour>
    </TTGlyph>
    <TTGlyph name="Ncommaaccent" xMin="9" yMin="-259" xMax="788" yMax="710">
      <contour>
        <pt x="788" y="710" on="1"/>
        <pt x="785" y="657" on="1"/>
        <pt x="707" y="641" on="1"/>
        <pt x="683" y="577" on="0"/>
        <pt x="676" y="528" on="1"/>
        <pt x="597" y="-7" on="1"/>
        <pt x="535" y="-7" on="1"/>
        <pt x="238" y="556" on="1"/>
        <pt x="182" y="167" on="1"/>
        <pt x="173" y="113" on="0"/>
        <pt x="173" y="61" on="1"/>
        <pt x="250" y="54" on="1"/>
        <pt x="234" y="-5" on="1"/>
        <pt x="193" y="0" on="0"/>
        <pt x="114" y="0" on="1"/>
        <pt x="9" y="-5" on="1"/>
        <pt x="11" y="45" on="1"/>
        <pt x="90" y="61" on="1"/>
        <pt x="105" y="111" on="0"/>
        <pt x="110" y="137" on="1"/>
        <pt x="173" y="568" on="1"/>
        <pt x="175" y="584" on="0"/>
        <pt x="175" y="644" on="1"/>
        <pt x="100" y="656" on="1"/>
        <pt x="112" y="710" on="1"/>
        <pt x="203" y="705" on="0"/>
        <pt x="224" y="705" on="1"/>
        <pt x="269" y="706" on="1"/>
        <pt x="285" y="685" on="1"/>
        <pt x="345" y="552" on="0"/>
        <pt x="356" y="530" on="1"/>
        <pt x="555" y="163" on="1"/>
        <pt x="613" y="558" on="1"/>
        <pt x="616" y="582" on="0"/>
        <pt x="616" y="641" on="1"/>
        <pt x="541" y="647" on="1"/>
        <pt x="555" y="707" on="1"/>
        <pt x="635" y="705" on="1"/>
      </contour>
      <contour>
        <pt x="327" y="-168" on="1"/>
        <pt x="302" y="-156" on="0"/>
        <pt x="302" y="-94" on="0"/>
        <pt x="338" y="-58" on="0"/>
        <pt x="360" y="-58" on="1"/>
        <pt x="401" y="-58" on="0"/>
        <pt x="401" y="-109" on="1"/>
        <pt x="401" y="-136" on="0"/>
        <pt x="368" y="-211" on="0"/>
        <pt x="352" y="-235" on="1"/>
        <pt x="335" y="-259" on="1"/>
        <pt x="301" y="-247" on="1"/>
        <pt x="324" y="-194" on="0"/>
      </contour>
    </TTGlyph>
    <TTGlyph name="Ntilde" xMin="9" yMin="-7" xMax="788" yMax="882">
      <contour>
        <pt x="788" y="710" on="1"/>
        <pt x="785" y="657" on="1"/>
        <pt x="707" y="641" on="1"/>
        <pt x="683" y="577" on="0"/>
        <pt x="676" y="528" on="1"/>
        <pt x="597" y="-7" on="1"/>
        <pt x="535" y="-7" on="1"/>
        <pt x="238" y="556" on="1"/>
        <pt x="182" y="167" on="1"/>
        <pt x="173" y="113" on="0"/>
        <pt x="173" y="61" on="1"/>
        <pt x="250" y="54" on="1"/>
        <pt x="234" y="-5" on="1"/>
        <pt x="193" y="0" on="0"/>
        <pt x="114" y="0" on="1"/>
        <pt x="9" y="-5" on="1"/>
        <pt x="11" y="45" on="1"/>
        <pt x="90" y="61" on="1"/>
        <pt x="105" y="111" on="0"/>
        <pt x="110" y="137" on="1"/>
        <pt x="173" y="568" on="1"/>
        <pt x="175" y="584" on="0"/>
        <pt x="175" y="644" on="1"/>
        <pt x="100" y="656" on="1"/>
        <pt x="112" y="710" on="1"/>
        <pt x="203" y="705" on="0"/>
        <pt x="224" y="705" on="1"/>
        <pt x="269" y="706" on="1"/>
        <pt x="285" y="685" on="1"/>
        <pt x="345" y="552" on="0"/>
        <pt x="356" y="530" on="1"/>
        <pt x="555" y="163" on="1"/>
        <pt x="613" y="558" on="1"/>
        <pt x="616" y="582" on="0"/>
        <pt x="616" y="641" on="1"/>
        <pt x="541" y="647" on="1"/>
        <pt x="555" y="707" on="1"/>
        <pt x="635" y="705" on="1"/>
      </contour>
      <contour>
        <pt x="525" y="763" on="0"/>
        <pt x="488" y="763" on="0"/>
        <pt x="374" y="804" on="0"/>
        <pt x="358" y="804" on="1"/>
        <pt x="332" y="804" on="0"/>
        <pt x="305" y="771" on="1"/>
        <pt x="296" y="760" on="1"/>
        <pt x="264" y="781" on="1"/>
        <pt x="276" y="805" on="0"/>
        <pt x="298" y="829" on="1"/>
        <pt x="337" y="872" on="0"/>
        <pt x="378" y="872" on="0"/>
        <pt x="492" y="831" on="0"/>
        <pt x="508" y="831" on="1"/>
        <pt x="536" y="831" on="0"/>
        <pt x="562" y="869" on="1"/>
        <pt x="571" y="882" on="1"/>
        <pt x="603" y="861" on="1"/>
        <pt x="583" y="825" on="0"/>
      </contour>
    </TTGlyph>
    <TTGlyph name="O" xMin="49" yMin="-15" xMax="701" yMax="720">
      <contour>
        <pt x="701" y="420" on="1"/>
        <pt x="701" y="229" on="0"/>
        <pt x="502" y="-15" on="0"/>
        <pt x="324" y="-15" on="1"/>
        <pt x="191" y="-15" on="0"/>
        <pt x="49" y="147" on="0"/>
        <pt x="49" y="284" on="1"/>
        <pt x="49" y="476" on="0"/>
        <pt x="248" y="720" on="0"/>
        <pt x="426" y="720" on="1"/>
        <pt x="559" y="720" on="0"/>
        <pt x="701" y="557" on="0"/>
      </contour>
      <contour>
        <pt x="215" y="556" on="0"/>
        <pt x="156" y="384" on="0"/>
        <pt x="156" y="174" on="0"/>
        <pt x="244" y="38" on="0"/>
        <pt x="411" y="38" on="0"/>
        <pt x="534" y="148" on="0"/>
        <pt x="594" y="320" on="0"/>
        <pt x="594" y="531" on="0"/>
        <pt x="507" y="667" on="0"/>
        <pt x="338" y="667" on="0"/>
      </contour>
    </TTGlyph>
    <TTGlyph name="OE" xMin="49" yMin="-15" xMax="953" yMax="720">
      <contour>
        <pt x="734" y="0" on="1"/>
        <pt x="504" y="0" on="1"/>
        <pt x="475" y="0" on="0"/>
        <pt x="415" y="-4" on="1"/>
        <pt x="368" y="-15" on="0"/>
        <pt x="320" y="-15" on="1"/>
        <pt x="187" y="-15" on="0"/>
        <pt x="49" y="146" on="0"/>
        <pt x="49" y="283" on="1"/>
        <pt x="49" y="475" on="0"/>
        <pt x="249" y="720" on="0"/>
        <pt x="427" y="720" on="1"/>
        <pt x="475" y="720" on="0"/>
        <pt x="519" y="709" on="1"/>
        <pt x="577" y="705" on="0"/>
        <pt x="607" y="705" on="1"/>
        <pt x="825" y="705" on="1"/>
        <pt x="936" y="715" on="1"/>
        <pt x="953" y="697" on="1"/>
        <pt x="939" y="561" on="1"/>
        <pt x="882" y="556" on="1"/>
        <pt x="882" y="588" on="0"/>
        <pt x="879" y="621" on="0"/>
        <pt x="865" y="644" on="1"/>
        <pt x="813" y="649" on="0"/>
        <pt x="787" y="649" on="1"/>
        <pt x="660" y="649" on="1"/>
        <pt x="648" y="602" on="0"/>
        <pt x="637" y="538" on="1"/>
        <pt x="616" y="394" on="1"/>
        <pt x="648" y="392" on="0"/>
        <pt x="657" y="392" on="1"/>
        <pt x="728" y="392" on="1"/>
        <pt x="787" y="401" on="1"/>
        <pt x="806" y="467" on="1"/>
        <pt x="850" y="462" on="1"/>
        <pt x="838" y="382" on="1"/>
        <pt x="825" y="273" on="1"/>
        <pt x="777" y="267" on="1"/>
        <pt x="778" y="334" on="1"/>
        <pt x="721" y="340" on="0"/>
        <pt x="702" y="340" on="1"/>
        <pt x="650" y="340" on="1"/>
        <pt x="632" y="340" on="0"/>
        <pt x="608" y="337" on="1"/>
        <pt x="583" y="167" on="1"/>
        <pt x="576" y="109" on="0"/>
        <pt x="573" y="57" on="1"/>
        <pt x="713" y="57" on="1"/>
        <pt x="750" y="57" on="0"/>
        <pt x="799" y="66" on="1"/>
        <pt x="821" y="92" on="0"/>
        <pt x="827" y="109" on="0"/>
        <pt x="846" y="161" on="0"/>
        <pt x="849" y="170" on="1"/>
        <pt x="902" y="165" on="1"/>
        <pt x="865" y="14" on="1"/>
        <pt x="844" y="-4" on="1"/>
        <pt x="754" y="0" on="0"/>
      </contour>
      <contour>
        <pt x="557" y="595" on="1"/>
        <pt x="508" y="667" on="0"/>
        <pt x="336" y="667" on="0"/>
        <pt x="212" y="556" on="0"/>
        <pt x="153" y="385" on="0"/>
        <pt x="153" y="174" on="0"/>
        <pt x="241" y="38" on="0"/>
        <pt x="419" y="38" on="0"/>
        <pt x="486" y="108" on="1"/>
      </contour>
    </TTGlyph>
    <TTGlyph name="Oacute" xMin="49" yMin="-15" xMax="701" yMax="898">
      <contour>
        <pt x="701" y="420" on="1"/>
        <pt x="701" y="229" on="0"/>
        <pt x="502" y="-15" on="0"/>
        <pt x="324" y="-15" on="1"/>
        <pt x="191" y="-15" on="0"/>
        <pt x="49" y="147" on="0"/>
        <pt x="49" y="284" on="1"/>
        <pt x="49" y="476" on="0"/>
        <pt x="248" y="720" on="0"/>
        <pt x="426" y="720" on="1"/>
        <pt x="559" y="720" on="0"/>
        <pt x="701" y="557" on="0"/>
      </contour>
      <contour>
        <pt x="215" y="556" on="0"/>
        <pt x="156" y="384" on="0"/>
        <pt x="156" y="174" on="0"/>
        <pt x="244" y="38" on="0"/>
        <pt x="411" y="38" on="0"/>
        <pt x="534" y="148" on="0"/>
        <pt x="594" y="320" on="0"/>
        <pt x="594" y="531" on="0"/>
        <pt x="507" y="667" on="0"/>
        <pt x="338" y="667" on="0"/>
      </contour>
      <contour>
        <pt x="535" y="898" on="1"/>
        <pt x="564" y="825" on="1"/>
        <pt x="436" y="793" on="0"/>
        <pt x="417" y="787" on="1"/>
        <pt x="332" y="750" on="1"/>
        <pt x="312" y="798" on="1"/>
      </contour>
    </TTGlyph>
    <TTGlyph name="Obreve" xMin="49" yMin="-15" xMax="701" yMax="898">
      <contour>
        <pt x="701" y="420" on="1"/>
        <pt x="701" y="229" on="0"/>
        <pt x="502" y="-15" on="0"/>
        <pt x="324" y="-15" on="1"/>
        <pt x="191" y="-15" on="0"/>
        <pt x="49" y="147" on="0"/>
        <pt x="49" y="284" on="1"/>
        <pt x="49" y="476" on="0"/>
        <pt x="248" y="720" on="0"/>
        <pt x="426" y="720" on="1"/>
        <pt x="559" y="720" on="0"/>
        <pt x="701" y="557" on="0"/>
      </contour>
      <contour>
        <pt x="215" y="556" on="0"/>
        <pt x="156" y="384" on="0"/>
        <pt x="156" y="174" on="0"/>
        <pt x="244" y="38" on="0"/>
        <pt x="411" y="38" on="0"/>
        <pt x="534" y="148" on="0"/>
        <pt x="594" y="320" on="0"/>
        <pt x="594" y="531" on="0"/>
        <pt x="507" y="667" on="0"/>
        <pt x="338" y="667" on="0"/>
      </contour>
      <contour>
        <pt x="577" y="830" on="0"/>
        <pt x="498" y="758" on="0"/>
        <pt x="367" y="758" on="0"/>
        <pt x="338" y="794" on="1"/>
        <pt x="315" y="821" on="0"/>
        <pt x="315" y="866" on="1"/>
        <pt x="315" y="881" on="0"/>
        <pt x="318" y="898" on="1"/>
        <pt x="372" y="898" on="1"/>
        <pt x="371" y="890" on="0"/>
        <pt x="371" y="883" on="1"/>
        <pt x="371" y="855" on="0"/>
        <pt x="404" y="814" on="0"/>
        <pt x="477" y="814" on="0"/>
        <pt x="528" y="860" on="0"/>
        <pt x="533" y="898" on="1"/>
        <pt x="587" y="898" on="1"/>
      </contour>
    </TTGlyph>
    <TTGlyph name="Ocircumflex" xMin="49" yMin="-15" xMax="701" yMax="893">
      <contour>
        <pt x="701" y="420" on="1"/>
        <pt x="701" y="229" on="0"/>
        <pt x="502" y="-15" on="0"/>
        <pt x="324" y="-15" on="1"/>
        <pt x="191" y="-15" on="0"/>
        <pt x="49" y="147" on="0"/>
        <pt x="49" y="284" on="1"/>
        <pt x="49" y="476" on="0"/>
        <pt x="248" y="720" on="0"/>
        <pt x="426" y="720" on="1"/>
        <pt x="559" y="720" on="0"/>
        <pt x="701" y="557" on="0"/>
      </contour>
      <contour>
        <pt x="215" y="556" on="0"/>
        <pt x="156" y="384" on="0"/>
        <pt x="156" y="174" on="0"/>
        <pt x="244" y="38" on="0"/>
        <pt x="411" y="38" on="0"/>
        <pt x="534" y="148" on="0"/>
        <pt x="594" y="320" on="0"/>
        <pt x="594" y="531" on="0"/>
        <pt x="507" y="667" on="0"/>
        <pt x="338" y="667" on="0"/>
      </contour>
      <contour>
        <pt x="432" y="893" on="1"/>
        <pt x="585" y="786" on="1"/>
        <pt x="557" y="747" on="1"/>
        <pt x="478" y="788" on="1"/>
        <pt x="421" y="813" on="1"/>
        <pt x="412" y="810" on="0"/>
        <pt x="382" y="798" on="0"/>
        <pt x="360" y="790" on="0"/>
        <pt x="355" y="788" on="1"/>
        <pt x="264" y="747" on="1"/>
        <pt x="248" y="786" on="1"/>
      </contour>
    </TTGlyph>
    <TTGlyph name="Odieresis" xMin="49" yMin="-15" xMax="701" yMax="884">
      <contour>
        <pt x="701" y="420" on="1"/>
        <pt x="701" y="229" on="0"/>
        <pt x="502" y="-15" on="0"/>
        <pt x="324" y="-15" on="1"/>
        <pt x="191" y="-15" on="0"/>
        <pt x="49" y="147" on="0"/>
        <pt x="49" y="284" on="1"/>
        <pt x="49" y="476" on="0"/>
        <pt x="248" y="720" on="0"/>
        <pt x="426" y="720" on="1"/>
        <pt x="559" y="720" on="0"/>
        <pt x="701" y="557" on="0"/>
      </contour>
      <contour>
        <pt x="215" y="556" on="0"/>
        <pt x="156" y="384" on="0"/>
        <pt x="156" y="174" on="0"/>
        <pt x="244" y="38" on="0"/>
        <pt x="411" y="38" on="0"/>
        <pt x="534" y="148" on="0"/>
        <pt x="594" y="320" on="0"/>
        <pt x="594" y="531" on="0"/>
        <pt x="507" y="667" on="0"/>
        <pt x="338" y="667" on="0"/>
      </contour>
      <contour>
        <pt x="545" y="884" on="1"/>
        <pt x="590" y="884" on="0"/>
        <pt x="590" y="836" on="1"/>
        <pt x="590" y="804" on="0"/>
        <pt x="558" y="765" on="0"/>
        <pt x="528" y="765" on="1"/>
        <pt x="483" y="765" on="0"/>
        <pt x="483" y="812" on="1"/>
        <pt x="483" y="844" on="0"/>
        <pt x="515" y="884" on="0"/>
      </contour>
      <contour>
        <pt x="316" y="884" on="1"/>
        <pt x="362" y="884" on="0"/>
        <pt x="362" y="836" on="1"/>
        <pt x="362" y="804" on="0"/>
        <pt x="329" y="765" on="0"/>
        <pt x="299" y="765" on="1"/>
        <pt x="254" y="765" on="0"/>
        <pt x="254" y="812" on="1"/>
        <pt x="254" y="844" on="0"/>
        <pt x="286" y="884" on="0"/>
      </contour>
    </TTGlyph>
    <TTGlyph name="Ograve" xMin="49" yMin="-15" xMax="701" yMax="898">
      <contour>
        <pt x="701" y="420" on="1"/>
        <pt x="701" y="229" on="0"/>
        <pt x="502" y="-15" on="0"/>
        <pt x="324" y="-15" on="1"/>
        <pt x="191" y="-15" on="0"/>
        <pt x="49" y="147" on="0"/>
        <pt x="49" y="284" on="1"/>
        <pt x="49" y="476" on="0"/>
        <pt x="248" y="720" on="0"/>
        <pt x="426" y="720" on="1"/>
        <pt x="559" y="720" on="0"/>
        <pt x="701" y="557" on="0"/>
      </contour>
      <contour>
        <pt x="215" y="556" on="0"/>
        <pt x="156" y="384" on="0"/>
        <pt x="156" y="174" on="0"/>
        <pt x="244" y="38" on="0"/>
        <pt x="411" y="38" on="0"/>
        <pt x="534" y="148" on="0"/>
        <pt x="594" y="320" on="0"/>
        <pt x="594" y="531" on="0"/>
        <pt x="507" y="667" on="0"/>
        <pt x="338" y="667" on="0"/>
      </contour>
      <contour>
        <pt x="274" y="825" on="1"/>
        <pt x="304" y="898" on="1"/>
        <pt x="526" y="798" on="1"/>
        <pt x="506" y="750" on="1"/>
        <pt x="421" y="787" on="1"/>
      </contour>
    </TTGlyph>
    <TTGlyph name="Ohungarumlaut" xMin="49" yMin="-15" xMax="701" yMax="913">
      <contour>
        <pt x="701" y="420" on="1"/>
        <pt x="701" y="229" on="0"/>
        <pt x="502" y="-15" on="0"/>
        <pt x="324" y="-15" on="1"/>
        <pt x="191" y="-15" on="0"/>
        <pt x="49" y="147" on="0"/>
        <pt x="49" y="284" on="1"/>
        <pt x="49" y="476" on="0"/>
        <pt x="248" y="720" on="0"/>
        <pt x="426" y="720" on="1"/>
        <pt x="559" y="720" on="0"/>
        <pt x="701" y="557" on="0"/>
      </contour>
      <contour>
        <pt x="215" y="556" on="0"/>
        <pt x="156" y="384" on="0"/>
        <pt x="156" y="174" on="0"/>
        <pt x="244" y="38" on="0"/>
        <pt x="411" y="38" on="0"/>
        <pt x="534" y="148" on="0"/>
        <pt x="594" y="320" on="0"/>
        <pt x="594" y="531" on="0"/>
        <pt x="507" y="667" on="0"/>
        <pt x="338" y="667" on="0"/>
      </contour>
      <contour>
        <pt x="449" y="913" on="1"/>
        <pt x="489" y="846" on="1"/>
        <pt x="369" y="793" on="0"/>
        <pt x="350" y="784" on="1"/>
        <pt x="271" y="734" on="1"/>
        <pt x="245" y="777" on="1"/>
      </contour>
      <contour>
        <pt x="657" y="913" on="1"/>
        <pt x="697" y="846" on="1"/>
        <pt x="576" y="793" on="0"/>
        <pt x="558" y="784" on="1"/>
        <pt x="479" y="734" on="1"/>
        <pt x="453" y="777" on="1"/>
      </contour>
    </TTGlyph>
    <TTGlyph name="Omacron" xMin="49" yMin="-15" xMax="701" yMax="834">
      <contour>
        <pt x="701" y="420" on="1"/>
        <pt x="701" y="229" on="0"/>
        <pt x="502" y="-15" on="0"/>
        <pt x="324" y="-15" on="1"/>
        <pt x="191" y="-15" on="0"/>
        <pt x="49" y="147" on="0"/>
        <pt x="49" y="284" on="1"/>
        <pt x="49" y="476" on="0"/>
        <pt x="248" y="720" on="0"/>
        <pt x="426" y="720" on="1"/>
        <pt x="559" y="720" on="0"/>
        <pt x="701" y="557" on="0"/>
      </contour>
      <contour>
        <pt x="215" y="556" on="0"/>
        <pt x="156" y="384" on="0"/>
        <pt x="156" y="174" on="0"/>
        <pt x="244" y="38" on="0"/>
        <pt x="411" y="38" on="0"/>
        <pt x="534" y="148" on="0"/>
        <pt x="594" y="320" on="0"/>
        <pt x="594" y="531" on="0"/>
        <pt x="507" y="667" on="0"/>
        <pt x="338" y="667" on="0"/>
      </contour>
      <contour>
        <pt x="585" y="781" on="1"/>
        <pt x="277" y="781" on="1"/>
        <pt x="285" y="834" on="1"/>
        <pt x="598" y="834" on="1"/>
      </contour>
    </TTGlyph>
    <TTGlyph name="Omega" xMin="11" yMin="-4" xMax="761" yMax="720">
      <contour>
        <pt x="258" y="66" on="1"/>
        <pt x="97" y="133" on="0"/>
        <pt x="97" y="491" on="0"/>
        <pt x="298" y="720" on="0"/>
        <pt x="467" y="720" on="1"/>
        <pt x="599" y="720" on="0"/>
        <pt x="743" y="581" on="0"/>
        <pt x="743" y="312" on="0"/>
        <pt x="611" y="107" on="0"/>
        <pt x="492" y="64" on="1"/>
        <pt x="491" y="53" on="1"/>
        <pt x="568" y="57" on="1"/>
        <pt x="606" y="57" on="0"/>
        <pt x="656" y="66" on="1"/>
        <pt x="679" y="93" on="0"/>
        <pt x="683" y="103" on="1"/>
        <pt x="697" y="138" on="0"/>
        <pt x="707" y="170" on="1"/>
        <pt x="761" y="165" on="1"/>
        <pt x="724" y="7" on="1"/>
        <pt x="713" y="-4" on="1"/>
        <pt x="610" y="0" on="0"/>
        <pt x="590" y="0" on="1"/>
        <pt x="521" y="0" on="1"/>
        <pt x="427" y="-4" on="1"/>
        <pt x="435" y="93" on="1"/>
        <pt x="532" y="127" on="0"/>
        <pt x="636" y="324" on="0"/>
        <pt x="636" y="451" on="1"/>
        <pt x="636" y="549" on="0"/>
        <pt x="548" y="667" on="0"/>
        <pt x="460" y="667" on="1"/>
        <pt x="397" y="667" on="0"/>
        <pt x="296" y="603" on="0"/>
        <pt x="266" y="550" on="1"/>
        <pt x="203" y="441" on="0"/>
        <pt x="203" y="303" on="1"/>
        <pt x="203" y="151" on="0"/>
        <pt x="323" y="93" on="1"/>
        <pt x="311" y="-4" on="1"/>
        <pt x="257" y="0" on="0"/>
        <pt x="217" y="0" on="1"/>
        <pt x="142" y="0" on="1"/>
        <pt x="20" y="-4" on="1"/>
        <pt x="11" y="7" on="1"/>
        <pt x="18" y="165" on="1"/>
        <pt x="73" y="170" on="1"/>
        <pt x="76" y="129" on="0"/>
        <pt x="81" y="89" on="0"/>
        <pt x="94" y="66" on="1"/>
        <pt x="144" y="57" on="0"/>
        <pt x="180" y="57" on="1"/>
        <pt x="257" y="53" on="1"/>
      </contour>
    </TTGlyph>
    <TTGlyph name="Oslash" xMin="43" yMin="-136" xMax="704" yMax="838">
      <contour>
        <pt x="697" y="421" on="1"/>
        <pt x="697" y="230" on="0"/>
        <pt x="496" y="-15" on="0"/>
        <pt x="319" y="-15" on="1"/>
        <pt x="240" y="-15" on="0"/>
        <pt x="178" y="17" on="1"/>
        <pt x="78" y="-136" on="1"/>
        <pt x="43" y="-113" on="1"/>
        <pt x="143" y="40" on="1"/>
        <pt x="48" y="117" on="0"/>
        <pt x="48" y="283" on="1"/>
        <pt x="48" y="475" on="0"/>
        <pt x="248" y="720" on="0"/>
        <pt x="426" y="720" on="1"/>
        <pt x="507" y="720" on="0"/>
        <pt x="567" y="687" on="1"/>
        <pt x="666" y="838" on="1"/>
        <pt x="704" y="815" on="1"/>
        <pt x="604" y="663" on="1"/>
        <pt x="697" y="585" on="0"/>
      </contour>
      <contour>
        <pt x="211" y="556" on="0"/>
        <pt x="152" y="385" on="0"/>
        <pt x="152" y="177" on="0"/>
        <pt x="191" y="113" on="1"/>
        <pt x="526" y="625" on="1"/>
        <pt x="482" y="667" on="0"/>
        <pt x="418" y="667" on="1"/>
        <pt x="335" y="667" on="0"/>
      </contour>
      <contour>
        <pt x="533" y="148" on="0"/>
        <pt x="593" y="320" on="0"/>
        <pt x="593" y="523" on="0"/>
        <pt x="555" y="588" on="1"/>
        <pt x="219" y="78" on="1"/>
        <pt x="261" y="38" on="0"/>
        <pt x="409" y="38" on="0"/>
      </contour>
    </TTGlyph>
    <TTGlyph name="Oslashacute" xMin="43" yMin="-136" xMax="704" yMax="898">
      <contour>
        <pt x="697" y="421" on="1"/>
        <pt x="697" y="230" on="0"/>
        <pt x="496" y="-15" on="0"/>
        <pt x="319" y="-15" on="1"/>
        <pt x="240" y="-15" on="0"/>
        <pt x="178" y="17" on="1"/>
        <pt x="78" y="-136" on="1"/>
        <pt x="43" y="-113" on="1"/>
        <pt x="143" y="40" on="1"/>
        <pt x="48" y="117" on="0"/>
        <pt x="48" y="283" on="1"/>
        <pt x="48" y="475" on="0"/>
        <pt x="248" y="720" on="0"/>
        <pt x="426" y="720" on="1"/>
        <pt x="507" y="720" on="0"/>
        <pt x="567" y="687" on="1"/>
        <pt x="666" y="838" on="1"/>
        <pt x="704" y="815" on="1"/>
        <pt x="604" y="663" on="1"/>
        <pt x="697" y="585" on="0"/>
      </contour>
      <contour>
        <pt x="211" y="556" on="0"/>
        <pt x="152" y="385" on="0"/>
        <pt x="152" y="177" on="0"/>
        <pt x="191" y="113" on="1"/>
        <pt x="526" y="625" on="1"/>
        <pt x="482" y="667" on="0"/>
        <pt x="418" y="667" on="1"/>
        <pt x="335" y="667" on="0"/>
      </contour>
      <contour>
        <pt x="533" y="148" on="0"/>
        <pt x="593" y="320" on="0"/>
        <pt x="593" y="523" on="0"/>
        <pt x="555" y="588" on="1"/>
        <pt x="219" y="78" on="1"/>
        <pt x="261" y="38" on="0"/>
        <pt x="409" y="38" on="0"/>
      </contour>
      <contour>
        <pt x="535" y="898" on="1"/>
        <pt x="564" y="825" on="1"/>
        <pt x="436" y="793" on="0"/>
        <pt x="417" y="787" on="1"/>
        <pt x="332" y="750" on="1"/>
        <pt x="312" y="798" on="1"/>
      </contour>
    </TTGlyph>
    <TTGlyph name="Otilde" xMin="49" yMin="-15" xMax="701" yMax="882">
      <contour>
        <pt x="701" y="420" on="1"/>
        <pt x="701" y="229" on="0"/>
        <pt x="502" y="-15" on="0"/>
        <pt x="324" y="-15" on="1"/>
        <pt x="191" y="-15" on="0"/>
        <pt x="49" y="147" on="0"/>
        <pt x="49" y="284" on="1"/>
        <pt x="49" y="476" on="0"/>
        <pt x="248" y="720" on="0"/>
        <pt x="426" y="720" on="1"/>
        <pt x="559" y="720" on="0"/>
        <pt x="701" y="557" on="0"/>
      </contour>
      <contour>
        <pt x="215" y="556" on="0"/>
        <pt x="156" y="384" on="0"/>
        <pt x="156" y="174" on="0"/>
        <pt x="244" y="38" on="0"/>
        <pt x="411" y="38" on="0"/>
        <pt x="534" y="148" on="0"/>
        <pt x="594" y="320" on="0"/>
        <pt x="594" y="531" on="0"/>
        <pt x="507" y="667" on="0"/>
        <pt x="338" y="667" on="0"/>
      </contour>
      <contour>
        <pt x="514" y="763" on="0"/>
        <pt x="478" y="763" on="0"/>
        <pt x="364" y="804" on="0"/>
        <pt x="348" y="804" on="1"/>
        <pt x="321" y="804" on="0"/>
        <pt x="294" y="771" on="1"/>
        <pt x="285" y="760" on="1"/>
        <pt x="253" y="781" on="1"/>
        <pt x="265" y="805" on="0"/>
        <pt x="287" y="829" on="1"/>
        <pt x="326" y="872" on="0"/>
        <pt x="366" y="872" on="0"/>
        <pt x="482" y="831" on="0"/>
        <pt x="498" y="831" on="1"/>
        <pt x="525" y="831" on="0"/>
        <pt x="551" y="869" on="1"/>
        <pt x="560" y="882" on="1"/>
        <pt x="592" y="861" on="1"/>
        <pt x="572" y="825" on="0"/>
      </contour>
    </TTGlyph>
    <TTGlyph name="P" xMin="9" yMin="-5" xMax="582" yMax="715">
      <contour>
        <pt x="210" y="705" on="1"/>
        <pt x="383" y="715" on="1"/>
        <pt x="474" y="715" on="0"/>
        <pt x="582" y="625" on="0"/>
        <pt x="582" y="539" on="1"/>
        <pt x="582" y="423" on="0"/>
        <pt x="431" y="291" on="0"/>
        <pt x="318" y="291" on="1"/>
        <pt x="283" y="291" on="0"/>
        <pt x="223" y="293" on="1"/>
        <pt x="205" y="167" on="1"/>
        <pt x="196" y="104" on="0"/>
        <pt x="196" y="61" on="1"/>
        <pt x="286" y="54" on="1"/>
        <pt x="270" y="-5" on="1"/>
        <pt x="202" y="0" on="0"/>
        <pt x="123" y="0" on="1"/>
        <pt x="9" y="-5" on="1"/>
        <pt x="11" y="45" on="1"/>
        <pt x="90" y="61" on="1"/>
        <pt x="105" y="111" on="0"/>
        <pt x="110" y="137" on="1"/>
        <pt x="173" y="568" on="1"/>
        <pt x="175" y="585" on="0"/>
        <pt x="175" y="644" on="1"/>
        <pt x="102" y="656" on="1"/>
        <pt x="115" y="710" on="1"/>
        <pt x="177" y="706" on="0"/>
      </contour>
      <contour>
        <pt x="295" y="341" on="1"/>
        <pt x="383" y="341" on="0"/>
        <pt x="487" y="439" on="0"/>
        <pt x="487" y="530" on="1"/>
        <pt x="487" y="596" on="0"/>
        <pt x="412" y="665" on="0"/>
        <pt x="344" y="665" on="1"/>
        <pt x="326" y="665" on="0"/>
        <pt x="284" y="660" on="1"/>
        <pt x="268" y="600" on="0"/>
        <pt x="259" y="538" on="1"/>
        <pt x="231" y="345" on="1"/>
        <pt x="279" y="341" on="0"/>
      </contour>
    </TTGlyph>
    <TTGlyph name="Q" xMin="49" yMin="-224" xMax="701" yMax="720">
      <contour>
        <pt x="323" y="-15" on="1"/>
        <pt x="190" y="-15" on="0"/>
        <pt x="49" y="147" on="0"/>
        <pt x="49" y="284" on="1"/>
        <pt x="49" y="476" on="0"/>
        <pt x="248" y="720" on="0"/>
        <pt x="426" y="720" on="1"/>
        <pt x="559" y="720" on="0"/>
        <pt x="701" y="557" on="0"/>
        <pt x="701" y="265" on="0"/>
        <pt x="564" y="40" on="0"/>
        <pt x="437" y="1" on="1"/>
        <pt x="512" y="-60" on="1"/>
        <pt x="523" y="-69" on="0"/>
        <pt x="622" y="-116" on="1"/>
        <pt x="655" y="-132" on="1"/>
        <pt x="583" y="-224" on="1"/>
        <pt x="359" y="-13" on="1"/>
        <pt x="335" y="-15" on="0"/>
      </contour>
      <contour>
        <pt x="215" y="556" on="0"/>
        <pt x="156" y="384" on="0"/>
        <pt x="156" y="174" on="0"/>
        <pt x="245" y="38" on="0"/>
        <pt x="331" y="38" on="1"/>
        <pt x="453" y="38" on="0"/>
        <pt x="594" y="263" on="0"/>
        <pt x="594" y="421" on="1"/>
        <pt x="594" y="531" on="0"/>
        <pt x="507" y="667" on="0"/>
        <pt x="338" y="667" on="0"/>
      </contour>
    </TTGlyph>
    <TTGlyph name="R" xMin="9" yMin="-5" xMax="593" yMax="715">
      <contour>
        <pt x="214" y="705" on="1"/>
        <pt x="385" y="715" on="1"/>
        <pt x="477" y="715" on="0"/>
        <pt x="585" y="627" on="0"/>
        <pt x="585" y="456" on="0"/>
        <pt x="490" y="337" on="0"/>
        <pt x="412" y="314" on="1"/>
        <pt x="457" y="191" on="0"/>
        <pt x="494" y="116" on="0"/>
        <pt x="524" y="61" on="1"/>
        <pt x="593" y="54" on="1"/>
        <pt x="578" y="-5" on="1"/>
        <pt x="502" y="0" on="0"/>
        <pt x="423" y="0" on="1"/>
        <pt x="396" y="92" on="0"/>
        <pt x="387" y="116" on="1"/>
        <pt x="318" y="301" on="1"/>
        <pt x="284" y="301" on="0"/>
        <pt x="226" y="303" on="1"/>
        <pt x="206" y="167" on="1"/>
        <pt x="197" y="104" on="0"/>
        <pt x="197" y="61" on="1"/>
        <pt x="284" y="54" on="1"/>
        <pt x="268" y="-5" on="1"/>
        <pt x="204" y="0" on="0"/>
        <pt x="124" y="0" on="1"/>
        <pt x="9" y="-5" on="1"/>
        <pt x="11" y="45" on="1"/>
        <pt x="91" y="61" on="1"/>
        <pt x="106" y="111" on="0"/>
        <pt x="111" y="137" on="1"/>
        <pt x="175" y="568" on="1"/>
        <pt x="177" y="585" on="0"/>
        <pt x="177" y="644" on="1"/>
        <pt x="103" y="656" on="1"/>
        <pt x="116" y="710" on="1"/>
        <pt x="181" y="707" on="0"/>
      </contour>
      <contour>
        <pt x="346" y="665" on="1"/>
        <pt x="337" y="665" on="0"/>
        <pt x="287" y="659" on="1"/>
        <pt x="272" y="608" on="0"/>
        <pt x="261" y="538" on="1"/>
        <pt x="234" y="356" on="1"/>
        <pt x="281" y="351" on="0"/>
        <pt x="309" y="351" on="1"/>
        <pt x="396" y="351" on="0"/>
        <pt x="490" y="444" on="0"/>
        <pt x="490" y="534" on="1"/>
        <pt x="490" y="598" on="0"/>
        <pt x="414" y="665" on="0"/>
      </contour>
    </TTGlyph>
    <TTGlyph name="Racute" xMin="9" yMin="-5" xMax="593" yMax="898">
      <contour>
        <pt x="214" y="705" on="1"/>
        <pt x="385" y="715" on="1"/>
        <pt x="477" y="715" on="0"/>
        <pt x="585" y="627" on="0"/>
        <pt x="585" y="456" on="0"/>
        <pt x="490" y="337" on="0"/>
        <pt x="412" y="314" on="1"/>
        <pt x="457" y="191" on="0"/>
        <pt x="494" y="116" on="0"/>
        <pt x="524" y="61" on="1"/>
        <pt x="593" y="54" on="1"/>
        <pt x="578" y="-5" on="1"/>
        <pt x="502" y="0" on="0"/>
        <pt x="423" y="0" on="1"/>
        <pt x="396" y="92" on="0"/>
        <pt x="387" y="116" on="1"/>
        <pt x="318" y="301" on="1"/>
        <pt x="284" y="301" on="0"/>
        <pt x="226" y="303" on="1"/>
        <pt x="206" y="167" on="1"/>
        <pt x="197" y="104" on="0"/>
        <pt x="197" y="61" on="1"/>
        <pt x="284" y="54" on="1"/>
        <pt x="268" y="-5" on="1"/>
        <pt x="204" y="0" on="0"/>
        <pt x="124" y="0" on="1"/>
        <pt x="9" y="-5" on="1"/>
        <pt x="11" y="45" on="1"/>
        <pt x="91" y="61" on="1"/>
        <pt x="106" y="111" on="0"/>
        <pt x="111" y="137" on="1"/>
        <pt x="175" y="568" on="1"/>
        <pt x="177" y="585" on="0"/>
        <pt x="177" y="644" on="1"/>
        <pt x="103" y="656" on="1"/>
        <pt x="116" y="710" on="1"/>
        <pt x="181" y="707" on="0"/>
      </contour>
      <contour>
        <pt x="346" y="665" on="1"/>
        <pt x="337" y="665" on="0"/>
        <pt x="287" y="659" on="1"/>
        <pt x="272" y="608" on="0"/>
        <pt x="261" y="538" on="1"/>
        <pt x="234" y="356" on="1"/>
        <pt x="281" y="351" on="0"/>
        <pt x="309" y="351" on="1"/>
        <pt x="396" y="351" on="0"/>
        <pt x="490" y="444" on="0"/>
        <pt x="490" y="534" on="1"/>
        <pt x="490" y="598" on="0"/>
        <pt x="414" y="665" on="0"/>
      </contour>
      <contour>
        <pt x="468" y="898" on="1"/>
        <pt x="497" y="825" on="1"/>
        <pt x="369" y="793" on="0"/>
        <pt x="350" y="787" on="1"/>
        <pt x="265" y="750" on="1"/>
        <pt x="245" y="798" on="1"/>
      </contour>
    </TTGlyph>
    <TTGlyph name="Rcaron" xMin="9" yMin="-5" xMax="593" yMax="893">
      <contour>
        <pt x="214" y="705" on="1"/>
        <pt x="385" y="715" on="1"/>
        <pt x="477" y="715" on="0"/>
        <pt x="585" y="627" on="0"/>
        <pt x="585" y="456" on="0"/>
        <pt x="490" y="337" on="0"/>
        <pt x="412" y="314" on="1"/>
        <pt x="457" y="191" on="0"/>
        <pt x="494" y="116" on="0"/>
        <pt x="524" y="61" on="1"/>
        <pt x="593" y="54" on="1"/>
        <pt x="578" y="-5" on="1"/>
        <pt x="502" y="0" on="0"/>
        <pt x="423" y="0" on="1"/>
        <pt x="396" y="92" on="0"/>
        <pt x="387" y="116" on="1"/>
        <pt x="318" y="301" on="1"/>
        <pt x="284" y="301" on="0"/>
        <pt x="226" y="303" on="1"/>
        <pt x="206" y="167" on="1"/>
        <pt x="197" y="104" on="0"/>
        <pt x="197" y="61" on="1"/>
        <pt x="284" y="54" on="1"/>
        <pt x="268" y="-5" on="1"/>
        <pt x="204" y="0" on="0"/>
        <pt x="124" y="0" on="1"/>
        <pt x="9" y="-5" on="1"/>
        <pt x="11" y="45" on="1"/>
        <pt x="91" y="61" on="1"/>
        <pt x="106" y="111" on="0"/>
        <pt x="111" y="137" on="1"/>
        <pt x="175" y="568" on="1"/>
        <pt x="177" y="585" on="0"/>
        <pt x="177" y="644" on="1"/>
        <pt x="103" y="656" on="1"/>
        <pt x="116" y="710" on="1"/>
        <pt x="181" y="707" on="0"/>
      </contour>
      <contour>
        <pt x="346" y="665" on="1"/>
        <pt x="337" y="665" on="0"/>
        <pt x="287" y="659" on="1"/>
        <pt x="272" y="608" on="0"/>
        <pt x="261" y="538" on="1"/>
        <pt x="234" y="356" on="1"/>
        <pt x="281" y="351" on="0"/>
        <pt x="309" y="351" on="1"/>
        <pt x="396" y="351" on="0"/>
        <pt x="490" y="444" on="0"/>
        <pt x="490" y="534" on="1"/>
        <pt x="490" y="598" on="0"/>
        <pt x="414" y="665" on="0"/>
      </contour>
      <contour>
        <pt x="512" y="893" on="1"/>
        <pt x="529" y="854" on="1"/>
        <pt x="345" y="747" on="1"/>
        <pt x="192" y="854" on="1"/>
        <pt x="219" y="893" on="1"/>
        <pt x="299" y="852" on="1"/>
        <pt x="357" y="827" on="1"/>
        <pt x="401" y="845" on="0"/>
        <pt x="422" y="852" on="1"/>
      </contour>
    </TTGlyph>
    <TTGlyph name="Rcommaaccent" xMin="9" yMin="-259" xMax="593" yMax="715">
      <contour>
        <pt x="214" y="705" on="1"/>
        <pt x="385" y="715" on="1"/>
        <pt x="477" y="715" on="0"/>
        <pt x="585" y="627" on="0"/>
        <pt x="585" y="456" on="0"/>
        <pt x="490" y="337" on="0"/>
        <pt x="412" y="314" on="1"/>
        <pt x="457" y="191" on="0"/>
        <pt x="494" y="116" on="0"/>
        <pt x="524" y="61" on="1"/>
        <pt x="593" y="54" on="1"/>
        <pt x="578" y="-5" on="1"/>
        <pt x="502" y="0" on="0"/>
        <pt x="423" y="0" on="1"/>
        <pt x="396" y="92" on="0"/>
        <pt x="387" y="116" on="1"/>
        <pt x="318" y="301" on="1"/>
        <pt x="284" y="301" on="0"/>
        <pt x="226" y="303" on="1"/>
        <pt x="206" y="167" on="1"/>
        <pt x="197" y="104" on="0"/>
        <pt x="197" y="61" on="1"/>
        <pt x="284" y="54" on="1"/>
        <pt x="268" y="-5" on="1"/>
        <pt x="204" y="0" on="0"/>
        <pt x="124" y="0" on="1"/>
        <pt x="9" y="-5" on="1"/>
        <pt x="11" y="45" on="1"/>
        <pt x="91" y="61" on="1"/>
        <pt x="106" y="111" on="0"/>
        <pt x="111" y="137" on="1"/>
        <pt x="175" y="568" on="1"/>
        <pt x="177" y="585" on="0"/>
        <pt x="177" y="644" on="1"/>
        <pt x="103" y="656" on="1"/>
        <pt x="116" y="710" on="1"/>
        <pt x="181" y="707" on="0"/>
      </contour>
      <contour>
        <pt x="346" y="665" on="1"/>
        <pt x="337" y="665" on="0"/>
        <pt x="287" y="659" on="1"/>
        <pt x="272" y="608" on="0"/>
        <pt x="261" y="538" on="1"/>
        <pt x="234" y="356" on="1"/>
        <pt x="281" y="351" on="0"/>
        <pt x="309" y="351" on="1"/>
        <pt x="396" y="351" on="0"/>
        <pt x="490" y="444" on="0"/>
        <pt x="490" y="534" on="1"/>
        <pt x="490" y="598" on="0"/>
        <pt x="414" y="665" on="0"/>
      </contour>
      <contour>
        <pt x="317" y="-168" on="1"/>
        <pt x="292" y="-156" on="0"/>
        <pt x="292" y="-94" on="0"/>
        <pt x="328" y="-58" on="0"/>
        <pt x="350" y="-58" on="1"/>
        <pt x="391" y="-58" on="0"/>
        <pt x="391" y="-109" on="1"/>
        <pt x="391" y="-136" on="0"/>
        <pt x="358" y="-211" on="0"/>
        <pt x="342" y="-235" on="1"/>
        <pt x="325" y="-259" on="1"/>
        <pt x="291" y="-247" on="1"/>
        <pt x="314" y="-194" on="0"/>
      </contour>
    </TTGlyph>
    <TTGlyph name="S" xMin="22" yMin="-15" xMax="527" yMax="720">
      <contour>
        <pt x="123" y="186" on="1"/>
        <pt x="115" y="136" on="0"/>
        <pt x="115" y="100" on="0"/>
        <pt x="117" y="72" on="1"/>
        <pt x="177" y="45" on="0"/>
        <pt x="304" y="45" on="0"/>
        <pt x="384" y="120" on="0"/>
        <pt x="384" y="184" on="1"/>
        <pt x="384" y="251" on="0"/>
        <pt x="282" y="308" on="1"/>
        <pt x="240" y="332" on="0"/>
        <pt x="155" y="382" on="0"/>
        <pt x="95" y="461" on="0"/>
        <pt x="95" y="512" on="1"/>
        <pt x="95" y="608" on="0"/>
        <pt x="229" y="720" on="0"/>
        <pt x="332" y="720" on="1"/>
        <pt x="407" y="720" on="0"/>
        <pt x="527" y="688" on="1"/>
        <pt x="491" y="537" on="1"/>
        <pt x="434" y="543" on="1"/>
        <pt x="441" y="587" on="0"/>
        <pt x="441" y="596" on="0"/>
        <pt x="436" y="643" on="1"/>
        <pt x="391" y="665" on="0"/>
        <pt x="272" y="665" on="0"/>
        <pt x="198" y="599" on="0"/>
        <pt x="198" y="542" on="1"/>
        <pt x="198" y="476" on="0"/>
        <pt x="302" y="420" on="1"/>
        <pt x="345" y="396" on="0"/>
        <pt x="431" y="344" on="0"/>
        <pt x="492" y="261" on="0"/>
        <pt x="492" y="207" on="1"/>
        <pt x="492" y="101" on="0"/>
        <pt x="343" y="-15" on="0"/>
        <pt x="231" y="-15" on="1"/>
        <pt x="173" y="-15" on="0"/>
        <pt x="69" y="12" on="0"/>
        <pt x="46" y="25" on="1"/>
        <pt x="22" y="38" on="1"/>
        <pt x="59" y="192" on="1"/>
      </contour>
    </TTGlyph>
    <TTGlyph name="Sacute" xMin="22" yMin="-15" xMax="527" yMax="898">
      <contour>
        <pt x="123" y="186" on="1"/>
        <pt x="115" y="136" on="0"/>
        <pt x="115" y="100" on="0"/>
        <pt x="117" y="72" on="1"/>
        <pt x="177" y="45" on="0"/>
        <pt x="304" y="45" on="0"/>
        <pt x="384" y="120" on="0"/>
        <pt x="384" y="184" on="1"/>
        <pt x="384" y="251" on="0"/>
        <pt x="282" y="308" on="1"/>
        <pt x="240" y="332" on="0"/>
        <pt x="155" y="382" on="0"/>
        <pt x="95" y="461" on="0"/>
        <pt x="95" y="512" on="1"/>
        <pt x="95" y="608" on="0"/>
        <pt x="229" y="720" on="0"/>
        <pt x="332" y="720" on="1"/>
        <pt x="407" y="720" on="0"/>
        <pt x="527" y="688" on="1"/>
        <pt x="491" y="537" on="1"/>
        <pt x="434" y="543" on="1"/>
        <pt x="441" y="587" on="0"/>
        <pt x="441" y="596" on="0"/>
        <pt x="436" y="643" on="1"/>
        <pt x="391" y="665" on="0"/>
        <pt x="272" y="665" on="0"/>
        <pt x="198" y="599" on="0"/>
        <pt x="198" y="542" on="1"/>
        <pt x="198" y="476" on="0"/>
        <pt x="302" y="420" on="1"/>
        <pt x="345" y="396" on="0"/>
        <pt x="431" y="344" on="0"/>
        <pt x="492" y="261" on="0"/>
        <pt x="492" y="207" on="1"/>
        <pt x="492" y="101" on="0"/>
        <pt x="343" y="-15" on="0"/>
        <pt x="231" y="-15" on="1"/>
        <pt x="173" y="-15" on="0"/>
        <pt x="69" y="12" on="0"/>
        <pt x="46" y="25" on="1"/>
        <pt x="22" y="38" on="1"/>
        <pt x="59" y="192" on="1"/>
      </contour>
      <contour>
        <pt x="444" y="898" on="1"/>
        <pt x="473" y="825" on="1"/>
        <pt x="345" y="793" on="0"/>
        <pt x="326" y="787" on="1"/>
        <pt x="241" y="750" on="1"/>
        <pt x="221" y="798" on="1"/>
      </contour>
    </TTGlyph>
    <TTGlyph name="Scaron" xMin="22" yMin="-15" xMax="527" yMax="893">
      <contour>
        <pt x="123" y="186" on="1"/>
        <pt x="115" y="136" on="0"/>
        <pt x="115" y="100" on="0"/>
        <pt x="117" y="72" on="1"/>
        <pt x="177" y="45" on="0"/>
        <pt x="304" y="45" on="0"/>
        <pt x="384" y="120" on="0"/>
        <pt x="384" y="184" on="1"/>
        <pt x="384" y="251" on="0"/>
        <pt x="282" y="308" on="1"/>
        <pt x="240" y="332" on="0"/>
        <pt x="155" y="382" on="0"/>
        <pt x="95" y="461" on="0"/>
        <pt x="95" y="512" on="1"/>
        <pt x="95" y="608" on="0"/>
        <pt x="229" y="720" on="0"/>
        <pt x="332" y="720" on="1"/>
        <pt x="407" y="720" on="0"/>
        <pt x="527" y="688" on="1"/>
        <pt x="491" y="537" on="1"/>
        <pt x="434" y="543" on="1"/>
        <pt x="441" y="587" on="0"/>
        <pt x="441" y="596" on="0"/>
        <pt x="436" y="643" on="1"/>
        <pt x="391" y="665" on="0"/>
        <pt x="272" y="665" on="0"/>
        <pt x="198" y="599" on="0"/>
        <pt x="198" y="542" on="1"/>
        <pt x="198" y="476" on="0"/>
        <pt x="302" y="420" on="1"/>
        <pt x="345" y="396" on="0"/>
        <pt x="431" y="344" on="0"/>
        <pt x="492" y="261" on="0"/>
        <pt x="492" y="207" on="1"/>
        <pt x="492" y="101" on="0"/>
        <pt x="343" y="-15" on="0"/>
        <pt x="231" y="-15" on="1"/>
        <pt x="173" y="-15" on="0"/>
        <pt x="69" y="12" on="0"/>
        <pt x="46" y="25" on="1"/>
        <pt x="22" y="38" on="1"/>
        <pt x="59" y="192" on="1"/>
      </contour>
      <contour>
        <pt x="498" y="893" on="1"/>
        <pt x="515" y="854" on="1"/>
        <pt x="331" y="747" on="1"/>
        <pt x="178" y="854" on="1"/>
        <pt x="205" y="893" on="1"/>
        <pt x="285" y="852" on="1"/>
        <pt x="343" y="827" on="1"/>
        <pt x="387" y="845" on="0"/>
        <pt x="408" y="852" on="1"/>
      </contour>
    </TTGlyph>
    <TTGlyph name="Scedilla" xMin="22" yMin="-235" xMax="527" yMax="720">
      <contour>
        <pt x="123" y="186" on="1"/>
        <pt x="115" y="136" on="0"/>
        <pt x="115" y="100" on="0"/>
        <pt x="117" y="72" on="1"/>
        <pt x="177" y="45" on="0"/>
        <pt x="304" y="45" on="0"/>
        <pt x="384" y="120" on="0"/>
        <pt x="384" y="184" on="1"/>
        <pt x="384" y="251" on="0"/>
        <pt x="282" y="308" on="1"/>
        <pt x="240" y="332" on="0"/>
        <pt x="155" y="382" on="0"/>
        <pt x="95" y="461" on="0"/>
        <pt x="95" y="512" on="1"/>
        <pt x="95" y="608" on="0"/>
        <pt x="229" y="720" on="0"/>
        <pt x="332" y="720" on="1"/>
        <pt x="407" y="720" on="0"/>
        <pt x="527" y="688" on="1"/>
        <pt x="491" y="537" on="1"/>
        <pt x="434" y="543" on="1"/>
        <pt x="441" y="587" on="0"/>
        <pt x="441" y="596" on="0"/>
        <pt x="436" y="643" on="1"/>
        <pt x="391" y="665" on="0"/>
        <pt x="272" y="665" on="0"/>
        <pt x="198" y="599" on="0"/>
        <pt x="198" y="542" on="1"/>
        <pt x="198" y="476" on="0"/>
        <pt x="302" y="420" on="1"/>
        <pt x="345" y="396" on="0"/>
        <pt x="431" y="344" on="0"/>
        <pt x="492" y="261" on="0"/>
        <pt x="492" y="207" on="1"/>
        <pt x="492" y="103" on="0"/>
        <pt x="350" y="-12" on="0"/>
        <pt x="241" y="-15" on="1"/>
        <pt x="226" y="-59" on="1"/>
        <pt x="265" y="-60" on="0"/>
        <pt x="313" y="-100" on="0"/>
        <pt x="313" y="-179" on="0"/>
        <pt x="244" y="-235" on="0"/>
        <pt x="151" y="-235" on="0"/>
        <pt x="117" y="-217" on="1"/>
        <pt x="134" y="-182" on="1"/>
        <pt x="169" y="-193" on="0"/>
        <pt x="216" y="-193" on="0"/>
        <pt x="249" y="-164" on="0"/>
        <pt x="249" y="-139" on="1"/>
        <pt x="249" y="-103" on="0"/>
        <pt x="210" y="-103" on="1"/>
        <pt x="189" y="-104" on="1"/>
        <pt x="179" y="-94" on="1"/>
        <pt x="197" y="-13" on="1"/>
        <pt x="148" y="-9" on="0"/>
        <pt x="61" y="16" on="0"/>
        <pt x="42" y="27" on="1"/>
        <pt x="22" y="38" on="1"/>
        <pt x="59" y="192" on="1"/>
      </contour>
    </TTGlyph>
    <TTGlyph name="Scircumflex" xMin="22" yMin="-15" xMax="527" yMax="893">
      <contour>
        <pt x="123" y="186" on="1"/>
        <pt x="115" y="136" on="0"/>
        <pt x="115" y="100" on="0"/>
        <pt x="117" y="72" on="1"/>
        <pt x="177" y="45" on="0"/>
        <pt x="304" y="45" on="0"/>
        <pt x="384" y="120" on="0"/>
        <pt x="384" y="184" on="1"/>
        <pt x="384" y="251" on="0"/>
        <pt x="282" y="308" on="1"/>
        <pt x="240" y="332" on="0"/>
        <pt x="155" y="382" on="0"/>
        <pt x="95" y="461" on="0"/>
        <pt x="95" y="512" on="1"/>
        <pt x="95" y="608" on="0"/>
        <pt x="229" y="720" on="0"/>
        <pt x="332" y="720" on="1"/>
        <pt x="407" y="720" on="0"/>
        <pt x="527" y="688" on="1"/>
        <pt x="491" y="537" on="1"/>
        <pt x="434" y="543" on="1"/>
        <pt x="441" y="587" on="0"/>
        <pt x="441" y="596" on="0"/>
        <pt x="436" y="643" on="1"/>
        <pt x="391" y="665" on="0"/>
        <pt x="272" y="665" on="0"/>
        <pt x="198" y="599" on="0"/>
        <pt x="198" y="542" on="1"/>
        <pt x="198" y="476" on="0"/>
        <pt x="302" y="420" on="1"/>
        <pt x="345" y="396" on="0"/>
        <pt x="431" y="344" on="0"/>
        <pt x="492" y="261" on="0"/>
        <pt x="492" y="207" on="1"/>
        <pt x="492" y="101" on="0"/>
        <pt x="343" y="-15" on="0"/>
        <pt x="231" y="-15" on="1"/>
        <pt x="173" y="-15" on="0"/>
        <pt x="69" y="12" on="0"/>
        <pt x="46" y="25" on="1"/>
        <pt x="22" y="38" on="1"/>
        <pt x="59" y="192" on="1"/>
      </contour>
      <contour>
        <pt x="352" y="893" on="1"/>
        <pt x="505" y="786" on="1"/>
        <pt x="477" y="747" on="1"/>
        <pt x="398" y="788" on="1"/>
        <pt x="341" y="813" on="1"/>
        <pt x="332" y="810" on="0"/>
        <pt x="302" y="798" on="0"/>
        <pt x="280" y="790" on="0"/>
        <pt x="275" y="788" on="1"/>
        <pt x="184" y="747" on="1"/>
        <pt x="168" y="786" on="1"/>
      </contour>
    </TTGlyph>
    <TTGlyph name="Scommaaccent" xMin="22" yMin="-259" xMax="527" yMax="720">
      <contour>
        <pt x="123" y="186" on="1"/>
        <pt x="115" y="136" on="0"/>
        <pt x="115" y="100" on="0"/>
        <pt x="117" y="72" on="1"/>
        <pt x="177" y="45" on="0"/>
        <pt x="304" y="45" on="0"/>
        <pt x="384" y="120" on="0"/>
        <pt x="384" y="184" on="1"/>
        <pt x="384" y="251" on="0"/>
        <pt x="282" y="308" on="1"/>
        <pt x="240" y="332" on="0"/>
        <pt x="155" y="382" on="0"/>
        <pt x="95" y="461" on="0"/>
        <pt x="95" y="512" on="1"/>
        <pt x="95" y="608" on="0"/>
        <pt x="229" y="720" on="0"/>
        <pt x="332" y="720" on="1"/>
        <pt x="407" y="720" on="0"/>
        <pt x="527" y="688" on="1"/>
        <pt x="491" y="537" on="1"/>
        <pt x="434" y="543" on="1"/>
        <pt x="441" y="587" on="0"/>
        <pt x="441" y="596" on="0"/>
        <pt x="436" y="643" on="1"/>
        <pt x="391" y="665" on="0"/>
        <pt x="272" y="665" on="0"/>
        <pt x="198" y="599" on="0"/>
        <pt x="198" y="542" on="1"/>
        <pt x="198" y="476" on="0"/>
        <pt x="302" y="420" on="1"/>
        <pt x="345" y="396" on="0"/>
        <pt x="431" y="344" on="0"/>
        <pt x="492" y="261" on="0"/>
        <pt x="492" y="207" on="1"/>
        <pt x="492" y="101" on="0"/>
        <pt x="343" y="-15" on="0"/>
        <pt x="231" y="-15" on="1"/>
        <pt x="173" y="-15" on="0"/>
        <pt x="69" y="12" on="0"/>
        <pt x="46" y="25" on="1"/>
        <pt x="22" y="38" on="1"/>
        <pt x="59" y="192" on="1"/>
      </contour>
      <contour>
        <pt x="225" y="-168" on="1"/>
        <pt x="200" y="-156" on="0"/>
        <pt x="200" y="-94" on="0"/>
        <pt x="236" y="-58" on="0"/>
        <pt x="258" y="-58" on="1"/>
        <pt x="299" y="-58" on="0"/>
        <pt x="299" y="-109" on="1"/>
        <pt x="299" y="-136" on="0"/>
        <pt x="266" y="-211" on="0"/>
        <pt x="250" y="-235" on="1"/>
        <pt x="233" y="-259" on="1"/>
        <pt x="199" y="-247" on="1"/>
        <pt x="222" y="-194" on="0"/>
      </contour>
    </TTGlyph>
    <TTGlyph name="T" xMin="54" yMin="-5" xMax="628" yMax="715">
      <contour>
        <pt x="463" y="649" on="1"/>
        <pt x="400" y="649" on="1"/>
        <pt x="385" y="590" on="0"/>
        <pt x="377" y="538" on="1"/>
        <pt x="323" y="167" on="1"/>
        <pt x="320" y="147" on="0"/>
        <pt x="314" y="61" on="1"/>
        <pt x="400" y="54" on="1"/>
        <pt x="384" y="-5" on="1"/>
        <pt x="320" y="0" on="0"/>
        <pt x="242" y="0" on="1"/>
        <pt x="127" y="-5" on="1"/>
        <pt x="130" y="45" on="1"/>
        <pt x="208" y="61" on="1"/>
        <pt x="223" y="111" on="0"/>
        <pt x="228" y="137" on="1"/>
        <pt x="291" y="568" on="1"/>
        <pt x="294" y="595" on="0"/>
        <pt x="294" y="649" on="1"/>
        <pt x="233" y="649" on="1"/>
        <pt x="209" y="649" on="0"/>
        <pt x="154" y="644" on="1"/>
        <pt x="132" y="619" on="0"/>
        <pt x="127" y="603" on="0"/>
        <pt x="110" y="548" on="1"/>
        <pt x="54" y="553" on="1"/>
        <pt x="82" y="697" on="1"/>
        <pt x="103" y="715" on="1"/>
        <pt x="193" y="705" on="0"/>
        <pt x="212" y="705" on="1"/>
        <pt x="500" y="705" on="1"/>
        <pt x="612" y="715" on="1"/>
        <pt x="628" y="697" on="1"/>
        <pt x="613" y="553" on="1"/>
        <pt x="556" y="548" on="1"/>
        <pt x="556" y="595" on="0"/>
        <pt x="554" y="621" on="0"/>
        <pt x="540" y="644" on="1"/>
        <pt x="488" y="649" on="0"/>
      </contour>
    </TTGlyph>
    <TTGlyph name="Tbar" xMin="54" yMin="-5" xMax="628" yMax="715">
      <contour>
        <pt x="463" y="649" on="1"/>
        <pt x="400" y="649" on="1"/>
        <pt x="385" y="590" on="0"/>
        <pt x="377" y="538" on="1"/>
        <pt x="356" y="397" on="1"/>
        <pt x="506" y="397" on="1"/>
        <pt x="499" y="353" on="1"/>
        <pt x="350" y="353" on="1"/>
        <pt x="323" y="167" on="1"/>
        <pt x="320" y="147" on="0"/>
        <pt x="314" y="61" on="1"/>
        <pt x="400" y="54" on="1"/>
        <pt x="384" y="-5" on="1"/>
        <pt x="320" y="0" on="0"/>
        <pt x="242" y="0" on="1"/>
        <pt x="127" y="-5" on="1"/>
        <pt x="130" y="45" on="1"/>
        <pt x="208" y="61" on="1"/>
        <pt x="223" y="111" on="0"/>
        <pt x="228" y="137" on="1"/>
        <pt x="259" y="353" on="1"/>
        <pt x="111" y="353" on="1"/>
        <pt x="118" y="397" on="1"/>
        <pt x="266" y="397" on="1"/>
        <pt x="291" y="568" on="1"/>
        <pt x="294" y="595" on="0"/>
        <pt x="294" y="649" on="1"/>
        <pt x="233" y="649" on="1"/>
        <pt x="209" y="649" on="0"/>
        <pt x="154" y="644" on="1"/>
        <pt x="132" y="619" on="0"/>
        <pt x="127" y="603" on="0"/>
        <pt x="110" y="548" on="1"/>
        <pt x="54" y="553" on="1"/>
        <pt x="82" y="697" on="1"/>
        <pt x="103" y="715" on="1"/>
        <pt x="193" y="705" on="0"/>
        <pt x="212" y="705" on="1"/>
        <pt x="500" y="705" on="1"/>
        <pt x="612" y="715" on="1"/>
        <pt x="628" y="697" on="1"/>
        <pt x="613" y="553" on="1"/>
        <pt x="556" y="548" on="1"/>
        <pt x="556" y="595" on="0"/>
        <pt x="554" y="621" on="0"/>
        <pt x="540" y="644" on="1"/>
        <pt x="488" y="649" on="0"/>
      </contour>
    </TTGlyph>
    <TTGlyph name="Tcaron" xMin="54" yMin="-5" xMax="628" yMax="893">
      <contour>
        <pt x="463" y="649" on="1"/>
        <pt x="400" y="649" on="1"/>
        <pt x="385" y="590" on="0"/>
        <pt x="377" y="538" on="1"/>
        <pt x="323" y="167" on="1"/>
        <pt x="320" y="147" on="0"/>
        <pt x="314" y="61" on="1"/>
        <pt x="400" y="54" on="1"/>
        <pt x="384" y="-5" on="1"/>
        <pt x="320" y="0" on="0"/>
        <pt x="242" y="0" on="1"/>
        <pt x="127" y="-5" on="1"/>
        <pt x="130" y="45" on="1"/>
        <pt x="208" y="61" on="1"/>
        <pt x="223" y="111" on="0"/>
        <pt x="228" y="137" on="1"/>
        <pt x="291" y="568" on="1"/>
        <pt x="294" y="595" on="0"/>
        <pt x="294" y="649" on="1"/>
        <pt x="233" y="649" on="1"/>
        <pt x="209" y="649" on="0"/>
        <pt x="154" y="644" on="1"/>
        <pt x="132" y="619" on="0"/>
        <pt x="127" y="603" on="0"/>
        <pt x="110" y="548" on="1"/>
        <pt x="54" y="553" on="1"/>
        <pt x="82" y="697" on="1"/>
        <pt x="103" y="715" on="1"/>
        <pt x="193" y="705" on="0"/>
        <pt x="212" y="705" on="1"/>
        <pt x="500" y="705" on="1"/>
        <pt x="612" y="715" on="1"/>
        <pt x="628" y="697" on="1"/>
        <pt x="613" y="553" on="1"/>
        <pt x="556" y="548" on="1"/>
        <pt x="556" y="595" on="0"/>
        <pt x="554" y="621" on="0"/>
        <pt x="540" y="644" on="1"/>
        <pt x="488" y="649" on="0"/>
      </contour>
      <contour>
        <pt x="528" y="893" on="1"/>
        <pt x="545" y="854" on="1"/>
        <pt x="361" y="747" on="1"/>
        <pt x="208" y="854" on="1"/>
        <pt x="235" y="893" on="1"/>
        <pt x="315" y="852" on="1"/>
        <pt x="373" y="827" on="1"/>
        <pt x="417" y="845" on="0"/>
        <pt x="438" y="852" on="1"/>
      </contour>
    </TTGlyph>
    <TTGlyph name="Tcedilla" xMin="54" yMin="-235" xMax="628" yMax="715">
      <contour>
        <pt x="463" y="649" on="1"/>
        <pt x="400" y="649" on="1"/>
        <pt x="385" y="590" on="0"/>
        <pt x="377" y="538" on="1"/>
        <pt x="323" y="167" on="1"/>
        <pt x="320" y="147" on="0"/>
        <pt x="314" y="61" on="1"/>
        <pt x="400" y="54" on="1"/>
        <pt x="384" y="-5" on="1"/>
        <pt x="336" y="-1" on="0"/>
        <pt x="273" y="0" on="1"/>
        <pt x="253" y="-59" on="1"/>
        <pt x="292" y="-60" on="0"/>
        <pt x="340" y="-100" on="0"/>
        <pt x="340" y="-179" on="0"/>
        <pt x="271" y="-235" on="0"/>
        <pt x="178" y="-235" on="0"/>
        <pt x="144" y="-217" on="1"/>
        <pt x="161" y="-182" on="1"/>
        <pt x="196" y="-193" on="0"/>
        <pt x="243" y="-193" on="0"/>
        <pt x="276" y="-164" on="0"/>
        <pt x="276" y="-139" on="1"/>
        <pt x="276" y="-103" on="0"/>
        <pt x="237" y="-103" on="1"/>
        <pt x="216" y="-104" on="1"/>
        <pt x="206" y="-94" on="1"/>
        <pt x="227" y="0" on="1"/>
        <pt x="127" y="-5" on="1"/>
        <pt x="130" y="45" on="1"/>
        <pt x="208" y="61" on="1"/>
        <pt x="223" y="111" on="0"/>
        <pt x="228" y="137" on="1"/>
        <pt x="291" y="568" on="1"/>
        <pt x="294" y="595" on="0"/>
        <pt x="294" y="649" on="1"/>
        <pt x="233" y="649" on="1"/>
        <pt x="209" y="649" on="0"/>
        <pt x="154" y="644" on="1"/>
        <pt x="132" y="619" on="0"/>
        <pt x="127" y="603" on="0"/>
        <pt x="110" y="548" on="1"/>
        <pt x="54" y="553" on="1"/>
        <pt x="82" y="697" on="1"/>
        <pt x="103" y="715" on="1"/>
        <pt x="193" y="705" on="0"/>
        <pt x="212" y="705" on="1"/>
        <pt x="500" y="705" on="1"/>
        <pt x="612" y="715" on="1"/>
        <pt x="628" y="697" on="1"/>
        <pt x="613" y="553" on="1"/>
        <pt x="556" y="548" on="1"/>
        <pt x="556" y="595" on="0"/>
        <pt x="554" y="621" on="0"/>
        <pt x="540" y="644" on="1"/>
        <pt x="488" y="649" on="0"/>
      </contour>
    </TTGlyph>
    <TTGlyph name="Thorn" xMin="45" yMin="-5" xMax="594" yMax="710">
      <contour>
        <pt x="406" y="573" on="1"/>
        <pt x="496" y="573" on="0"/>
        <pt x="594" y="484" on="0"/>
        <pt x="594" y="398" on="1"/>
        <pt x="594" y="282" on="0"/>
        <pt x="435" y="149" on="0"/>
        <pt x="322" y="149" on="1"/>
        <pt x="292" y="149" on="0"/>
        <pt x="236" y="151" on="1"/>
        <pt x="230" y="105" on="0"/>
        <pt x="230" y="61" on="1"/>
        <pt x="316" y="54" on="1"/>
        <pt x="301" y="-5" on="1"/>
        <pt x="238" y="0" on="0"/>
        <pt x="160" y="0" on="1"/>
        <pt x="45" y="-5" on="1"/>
        <pt x="48" y="45" on="1"/>
        <pt x="126" y="61" on="1"/>
        <pt x="144" y="119" on="0"/>
        <pt x="146" y="137" on="1"/>
        <pt x="209" y="568" on="1"/>
        <pt x="211" y="585" on="0"/>
        <pt x="211" y="644" on="1"/>
        <pt x="139" y="656" on="1"/>
        <pt x="152" y="710" on="1"/>
        <pt x="244" y="705" on="0"/>
        <pt x="263" y="705" on="1"/>
        <pt x="397" y="710" on="1"/>
        <pt x="392" y="651" on="1"/>
        <pt x="315" y="644" on="1"/>
        <pt x="309" y="628" on="0"/>
        <pt x="298" y="567" on="1"/>
        <pt x="372" y="573" on="0"/>
      </contour>
      <contour>
        <pt x="309" y="199" on="1"/>
        <pt x="397" y="199" on="0"/>
        <pt x="502" y="297" on="0"/>
        <pt x="502" y="388" on="1"/>
        <pt x="502" y="454" on="0"/>
        <pt x="426" y="523" on="0"/>
        <pt x="357" y="523" on="1"/>
        <pt x="343" y="523" on="0"/>
        <pt x="289" y="517" on="1"/>
        <pt x="244" y="204" on="1"/>
        <pt x="284" y="199" on="0"/>
      </contour>
    </TTGlyph>
</ttFont>
